%TF.GenerationSoftware,KiCad,Pcbnew,8.0.2*%
%TF.CreationDate,2024-05-27T11:14:22+02:00*%
%TF.ProjectId,005_usb_volt_tester_beta,3030355f-7573-4625-9f76-6f6c745f7465,rev?*%
%TF.SameCoordinates,Original*%
%TF.FileFunction,Copper,L3,Inr*%
%TF.FilePolarity,Positive*%
%FSLAX46Y46*%
G04 Gerber Fmt 4.6, Leading zero omitted, Abs format (unit mm)*
G04 Created by KiCad (PCBNEW 8.0.2) date 2024-05-27 11:14:22*
%MOMM*%
%LPD*%
G01*
G04 APERTURE LIST*
%TA.AperFunction,ComponentPad*%
%ADD10O,1.300000X2.600000*%
%TD*%
%TA.AperFunction,ComponentPad*%
%ADD11O,1.300000X2.300000*%
%TD*%
%TA.AperFunction,ComponentPad*%
%ADD12R,1.700000X1.700000*%
%TD*%
%TA.AperFunction,ComponentPad*%
%ADD13O,1.700000X1.700000*%
%TD*%
%TA.AperFunction,ViaPad*%
%ADD14C,0.900000*%
%TD*%
%TA.AperFunction,ViaPad*%
%ADD15C,0.700000*%
%TD*%
G04 APERTURE END LIST*
D10*
%TO.N,GND*%
%TO.C,J1*%
X13462000Y22778000D03*
D11*
X13462000Y26603000D03*
D10*
X4822000Y22778000D03*
D11*
X4822000Y26603000D03*
%TD*%
D12*
%TO.N,unconnected-(J2-~{MCLR}{slash}VPP-Pad1)*%
%TO.C,J2*%
X31942000Y-17360000D03*
D13*
%TO.N,VCC*%
X31434000Y-14820000D03*
%TO.N,GND*%
X31942000Y-12280000D03*
%TO.N,/{slash}PGD{slash}ICSPDAT*%
X31434000Y-9740000D03*
%TD*%
D14*
%TO.N,VDD*%
X-254000Y-7241000D03*
X-6985000Y74420000D03*
X-8509000Y72896000D03*
X-2413000Y72896000D03*
X-3937000Y74420000D03*
X635000Y-6479000D03*
X-8001000Y73912000D03*
X-2921000Y73912000D03*
%TO.N,GND*%
X-9336000Y74166000D03*
X-10541000Y75944000D03*
X1651000Y-8384000D03*
X-508000Y74801000D03*
X-5207000Y-8384000D03*
X-5334000Y-7241000D03*
X1651000Y-7241000D03*
X-508000Y75944000D03*
X-10414000Y74674000D03*
X-1524000Y74166000D03*
D15*
%TO.N,/CC1*%
X-6858000Y72896000D03*
X-3175000Y-6098000D03*
%TO.N,/D+*%
X-5011000Y73150000D03*
%TO.N,/D-*%
X-5911000Y73150000D03*
X-2286000Y-5717000D03*
%TO.N,/SBU1*%
X-381000Y-6098000D03*
X-4064000Y72896000D03*
D14*
%TO.N,/SBU2*%
X-3302000Y-7241000D03*
X-4191000Y-6479000D03*
%TD*%
%TA.AperFunction,Conductor*%
%TO.N,GND*%
G36*
X15546279Y68056300D02*
G01*
X15560076Y68054746D01*
X15855643Y68004527D01*
X15869182Y68001437D01*
X16157270Y67918440D01*
X16170388Y67913850D01*
X16447362Y67799123D01*
X16459876Y67793097D01*
X16648218Y67689004D01*
X16722264Y67648080D01*
X16734038Y67640682D01*
X16775299Y67611406D01*
X16978542Y67467198D01*
X16989410Y67458530D01*
X17212938Y67258771D01*
X17222770Y67248939D01*
X17422529Y67025411D01*
X17431200Y67014539D01*
X17604681Y66770039D01*
X17612079Y66758265D01*
X17757092Y66495884D01*
X17763125Y66483356D01*
X17877848Y66206391D01*
X17882441Y66193266D01*
X17965433Y65905194D01*
X17968527Y65891637D01*
X18018743Y65596088D01*
X18020300Y65582270D01*
X18037305Y65279473D01*
X18037500Y65272520D01*
X18037500Y23877481D01*
X18037305Y23870528D01*
X18020300Y23567731D01*
X18018743Y23553913D01*
X17968527Y23258364D01*
X17965433Y23244807D01*
X17882441Y22956735D01*
X17877848Y22943610D01*
X17763125Y22666645D01*
X17757092Y22654117D01*
X17612079Y22391736D01*
X17604681Y22379962D01*
X17431200Y22135462D01*
X17422529Y22124590D01*
X17222770Y21901062D01*
X17212938Y21891230D01*
X16989410Y21691471D01*
X16978538Y21682800D01*
X16734038Y21509319D01*
X16722264Y21501921D01*
X16459883Y21356908D01*
X16447355Y21350875D01*
X16170390Y21236152D01*
X16157265Y21231559D01*
X15869193Y21148567D01*
X15855636Y21145473D01*
X15560087Y21095257D01*
X15546269Y21093700D01*
X15243472Y21076695D01*
X15236519Y21076500D01*
X3051481Y21076500D01*
X3044528Y21076695D01*
X2741730Y21093700D01*
X2727912Y21095257D01*
X2432363Y21145473D01*
X2418806Y21148567D01*
X2130734Y21231559D01*
X2117609Y21236152D01*
X1840644Y21350875D01*
X1828116Y21356908D01*
X1565735Y21501921D01*
X1553961Y21509319D01*
X1309461Y21682800D01*
X1298589Y21691471D01*
X1075061Y21891230D01*
X1065229Y21901062D01*
X865470Y22124590D01*
X856799Y22135462D01*
X683318Y22379962D01*
X675920Y22391736D01*
X530907Y22654117D01*
X524877Y22666638D01*
X410150Y22943612D01*
X405558Y22956735D01*
X387587Y23019114D01*
X322563Y23244818D01*
X319472Y23258364D01*
X269254Y23553924D01*
X267700Y23567723D01*
X250695Y23870529D01*
X250500Y23877481D01*
X250500Y25652001D01*
X1130571Y25652001D01*
X1130571Y25652000D01*
X1150244Y25439690D01*
X1208596Y25234608D01*
X1208596Y25234606D01*
X1303632Y25043747D01*
X1432127Y24873594D01*
X1432128Y24873593D01*
X1589698Y24729948D01*
X1770981Y24617702D01*
X1969802Y24540679D01*
X2179390Y24501500D01*
X2179392Y24501500D01*
X2392608Y24501500D01*
X2392610Y24501500D01*
X2602198Y24540679D01*
X2801019Y24617702D01*
X2982302Y24729948D01*
X3139872Y24873593D01*
X3268366Y25043745D01*
X3363405Y25234611D01*
X3421756Y25439690D01*
X3441429Y25652000D01*
X3421756Y25864310D01*
X3399113Y25943892D01*
X5641500Y25943892D01*
X5641500Y25812109D01*
X5675608Y25684813D01*
X5694553Y25652000D01*
X5741500Y25570686D01*
X5834686Y25477500D01*
X5948814Y25411608D01*
X6076108Y25377500D01*
X6076110Y25377500D01*
X6207890Y25377500D01*
X6207892Y25377500D01*
X6335186Y25411608D01*
X6449314Y25477500D01*
X6542500Y25570686D01*
X6608392Y25684814D01*
X6642500Y25812108D01*
X6642500Y25943892D01*
X11516500Y25943892D01*
X11516500Y25812109D01*
X11550608Y25684813D01*
X11569553Y25652000D01*
X11616500Y25570686D01*
X11709686Y25477500D01*
X11823814Y25411608D01*
X11951108Y25377500D01*
X11951110Y25377500D01*
X12332890Y25377500D01*
X12332892Y25377500D01*
X12460186Y25411608D01*
X12574314Y25477500D01*
X12667500Y25570686D01*
X12714447Y25652001D01*
X14846571Y25652001D01*
X14846571Y25652000D01*
X14866244Y25439690D01*
X14924596Y25234608D01*
X14924596Y25234606D01*
X15019632Y25043747D01*
X15148127Y24873594D01*
X15148128Y24873593D01*
X15305698Y24729948D01*
X15486981Y24617702D01*
X15685802Y24540679D01*
X15895390Y24501500D01*
X15895392Y24501500D01*
X16108608Y24501500D01*
X16108610Y24501500D01*
X16318198Y24540679D01*
X16517019Y24617702D01*
X16698302Y24729948D01*
X16855872Y24873593D01*
X16984366Y25043745D01*
X17079405Y25234611D01*
X17137756Y25439690D01*
X17157429Y25652000D01*
X17137756Y25864310D01*
X17079405Y26069389D01*
X17079403Y26069394D01*
X17079403Y26069395D01*
X16984367Y26260254D01*
X16855872Y26430407D01*
X16698302Y26574052D01*
X16517019Y26686298D01*
X16517017Y26686299D01*
X16417608Y26724810D01*
X16318198Y26763321D01*
X16108610Y26802500D01*
X15895390Y26802500D01*
X15685802Y26763321D01*
X15685799Y26763321D01*
X15685799Y26763320D01*
X15486982Y26686299D01*
X15486980Y26686298D01*
X15305699Y26574053D01*
X15148127Y26430407D01*
X15019632Y26260254D01*
X14924596Y26069395D01*
X14924596Y26069393D01*
X14866244Y25864311D01*
X14846571Y25652001D01*
X12714447Y25652001D01*
X12733392Y25684814D01*
X12767500Y25812108D01*
X12767500Y25943892D01*
X12733392Y26071186D01*
X12667500Y26185314D01*
X12574314Y26278500D01*
X12517250Y26311446D01*
X12460187Y26344392D01*
X12396539Y26361446D01*
X12332892Y26378500D01*
X11951108Y26378500D01*
X11823812Y26344392D01*
X11709686Y26278500D01*
X11709683Y26278498D01*
X11616502Y26185317D01*
X11616500Y26185314D01*
X11550608Y26071188D01*
X11516500Y25943892D01*
X6642500Y25943892D01*
X6608392Y26071186D01*
X6542500Y26185314D01*
X6449314Y26278500D01*
X6392250Y26311446D01*
X6335187Y26344392D01*
X6271539Y26361446D01*
X6207892Y26378500D01*
X6076108Y26378500D01*
X5948812Y26344392D01*
X5834686Y26278500D01*
X5834683Y26278498D01*
X5741502Y26185317D01*
X5741500Y26185314D01*
X5675608Y26071188D01*
X5641500Y25943892D01*
X3399113Y25943892D01*
X3363405Y26069389D01*
X3363403Y26069394D01*
X3363403Y26069395D01*
X3268367Y26260254D01*
X3139872Y26430407D01*
X2982302Y26574052D01*
X2801019Y26686298D01*
X2801017Y26686299D01*
X2701608Y26724810D01*
X2602198Y26763321D01*
X2392610Y26802500D01*
X2179390Y26802500D01*
X1969802Y26763321D01*
X1969799Y26763321D01*
X1969799Y26763320D01*
X1770982Y26686299D01*
X1770980Y26686298D01*
X1589699Y26574053D01*
X1432127Y26430407D01*
X1303632Y26260254D01*
X1208596Y26069395D01*
X1208596Y26069393D01*
X1150244Y25864311D01*
X1130571Y25652001D01*
X250500Y25652001D01*
X250500Y65272520D01*
X250695Y65279472D01*
X265343Y65540308D01*
X267700Y65582280D01*
X269254Y65596075D01*
X319474Y65891648D01*
X322562Y65905179D01*
X405561Y66193277D01*
X410151Y66206391D01*
X427146Y66247420D01*
X524880Y66483370D01*
X530900Y66495870D01*
X675923Y66758271D01*
X683318Y66770039D01*
X856808Y67014552D01*
X865459Y67025399D01*
X1065230Y67248941D01*
X1075061Y67258771D01*
X1298601Y67458541D01*
X1309448Y67467192D01*
X1553966Y67640686D01*
X1565729Y67648077D01*
X1828130Y67793100D01*
X1840630Y67799120D01*
X2117616Y67913852D01*
X2130723Y67918439D01*
X2418821Y68001438D01*
X2432352Y68004526D01*
X2727925Y68054746D01*
X2741718Y68056300D01*
X3037563Y68072914D01*
X3058392Y68072330D01*
X3147935Y68062241D01*
X3175001Y68056064D01*
X3256746Y68027460D01*
X3281762Y68015412D01*
X3355086Y67969339D01*
X3376795Y67952027D01*
X3438026Y67890796D01*
X3455338Y67869087D01*
X3501411Y67795763D01*
X3513460Y67770745D01*
X3542062Y67689004D01*
X3548240Y67661933D01*
X3558720Y67568919D01*
X3559500Y67555036D01*
X3559500Y67512332D01*
X3560258Y67504299D01*
X3635162Y61973120D01*
X3635173Y61971407D01*
X3635148Y61881996D01*
X3635149Y61881991D01*
X3670949Y61701489D01*
X3741181Y61531400D01*
X3843161Y61378225D01*
X3972992Y61247816D01*
X4125712Y61145156D01*
X4125715Y61145154D01*
X4295476Y61074173D01*
X4295480Y61074172D01*
X4295487Y61074169D01*
X4475828Y61037567D01*
X4656587Y61036765D01*
X4659841Y61036750D01*
X4659841Y61036751D01*
X4659845Y61036750D01*
X4840504Y61071747D01*
X5010903Y61141222D01*
X5164530Y61242520D01*
X5295515Y61371770D01*
X5398852Y61524033D01*
X5470593Y61693491D01*
X5482102Y61749019D01*
X5488962Y61771304D01*
X5489322Y61772172D01*
X5494500Y61784672D01*
X5494500Y61796046D01*
X5497088Y61821250D01*
X5498247Y61826832D01*
X5495790Y61843732D01*
X5494500Y61861573D01*
X5494500Y65553406D01*
X5514185Y65620445D01*
X5517963Y65625990D01*
X5659962Y65822602D01*
X5715171Y65865423D01*
X5760486Y65874000D01*
X6078306Y65874000D01*
X6078309Y65874000D01*
X6192886Y65904701D01*
X6295613Y65964011D01*
X6379489Y66047887D01*
X6438799Y66150614D01*
X6469500Y66265191D01*
X6469500Y66324500D01*
X6469500Y66368670D01*
X6469500Y66400000D01*
X6489185Y66467039D01*
X6541989Y66512794D01*
X6593500Y66524000D01*
X7669500Y66524000D01*
X7736539Y66504315D01*
X7782294Y66451511D01*
X7793500Y66400000D01*
X7793500Y66374500D01*
X7793500Y66315191D01*
X7824201Y66200614D01*
X7883511Y66097887D01*
X7967387Y66014011D01*
X8070114Y65954701D01*
X8184691Y65924000D01*
X8184694Y65924000D01*
X9303306Y65924000D01*
X9303309Y65924000D01*
X9417886Y65954701D01*
X9520613Y66014011D01*
X9604489Y66097887D01*
X9663799Y66200614D01*
X9694500Y66315191D01*
X9694500Y66374500D01*
X9694500Y66400000D01*
X9714185Y66467039D01*
X9766989Y66512794D01*
X9818500Y66524000D01*
X11694500Y66524000D01*
X11761539Y66504315D01*
X11807294Y66451511D01*
X11818500Y66400000D01*
X11818500Y66368670D01*
X11818500Y66324500D01*
X11818500Y66265191D01*
X11849201Y66150614D01*
X11908511Y66047887D01*
X11992387Y65964011D01*
X12095114Y65904701D01*
X12209691Y65874000D01*
X12219172Y65874000D01*
X12497086Y65874000D01*
X12564125Y65854315D01*
X12592867Y65828753D01*
X12759569Y65626007D01*
X12765281Y65619061D01*
X12792653Y65554777D01*
X12793500Y65540308D01*
X12793500Y63574328D01*
X12793500Y63474672D01*
X12831636Y63382603D01*
X12902103Y63312136D01*
X12994172Y63274000D01*
X13069500Y63274000D01*
X13136539Y63254315D01*
X13182294Y63201511D01*
X13193500Y63150000D01*
X13193500Y61876307D01*
X13192500Y61860594D01*
X13191686Y61854229D01*
X13193360Y61819014D01*
X13193500Y61813129D01*
X13193500Y61772172D01*
X13194313Y61768082D01*
X13196562Y61749598D01*
X13197474Y61729748D01*
X13197475Y61729747D01*
X13237865Y61574012D01*
X13237869Y61574002D01*
X13309297Y61429847D01*
X13408747Y61303366D01*
X13531985Y61199940D01*
X13531989Y61199937D01*
X13602892Y61161942D01*
X13673798Y61123945D01*
X13828169Y61078607D01*
X13899450Y61072936D01*
X13988548Y61065847D01*
X13988549Y61065848D01*
X13988553Y61065847D01*
X14148151Y61086207D01*
X14300195Y61138823D01*
X14304198Y61141219D01*
X14438234Y61221461D01*
X14438234Y61221462D01*
X14438239Y61221464D01*
X14556431Y61330626D01*
X14649760Y61461682D01*
X14714268Y61609075D01*
X14747221Y61766555D01*
X14747190Y61785398D01*
X14747291Y61786434D01*
X14747253Y61797986D01*
X14747254Y61797987D01*
X14747093Y61847475D01*
X14747093Y61891170D01*
X14747093Y61900639D01*
X14746912Y61902648D01*
X14728524Y67554856D01*
X14729303Y67569137D01*
X14739759Y67661939D01*
X14745935Y67689000D01*
X14774541Y67770751D01*
X14786588Y67795763D01*
X14832661Y67869087D01*
X14849969Y67890792D01*
X14911208Y67952031D01*
X14932913Y67969339D01*
X15006237Y68015412D01*
X15031249Y68027459D01*
X15113000Y68056065D01*
X15140062Y68062241D01*
X15229607Y68072330D01*
X15250436Y68072914D01*
X15546279Y68056300D01*
G37*
%TD.AperFunction*%
%TD*%
M02*
