%TF.GenerationSoftware,KiCad,Pcbnew,8.0.2*%
%TF.CreationDate,2024-05-27T11:14:22+02:00*%
%TF.ProjectId,005_usb_volt_tester_beta,3030355f-7573-4625-9f76-6f6c745f7465,rev?*%
%TF.SameCoordinates,Original*%
%TF.FileFunction,Copper,L1,Top*%
%TF.FilePolarity,Positive*%
%FSLAX46Y46*%
G04 Gerber Fmt 4.6, Leading zero omitted, Abs format (unit mm)*
G04 Created by KiCad (PCBNEW 8.0.2) date 2024-05-27 11:14:22*
%MOMM*%
%LPD*%
G01*
G04 APERTURE LIST*
G04 Aperture macros list*
%AMRoundRect*
0 Rectangle with rounded corners*
0 $1 Rounding radius*
0 $2 $3 $4 $5 $6 $7 $8 $9 X,Y pos of 4 corners*
0 Add a 4 corners polygon primitive as box body*
4,1,4,$2,$3,$4,$5,$6,$7,$8,$9,$2,$3,0*
0 Add four circle primitives for the rounded corners*
1,1,$1+$1,$2,$3*
1,1,$1+$1,$4,$5*
1,1,$1+$1,$6,$7*
1,1,$1+$1,$8,$9*
0 Add four rect primitives between the rounded corners*
20,1,$1+$1,$2,$3,$4,$5,0*
20,1,$1+$1,$4,$5,$6,$7,0*
20,1,$1+$1,$6,$7,$8,$9,0*
20,1,$1+$1,$8,$9,$2,$3,0*%
%AMFreePoly0*
4,1,79,-1.240370,1.979643,-0.961535,1.918986,-0.694170,1.819264,-0.443718,1.682507,-0.215279,1.511499,-0.013501,1.309721,0.157507,1.081282,0.294264,0.830830,0.393986,0.563465,0.454643,0.284630,0.475000,0.000000,0.454643,-0.284630,0.393986,-0.563465,0.294264,-0.830830,0.157507,-1.081282,-0.013501,-1.309721,-0.215279,-1.511499,-0.443718,-1.682507,-0.694170,-1.819264,-0.961535,-1.918986,
-1.240370,-1.979643,-1.525000,-2.000000,-1.809630,-1.979643,-2.088465,-1.918986,-2.355830,-1.819264,-2.606282,-1.682507,-2.834721,-1.511499,-3.036499,-1.309721,-3.207507,-1.081282,-3.344264,-0.830830,-3.443986,-0.563465,-3.504643,-0.284630,-3.525000,0.000000,-2.580081,0.000000,-2.559808,-0.205836,-2.499768,-0.403762,-2.402268,-0.586172,-2.271055,-0.746055,-2.111172,-0.877268,-1.928762,-0.974768,
-1.730836,-1.034808,-1.525000,-1.055081,-1.319164,-1.034808,-1.121238,-0.974768,-0.938828,-0.877268,-0.778945,-0.746055,-0.647732,-0.586172,-0.550232,-0.403762,-0.490192,-0.205836,-0.469919,0.000000,-0.490192,0.205836,-0.550232,0.403762,-0.647732,0.586172,-0.778945,0.746055,-0.938828,0.877268,-1.121238,0.974768,-1.319164,1.034808,-1.525000,1.055081,-1.730836,1.034808,-1.928762,0.974768,
-2.111172,0.877268,-2.271055,0.746055,-2.402268,0.586172,-2.499768,0.403762,-2.559808,0.205836,-2.580081,0.000000,-3.525000,0.000000,-3.504643,0.284630,-3.443986,0.563465,-3.344264,0.830830,-3.207507,1.081282,-3.036499,1.309721,-2.834721,1.511499,-2.606282,1.682507,-2.355830,1.819264,-2.088465,1.918986,-1.809630,1.979643,-1.525000,2.000000,-1.240370,1.979643,-1.240370,1.979643,
$1*%
G04 Aperture macros list end*
%TA.AperFunction,SMDPad,CuDef*%
%ADD10C,0.550000*%
%TD*%
%TA.AperFunction,SMDPad,CuDef*%
%ADD11FreePoly0,0.000000*%
%TD*%
%TA.AperFunction,ComponentPad*%
%ADD12O,1.300000X2.600000*%
%TD*%
%TA.AperFunction,ComponentPad*%
%ADD13O,1.300000X2.300000*%
%TD*%
%TA.AperFunction,SMDPad,CuDef*%
%ADD14R,0.520000X1.000000*%
%TD*%
%TA.AperFunction,SMDPad,CuDef*%
%ADD15R,0.270000X1.000000*%
%TD*%
%TA.AperFunction,SMDPad,CuDef*%
%ADD16R,1.000000X2.000000*%
%TD*%
%TA.AperFunction,SMDPad,CuDef*%
%ADD17R,0.410000X1.550000*%
%TD*%
%TA.AperFunction,SMDPad,CuDef*%
%ADD18R,0.260000X1.550000*%
%TD*%
%TA.AperFunction,SMDPad,CuDef*%
%ADD19R,0.360000X1.750000*%
%TD*%
%TA.AperFunction,SMDPad,CuDef*%
%ADD20RoundRect,0.218750X-0.218750X-0.256250X0.218750X-0.256250X0.218750X0.256250X-0.218750X0.256250X0*%
%TD*%
%TA.AperFunction,SMDPad,CuDef*%
%ADD21R,1.200000X0.600000*%
%TD*%
%TA.AperFunction,ComponentPad*%
%ADD22R,1.700000X1.700000*%
%TD*%
%TA.AperFunction,ComponentPad*%
%ADD23O,1.700000X1.700000*%
%TD*%
%TA.AperFunction,ViaPad*%
%ADD24C,0.900000*%
%TD*%
%TA.AperFunction,ViaPad*%
%ADD25C,0.700000*%
%TD*%
%TA.AperFunction,Conductor*%
%ADD26C,0.300000*%
%TD*%
%TA.AperFunction,Conductor*%
%ADD27C,0.750000*%
%TD*%
%TA.AperFunction,Conductor*%
%ADD28C,0.200000*%
%TD*%
%TA.AperFunction,Conductor*%
%ADD29C,0.230000*%
%TD*%
G04 APERTURE END LIST*
D10*
%TO.P,H4,1*%
%TO.N,N/C*%
X-39879000Y25652000D03*
X-38354000Y27177000D03*
X-38354000Y24127000D03*
D11*
X-36829000Y25652000D03*
%TD*%
D10*
%TO.P,H3,1*%
%TO.N,N/C*%
X-26163000Y25652000D03*
X-24638000Y27177000D03*
X-24638000Y24127000D03*
D11*
X-23113000Y25652000D03*
%TD*%
D10*
%TO.P,H2,1*%
%TO.N,N/C*%
X-27179000Y60960000D03*
X-25654000Y62485000D03*
X-25654000Y59435000D03*
D11*
X-24129000Y60960000D03*
%TD*%
D10*
%TO.P,H1,1*%
%TO.N,N/C*%
X-38863000Y60960000D03*
X-37338000Y62485000D03*
X-37338000Y59435000D03*
D11*
X-35813000Y60960000D03*
%TD*%
D12*
%TO.P,J1,S1,SHIELD*%
%TO.N,GND*%
X13462000Y22778000D03*
D13*
X13462000Y26603000D03*
D12*
X4822000Y22778000D03*
D13*
X4822000Y26603000D03*
D14*
%TO.P,J1,B12,GND*%
X6042000Y26978000D03*
%TO.P,J1,B9,VBUS*%
%TO.N,VDD*%
X6792000Y26978000D03*
D15*
%TO.P,J1,B8,SBU2*%
%TO.N,/SBU2*%
X7892000Y26978000D03*
%TO.P,J1,B7,D-*%
%TO.N,/D-*%
X8392000Y26978000D03*
%TO.P,J1,B6,D+*%
%TO.N,/D+*%
X9392000Y26978000D03*
%TO.P,J1,B5,CC2*%
%TO.N,/CC2*%
X10392000Y26978000D03*
D14*
%TO.P,J1,B4,VBUS*%
%TO.N,VDD*%
X11492000Y26978000D03*
%TO.P,J1,B1,GND*%
%TO.N,GND*%
X12242000Y26978000D03*
%TO.P,J1,A12,GND*%
X12242000Y26978000D03*
%TO.P,J1,A9,VBUS*%
%TO.N,VDD*%
X11492000Y26978000D03*
D15*
%TO.P,J1,A8,SBU1*%
%TO.N,/SBU1*%
X10892000Y26978000D03*
%TO.P,J1,A7,D-*%
%TO.N,/D-*%
X9892000Y26978000D03*
%TO.P,J1,A6,D+*%
%TO.N,/D+*%
X8892000Y26978000D03*
%TO.P,J1,A5,CC1*%
%TO.N,/CC1*%
X7392000Y26978000D03*
D14*
%TO.P,J1,A4,VBUS*%
%TO.N,VDD*%
X6792000Y26978000D03*
%TO.P,J1,A1,GND*%
%TO.N,GND*%
X6042000Y26978000D03*
D16*
%TO.P,J1,*%
%TO.N,*%
X10542000Y22778000D03*
X7742000Y22778000D03*
%TD*%
D17*
%TO.P,P1,A12,GND*%
%TO.N,GND*%
X11969000Y64899500D03*
D18*
%TO.P,P1,A11,RX2+*%
%TO.N,unconnected-(P1-RX2+-PadA11)*%
X11394000Y64899500D03*
%TO.P,P1,A10,RX2-*%
%TO.N,unconnected-(P1-RX2--PadA10)*%
X10894000Y64899500D03*
%TO.P,P1,A9,VBUS*%
%TO.N,VDD*%
X10394000Y64899500D03*
%TO.P,P1,A8,SBU1*%
%TO.N,/SBU1*%
X9894000Y64899500D03*
%TO.P,P1,A7,D-*%
%TO.N,/D-*%
X9394000Y64899500D03*
%TO.P,P1,A6,D+*%
%TO.N,/D+*%
X8894000Y64899500D03*
%TO.P,P1,A5,CC*%
%TO.N,/CC1*%
X8394000Y64899500D03*
%TO.P,P1,A4,VBUS*%
%TO.N,VDD*%
X7894000Y64899500D03*
%TO.P,P1,A3,TX1-*%
%TO.N,unconnected-(P1-TX1--PadA3)*%
X7394000Y64899500D03*
%TO.P,P1,A2,TX1+*%
%TO.N,unconnected-(P1-TX1+-PadA2)*%
X6894000Y64899500D03*
D17*
%TO.P,P1,A1,GND*%
%TO.N,GND*%
X6319000Y64899500D03*
D19*
%TO.P,P1,*%
%TO.N,*%
X5739000Y64799500D03*
X12549000Y64799500D03*
%TD*%
D20*
%TO.P,D7,2,A*%
%TO.N,unconnected-(D7-A-Pad2)*%
X12979500Y58418000D03*
%TO.P,D7,1,K*%
%TO.N,unconnected-(D7-K-Pad1)*%
X11404500Y58418000D03*
%TD*%
%TO.P,D5,2,A*%
%TO.N,unconnected-(D5-A-Pad2)*%
X6629500Y31748000D03*
%TO.P,D5,1,K*%
%TO.N,unconnected-(D5-K-Pad1)*%
X5054500Y31748000D03*
%TD*%
%TO.P,D4,2,A*%
%TO.N,unconnected-(D4-A-Pad2)*%
X12979500Y35558000D03*
%TO.P,D4,1,K*%
%TO.N,unconnected-(D4-K-Pad1)*%
X11404500Y35558000D03*
%TD*%
%TO.P,D6,2,A*%
%TO.N,unconnected-(D6-A-Pad2)*%
X6629500Y39368000D03*
%TO.P,D6,1,K*%
%TO.N,unconnected-(D6-K-Pad1)*%
X5054500Y39368000D03*
%TD*%
%TO.P,D2,2,A*%
%TO.N,unconnected-(D2-A-Pad2)*%
X6629500Y46988000D03*
%TO.P,D2,1,K*%
%TO.N,unconnected-(D2-K-Pad1)*%
X5054500Y46988000D03*
%TD*%
%TO.P,D3,2,A*%
%TO.N,unconnected-(D3-A-Pad2)*%
X12979500Y43178000D03*
%TO.P,D3,1,K*%
%TO.N,unconnected-(D3-K-Pad1)*%
X11404500Y43178000D03*
%TD*%
D21*
%TO.P,D8,4,A2*%
%TO.N,unconnected-(D8-A2-Pad4)*%
X4942000Y55083000D03*
%TO.P,D8,3,K2*%
%TO.N,unconnected-(D8-K2-Pad3)*%
X6742000Y55083000D03*
%TO.P,D8,2,K1*%
%TO.N,unconnected-(D8-K1-Pad2)*%
X6742000Y54133000D03*
%TO.P,D8,1,A1*%
%TO.N,unconnected-(D8-A1-Pad1)*%
X4942000Y54133000D03*
%TD*%
D20*
%TO.P,D1,2,A*%
%TO.N,unconnected-(D1-A-Pad2)*%
X12979500Y50798000D03*
%TO.P,D1,1,K*%
%TO.N,unconnected-(D1-K-Pad1)*%
X11404500Y50798000D03*
%TD*%
D22*
%TO.P,J2,1,~{MCLR}/VPP*%
%TO.N,unconnected-(J2-~{MCLR}{slash}VPP-Pad1)*%
X31942000Y-17360000D03*
D23*
%TO.P,J2,2,VDD*%
%TO.N,VCC*%
X31434000Y-14820000D03*
%TO.P,J2,3,VSS*%
%TO.N,GND*%
X31942000Y-12280000D03*
%TO.P,J2,4,PGD/ICSPDAT*%
%TO.N,/{slash}PGD{slash}ICSPDAT*%
X31434000Y-9740000D03*
%TD*%
D24*
%TO.N,VDD*%
X-254000Y-7241000D03*
X-6985000Y74420000D03*
X-8509000Y72896000D03*
X-2413000Y72896000D03*
X-3937000Y74420000D03*
X635000Y-6479000D03*
X-8001000Y73912000D03*
X-2921000Y73912000D03*
%TO.N,GND*%
X-9336000Y74166000D03*
X-10541000Y75944000D03*
X1651000Y-8384000D03*
X-508000Y74801000D03*
X-5207000Y-8384000D03*
X-5334000Y-7241000D03*
X1651000Y-7241000D03*
X-508000Y75944000D03*
X-10414000Y74674000D03*
X-1524000Y74166000D03*
D25*
%TO.N,/CC1*%
X-6858000Y72896000D03*
X-3175000Y-6098000D03*
%TO.N,/D+*%
X-5011000Y73150000D03*
%TO.N,/D-*%
X-5911000Y73150000D03*
X-2286000Y-5717000D03*
%TO.N,/SBU1*%
X-381000Y-6098000D03*
X-4064000Y72896000D03*
D24*
%TO.N,/SBU2*%
X-3302000Y-7241000D03*
X-4191000Y-6479000D03*
%TD*%
D26*
%TO.N,VDD*%
X-4211000Y74694000D02*
X-3937000Y74420000D01*
D27*
X-3937000Y74420000D02*
X-2413000Y72896000D01*
D26*
X-528000Y-7769000D02*
X-254000Y-7495000D01*
D27*
X-6985000Y74420000D02*
X-8509000Y72896000D01*
D26*
X-3937000Y74674000D02*
X-4191000Y74928000D01*
X-6711000Y74948000D02*
X-6985000Y74674000D01*
X-528000Y-8299000D02*
X-528000Y-7515000D01*
D27*
X-254000Y-7241000D02*
X-127000Y-7241000D01*
D26*
X-6711000Y74694000D02*
X-6985000Y74420000D01*
X-3937000Y74420000D02*
X-3937000Y74674000D01*
X-528000Y-7515000D02*
X-254000Y-7241000D01*
X-6711000Y75846000D02*
X-6711000Y74694000D01*
X-6711000Y75846000D02*
X-6711000Y74948000D01*
X-528000Y-8299000D02*
X-528000Y-7769000D01*
D27*
X-127000Y-7241000D02*
X635000Y-6479000D01*
D26*
X-4211000Y75846000D02*
X-4211000Y74694000D01*
D28*
%TO.N,/CC1*%
X-6858000Y73404000D02*
X-6858000Y72896000D01*
X-6211000Y74051000D02*
X-6858000Y73404000D01*
X-2528000Y-6745000D02*
X-2528000Y-8299000D01*
X-3175000Y-6098000D02*
X-2528000Y-6745000D01*
X-6211000Y75846000D02*
X-6211000Y74051000D01*
D29*
%TO.N,/D+*%
X-5711000Y75846000D02*
X-5711000Y74420000D01*
X-5711000Y74416000D02*
X-5711000Y74420000D01*
X-5011000Y73716000D02*
X-5711000Y74416000D01*
X-5011000Y73150000D02*
X-5011000Y73716000D01*
%TO.N,/D-*%
X-1528000Y-8299000D02*
X-1528000Y-6602000D01*
X-1528000Y-6602000D02*
X-2413000Y-5717000D01*
D28*
%TO.N,/SBU1*%
X-4711000Y74051000D02*
X-4064000Y73404000D01*
X-381000Y-6098000D02*
X-1028000Y-6745000D01*
X-4711000Y75846000D02*
X-4711000Y74051000D01*
X-4064000Y73404000D02*
X-4064000Y72896000D01*
X-1028000Y-6745000D02*
X-1028000Y-8299000D01*
D26*
%TO.N,/SBU2*%
X-3028000Y-7515000D02*
X-3302000Y-7241000D01*
X-3028000Y-8299000D02*
X-3028000Y-7515000D01*
X-3028000Y-7769000D02*
X-3302000Y-7495000D01*
D27*
X-3302000Y-7241000D02*
X-3429000Y-7241000D01*
D26*
X-3028000Y-8299000D02*
X-3028000Y-7769000D01*
D27*
X-3429000Y-7241000D02*
X-4191000Y-6479000D01*
D29*
%TO.N,unconnected-(P1-RX2+-PadA11)*%
X-3211000Y75846000D02*
X-3211000Y75321000D01*
X-3211000Y75321000D02*
X-3246000Y75286000D01*
%TO.N,unconnected-(P1-RX2--PadA10)*%
X-3711000Y75321000D02*
X-3676000Y75286000D01*
X-3711000Y75846000D02*
X-3711000Y75321000D01*
%TD*%
%TA.AperFunction,Conductor*%
%TO.N,GND*%
G36*
X15546279Y68056300D02*
G01*
X15560076Y68054746D01*
X15855643Y68004527D01*
X15869182Y68001437D01*
X16157270Y67918440D01*
X16170388Y67913850D01*
X16447362Y67799123D01*
X16459876Y67793097D01*
X16648218Y67689004D01*
X16722264Y67648080D01*
X16734038Y67640682D01*
X16775299Y67611406D01*
X16978542Y67467198D01*
X16989410Y67458530D01*
X17212938Y67258771D01*
X17222770Y67248939D01*
X17422529Y67025411D01*
X17431200Y67014539D01*
X17604681Y66770039D01*
X17612079Y66758265D01*
X17757092Y66495884D01*
X17763125Y66483356D01*
X17877848Y66206391D01*
X17882441Y66193266D01*
X17965433Y65905194D01*
X17968527Y65891637D01*
X18018743Y65596088D01*
X18020300Y65582270D01*
X18037305Y65279473D01*
X18037500Y65272520D01*
X18037500Y23877481D01*
X18037305Y23870528D01*
X18020300Y23567731D01*
X18018743Y23553913D01*
X17968527Y23258364D01*
X17965433Y23244807D01*
X17882441Y22956735D01*
X17877848Y22943610D01*
X17763125Y22666645D01*
X17757092Y22654117D01*
X17612079Y22391736D01*
X17604681Y22379962D01*
X17431200Y22135462D01*
X17422529Y22124590D01*
X17222770Y21901062D01*
X17212938Y21891230D01*
X16989410Y21691471D01*
X16978538Y21682800D01*
X16734038Y21509319D01*
X16722264Y21501921D01*
X16459883Y21356908D01*
X16447355Y21350875D01*
X16170390Y21236152D01*
X16157265Y21231559D01*
X15869193Y21148567D01*
X15855636Y21145473D01*
X15560087Y21095257D01*
X15546269Y21093700D01*
X15243472Y21076695D01*
X15236519Y21076500D01*
X3051481Y21076500D01*
X3044528Y21076695D01*
X2741730Y21093700D01*
X2727912Y21095257D01*
X2432363Y21145473D01*
X2418806Y21148567D01*
X2130734Y21231559D01*
X2117609Y21236152D01*
X1840644Y21350875D01*
X1828116Y21356908D01*
X1565735Y21501921D01*
X1553961Y21509319D01*
X1309461Y21682800D01*
X1298589Y21691471D01*
X1289301Y21699771D01*
X1182363Y21795338D01*
X1075061Y21891230D01*
X1065229Y21901062D01*
X865470Y22124590D01*
X856799Y22135462D01*
X683318Y22379962D01*
X675920Y22391736D01*
X530907Y22654117D01*
X524877Y22666638D01*
X410150Y22943612D01*
X405558Y22956735D01*
X387587Y23019114D01*
X322563Y23244818D01*
X319472Y23258364D01*
X269254Y23553924D01*
X267700Y23567723D01*
X254782Y23797753D01*
X7041500Y23797753D01*
X7041500Y21758248D01*
X7053131Y21699771D01*
X7053132Y21699770D01*
X7097447Y21633448D01*
X7163769Y21589133D01*
X7163770Y21589132D01*
X7222247Y21577501D01*
X7222250Y21577500D01*
X7222252Y21577500D01*
X8261750Y21577500D01*
X8261751Y21577501D01*
X8276568Y21580448D01*
X8320229Y21589132D01*
X8320229Y21589133D01*
X8320231Y21589133D01*
X8386552Y21633448D01*
X8430867Y21699769D01*
X8430867Y21699771D01*
X8430868Y21699771D01*
X8442499Y21758248D01*
X8442500Y21758250D01*
X8442500Y23797751D01*
X8442499Y23797753D01*
X9841500Y23797753D01*
X9841500Y21758248D01*
X9853131Y21699771D01*
X9853132Y21699770D01*
X9897447Y21633448D01*
X9963769Y21589133D01*
X9963770Y21589132D01*
X10022247Y21577501D01*
X10022250Y21577500D01*
X10022252Y21577500D01*
X11061750Y21577500D01*
X11061751Y21577501D01*
X11076568Y21580448D01*
X11120229Y21589132D01*
X11120229Y21589133D01*
X11120231Y21589133D01*
X11186552Y21633448D01*
X11230867Y21699769D01*
X11230867Y21699771D01*
X11230868Y21699771D01*
X11242499Y21758248D01*
X11242500Y21758250D01*
X11242500Y23797751D01*
X11242499Y23797753D01*
X11230868Y23856230D01*
X11230867Y23856231D01*
X11186552Y23922553D01*
X11120230Y23966868D01*
X11120229Y23966869D01*
X11061752Y23978500D01*
X11061748Y23978500D01*
X10022252Y23978500D01*
X10022247Y23978500D01*
X9963770Y23966869D01*
X9963769Y23966868D01*
X9897447Y23922553D01*
X9853132Y23856231D01*
X9853131Y23856230D01*
X9841500Y23797753D01*
X8442499Y23797753D01*
X8430868Y23856230D01*
X8430867Y23856231D01*
X8386552Y23922553D01*
X8320230Y23966868D01*
X8320229Y23966869D01*
X8261752Y23978500D01*
X8261748Y23978500D01*
X7222252Y23978500D01*
X7222247Y23978500D01*
X7163770Y23966869D01*
X7163769Y23966868D01*
X7097447Y23922553D01*
X7053132Y23856231D01*
X7053131Y23856230D01*
X7041500Y23797753D01*
X254782Y23797753D01*
X250695Y23870529D01*
X250500Y23877481D01*
X250500Y25652001D01*
X1130571Y25652001D01*
X1130571Y25652000D01*
X1150244Y25439690D01*
X1208596Y25234608D01*
X1208596Y25234606D01*
X1303632Y25043747D01*
X1432127Y24873594D01*
X1432128Y24873593D01*
X1589698Y24729948D01*
X1770981Y24617702D01*
X1969802Y24540679D01*
X2179390Y24501500D01*
X2179392Y24501500D01*
X2392608Y24501500D01*
X2392610Y24501500D01*
X2602198Y24540679D01*
X2801019Y24617702D01*
X2982302Y24729948D01*
X3139872Y24873593D01*
X3268366Y25043745D01*
X3363405Y25234611D01*
X3421756Y25439690D01*
X3441429Y25652000D01*
X3421756Y25864310D01*
X3399113Y25943892D01*
X5641500Y25943892D01*
X5641500Y25812109D01*
X5675608Y25684813D01*
X5694553Y25652000D01*
X5741500Y25570686D01*
X5834686Y25477500D01*
X5948814Y25411608D01*
X6076108Y25377500D01*
X6076110Y25377500D01*
X6207890Y25377500D01*
X6207892Y25377500D01*
X6335186Y25411608D01*
X6449314Y25477500D01*
X6542500Y25570686D01*
X6608392Y25684814D01*
X6642500Y25812108D01*
X6642500Y25943892D01*
X6608392Y26071186D01*
X6596663Y26091500D01*
X6580191Y26159399D01*
X6603043Y26225426D01*
X6657964Y26268617D01*
X6704051Y26277500D01*
X7071750Y26277500D01*
X7130308Y26289148D01*
X7178692Y26289148D01*
X7237249Y26277500D01*
X7237252Y26277500D01*
X7546750Y26277500D01*
X7546751Y26277501D01*
X7561485Y26280432D01*
X7617210Y26291515D01*
X7618063Y26287222D01*
X7663863Y26292204D01*
X7666757Y26291354D01*
X7666790Y26291515D01*
X7737247Y26277501D01*
X7737250Y26277500D01*
X7737252Y26277500D01*
X8046750Y26277500D01*
X8046751Y26277501D01*
X8061485Y26280432D01*
X8117210Y26291515D01*
X8118063Y26287222D01*
X8163863Y26292204D01*
X8166757Y26291354D01*
X8166790Y26291515D01*
X8237247Y26277501D01*
X8237250Y26277500D01*
X8237252Y26277500D01*
X8546750Y26277500D01*
X8546751Y26277501D01*
X8561485Y26280432D01*
X8617210Y26291515D01*
X8618063Y26287222D01*
X8663863Y26292204D01*
X8666757Y26291354D01*
X8666790Y26291515D01*
X8737247Y26277501D01*
X8737250Y26277500D01*
X8737252Y26277500D01*
X9046750Y26277500D01*
X9046751Y26277501D01*
X9061485Y26280432D01*
X9117210Y26291515D01*
X9118063Y26287222D01*
X9163863Y26292204D01*
X9166757Y26291354D01*
X9166790Y26291515D01*
X9237247Y26277501D01*
X9237250Y26277500D01*
X9237252Y26277500D01*
X9546750Y26277500D01*
X9546751Y26277501D01*
X9561485Y26280432D01*
X9617210Y26291515D01*
X9618063Y26287222D01*
X9663863Y26292204D01*
X9666757Y26291354D01*
X9666790Y26291515D01*
X9737247Y26277501D01*
X9737250Y26277500D01*
X9737252Y26277500D01*
X10046750Y26277500D01*
X10046751Y26277501D01*
X10061485Y26280432D01*
X10117210Y26291515D01*
X10118063Y26287222D01*
X10163863Y26292204D01*
X10166757Y26291354D01*
X10166790Y26291515D01*
X10237247Y26277501D01*
X10237250Y26277500D01*
X10237252Y26277500D01*
X10546750Y26277500D01*
X10546751Y26277501D01*
X10561485Y26280432D01*
X10617210Y26291515D01*
X10618063Y26287222D01*
X10663863Y26292204D01*
X10666757Y26291354D01*
X10666790Y26291515D01*
X10737247Y26277501D01*
X10737250Y26277500D01*
X10737252Y26277500D01*
X11046750Y26277500D01*
X11105308Y26289148D01*
X11153692Y26289148D01*
X11212249Y26277500D01*
X11212252Y26277500D01*
X11454949Y26277500D01*
X11521988Y26257815D01*
X11567743Y26205011D01*
X11577687Y26135853D01*
X11562336Y26091499D01*
X11550608Y26071187D01*
X11516500Y25943892D01*
X11516500Y25812109D01*
X11550608Y25684813D01*
X11569553Y25652000D01*
X11616500Y25570686D01*
X11709686Y25477500D01*
X11823814Y25411608D01*
X11951108Y25377500D01*
X11951110Y25377500D01*
X12332890Y25377500D01*
X12332892Y25377500D01*
X12460186Y25411608D01*
X12574314Y25477500D01*
X12667500Y25570686D01*
X12714447Y25652001D01*
X14846571Y25652001D01*
X14846571Y25652000D01*
X14866244Y25439690D01*
X14924596Y25234608D01*
X14924596Y25234606D01*
X15019632Y25043747D01*
X15148127Y24873594D01*
X15148128Y24873593D01*
X15305698Y24729948D01*
X15486981Y24617702D01*
X15685802Y24540679D01*
X15895390Y24501500D01*
X15895392Y24501500D01*
X16108608Y24501500D01*
X16108610Y24501500D01*
X16318198Y24540679D01*
X16517019Y24617702D01*
X16698302Y24729948D01*
X16855872Y24873593D01*
X16984366Y25043745D01*
X17079405Y25234611D01*
X17137756Y25439690D01*
X17157429Y25652000D01*
X17137756Y25864310D01*
X17079405Y26069389D01*
X17079403Y26069394D01*
X17079403Y26069395D01*
X16984367Y26260254D01*
X16855872Y26430407D01*
X16776790Y26502500D01*
X16698302Y26574052D01*
X16517019Y26686298D01*
X16517017Y26686299D01*
X16417608Y26724810D01*
X16318198Y26763321D01*
X16108610Y26802500D01*
X15895390Y26802500D01*
X15685802Y26763321D01*
X15685799Y26763321D01*
X15685799Y26763320D01*
X15486982Y26686299D01*
X15486980Y26686298D01*
X15305699Y26574053D01*
X15148127Y26430407D01*
X15019632Y26260254D01*
X14924596Y26069395D01*
X14924596Y26069393D01*
X14866244Y25864311D01*
X14846571Y25652001D01*
X12714447Y25652001D01*
X12733392Y25684814D01*
X12767500Y25812108D01*
X12767500Y25943892D01*
X12733392Y26071186D01*
X12667500Y26185314D01*
X12574314Y26278500D01*
X12479142Y26333448D01*
X12460187Y26344392D01*
X12362674Y26370520D01*
X12332892Y26378500D01*
X12076500Y26378500D01*
X12009461Y26398185D01*
X11963706Y26450989D01*
X11952500Y26502500D01*
X11952500Y27497751D01*
X11952499Y27497753D01*
X11940868Y27556230D01*
X11940867Y27556231D01*
X11896552Y27622553D01*
X11830230Y27666868D01*
X11830229Y27666869D01*
X11771752Y27678500D01*
X11771748Y27678500D01*
X11212252Y27678500D01*
X11153690Y27666852D01*
X11105310Y27666852D01*
X11046748Y27678500D01*
X10737252Y27678500D01*
X10737249Y27678500D01*
X10666791Y27664485D01*
X10665941Y27668757D01*
X10619892Y27663841D01*
X10617236Y27664621D01*
X10617209Y27664485D01*
X10546751Y27678500D01*
X10546748Y27678500D01*
X10237252Y27678500D01*
X10237249Y27678500D01*
X10166791Y27664485D01*
X10165941Y27668757D01*
X10119892Y27663841D01*
X10117236Y27664621D01*
X10117209Y27664485D01*
X10046751Y27678500D01*
X10046748Y27678500D01*
X9737252Y27678500D01*
X9737249Y27678500D01*
X9666791Y27664485D01*
X9665941Y27668757D01*
X9619892Y27663841D01*
X9617236Y27664621D01*
X9617209Y27664485D01*
X9546751Y27678500D01*
X9546748Y27678500D01*
X9237252Y27678500D01*
X9237249Y27678500D01*
X9166791Y27664485D01*
X9165941Y27668757D01*
X9119892Y27663841D01*
X9117236Y27664621D01*
X9117209Y27664485D01*
X9046751Y27678500D01*
X9046748Y27678500D01*
X8737252Y27678500D01*
X8737249Y27678500D01*
X8666791Y27664485D01*
X8665941Y27668757D01*
X8619892Y27663841D01*
X8617236Y27664621D01*
X8617209Y27664485D01*
X8546751Y27678500D01*
X8546748Y27678500D01*
X8237252Y27678500D01*
X8237249Y27678500D01*
X8166791Y27664485D01*
X8165941Y27668757D01*
X8119892Y27663841D01*
X8117236Y27664621D01*
X8117209Y27664485D01*
X8046751Y27678500D01*
X8046748Y27678500D01*
X7737252Y27678500D01*
X7737249Y27678500D01*
X7666791Y27664485D01*
X7665941Y27668757D01*
X7619892Y27663841D01*
X7617236Y27664621D01*
X7617209Y27664485D01*
X7546751Y27678500D01*
X7546748Y27678500D01*
X7237252Y27678500D01*
X7178690Y27666852D01*
X7130310Y27666852D01*
X7071748Y27678500D01*
X6512252Y27678500D01*
X6512247Y27678500D01*
X6453770Y27666869D01*
X6453769Y27666868D01*
X6387447Y27622553D01*
X6343132Y27556231D01*
X6343131Y27556230D01*
X6331500Y27497753D01*
X6331500Y26502500D01*
X6311815Y26435461D01*
X6259011Y26389706D01*
X6207500Y26378500D01*
X6076108Y26378500D01*
X5948812Y26344392D01*
X5834686Y26278500D01*
X5834683Y26278498D01*
X5741502Y26185317D01*
X5741500Y26185314D01*
X5675608Y26071188D01*
X5641500Y25943892D01*
X3399113Y25943892D01*
X3363405Y26069389D01*
X3363403Y26069394D01*
X3363403Y26069395D01*
X3268367Y26260254D01*
X3139872Y26430407D01*
X3060790Y26502500D01*
X2982302Y26574052D01*
X2801019Y26686298D01*
X2801017Y26686299D01*
X2701608Y26724810D01*
X2602198Y26763321D01*
X2392610Y26802500D01*
X2179390Y26802500D01*
X1969802Y26763321D01*
X1969799Y26763321D01*
X1969799Y26763320D01*
X1770982Y26686299D01*
X1770980Y26686298D01*
X1589699Y26574053D01*
X1432127Y26430407D01*
X1303632Y26260254D01*
X1208596Y26069395D01*
X1208596Y26069393D01*
X1150244Y25864311D01*
X1130571Y25652001D01*
X250500Y25652001D01*
X250500Y32037252D01*
X4416500Y32037252D01*
X4416500Y31458749D01*
X4432047Y31360583D01*
X4432049Y31360580D01*
X4492342Y31242249D01*
X4492344Y31242247D01*
X4492346Y31242244D01*
X4586243Y31148347D01*
X4586245Y31148346D01*
X4586249Y31148342D01*
X4704580Y31088049D01*
X4704581Y31088049D01*
X4704583Y31088048D01*
X4704582Y31088048D01*
X4802749Y31072500D01*
X4802754Y31072500D01*
X5306251Y31072500D01*
X5404417Y31088048D01*
X5404418Y31088049D01*
X5404420Y31088049D01*
X5522751Y31148342D01*
X5616658Y31242249D01*
X5676951Y31360580D01*
X5676951Y31360582D01*
X5676952Y31360583D01*
X5692500Y31458749D01*
X5692500Y32037252D01*
X5991500Y32037252D01*
X5991500Y31458749D01*
X6007047Y31360583D01*
X6007049Y31360580D01*
X6067342Y31242249D01*
X6067344Y31242247D01*
X6067346Y31242244D01*
X6161243Y31148347D01*
X6161245Y31148346D01*
X6161249Y31148342D01*
X6279580Y31088049D01*
X6279581Y31088049D01*
X6279583Y31088048D01*
X6279582Y31088048D01*
X6377749Y31072500D01*
X6377754Y31072500D01*
X6881251Y31072500D01*
X6979417Y31088048D01*
X6979418Y31088049D01*
X6979420Y31088049D01*
X7097751Y31148342D01*
X7191658Y31242249D01*
X7251951Y31360580D01*
X7251951Y31360582D01*
X7251952Y31360583D01*
X7267500Y31458749D01*
X7267500Y32037252D01*
X7251952Y32135418D01*
X7251951Y32135420D01*
X7191658Y32253751D01*
X7191654Y32253755D01*
X7191653Y32253757D01*
X7097756Y32347654D01*
X7097753Y32347656D01*
X7097751Y32347658D01*
X6979420Y32407951D01*
X6979419Y32407952D01*
X6979416Y32407953D01*
X6979417Y32407953D01*
X6881251Y32423500D01*
X6881246Y32423500D01*
X6377754Y32423500D01*
X6377749Y32423500D01*
X6279582Y32407953D01*
X6200692Y32367756D01*
X6161249Y32347658D01*
X6161248Y32347657D01*
X6161243Y32347654D01*
X6067346Y32253757D01*
X6067343Y32253752D01*
X6007047Y32135418D01*
X5991500Y32037252D01*
X5692500Y32037252D01*
X5676952Y32135418D01*
X5676951Y32135420D01*
X5616658Y32253751D01*
X5616654Y32253755D01*
X5616653Y32253757D01*
X5522756Y32347654D01*
X5522753Y32347656D01*
X5522751Y32347658D01*
X5404420Y32407951D01*
X5404419Y32407952D01*
X5404416Y32407953D01*
X5404417Y32407953D01*
X5306251Y32423500D01*
X5306246Y32423500D01*
X4802754Y32423500D01*
X4802749Y32423500D01*
X4704582Y32407953D01*
X4625692Y32367756D01*
X4586249Y32347658D01*
X4586248Y32347657D01*
X4586243Y32347654D01*
X4492346Y32253757D01*
X4492343Y32253752D01*
X4432047Y32135418D01*
X4416500Y32037252D01*
X250500Y32037252D01*
X250500Y35847252D01*
X10766500Y35847252D01*
X10766500Y35268749D01*
X10782047Y35170583D01*
X10782049Y35170580D01*
X10842342Y35052249D01*
X10842344Y35052247D01*
X10842346Y35052244D01*
X10936243Y34958347D01*
X10936245Y34958346D01*
X10936249Y34958342D01*
X11054580Y34898049D01*
X11054581Y34898049D01*
X11054583Y34898048D01*
X11054582Y34898048D01*
X11152749Y34882500D01*
X11152754Y34882500D01*
X11656251Y34882500D01*
X11754417Y34898048D01*
X11754418Y34898049D01*
X11754420Y34898049D01*
X11872751Y34958342D01*
X11966658Y35052249D01*
X12026951Y35170580D01*
X12026951Y35170582D01*
X12026952Y35170583D01*
X12042500Y35268749D01*
X12042500Y35847252D01*
X12341500Y35847252D01*
X12341500Y35268749D01*
X12357047Y35170583D01*
X12357049Y35170580D01*
X12417342Y35052249D01*
X12417344Y35052247D01*
X12417346Y35052244D01*
X12511243Y34958347D01*
X12511245Y34958346D01*
X12511249Y34958342D01*
X12629580Y34898049D01*
X12629581Y34898049D01*
X12629583Y34898048D01*
X12629582Y34898048D01*
X12727749Y34882500D01*
X12727754Y34882500D01*
X13231251Y34882500D01*
X13329417Y34898048D01*
X13329418Y34898049D01*
X13329420Y34898049D01*
X13447751Y34958342D01*
X13541658Y35052249D01*
X13601951Y35170580D01*
X13601951Y35170582D01*
X13601952Y35170583D01*
X13617500Y35268749D01*
X13617500Y35847252D01*
X13601952Y35945418D01*
X13601951Y35945420D01*
X13541658Y36063751D01*
X13541654Y36063755D01*
X13541653Y36063757D01*
X13447756Y36157654D01*
X13447753Y36157656D01*
X13447751Y36157658D01*
X13329420Y36217951D01*
X13329419Y36217952D01*
X13329416Y36217953D01*
X13329417Y36217953D01*
X13231251Y36233500D01*
X13231246Y36233500D01*
X12727754Y36233500D01*
X12727749Y36233500D01*
X12629582Y36217953D01*
X12550692Y36177756D01*
X12511249Y36157658D01*
X12511248Y36157657D01*
X12511243Y36157654D01*
X12417346Y36063757D01*
X12417343Y36063752D01*
X12357047Y35945418D01*
X12341500Y35847252D01*
X12042500Y35847252D01*
X12026952Y35945418D01*
X12026951Y35945420D01*
X11966658Y36063751D01*
X11966654Y36063755D01*
X11966653Y36063757D01*
X11872756Y36157654D01*
X11872753Y36157656D01*
X11872751Y36157658D01*
X11754420Y36217951D01*
X11754419Y36217952D01*
X11754416Y36217953D01*
X11754417Y36217953D01*
X11656251Y36233500D01*
X11656246Y36233500D01*
X11152754Y36233500D01*
X11152749Y36233500D01*
X11054582Y36217953D01*
X10975692Y36177756D01*
X10936249Y36157658D01*
X10936248Y36157657D01*
X10936243Y36157654D01*
X10842346Y36063757D01*
X10842343Y36063752D01*
X10782047Y35945418D01*
X10766500Y35847252D01*
X250500Y35847252D01*
X250500Y39657252D01*
X4416500Y39657252D01*
X4416500Y39078749D01*
X4432047Y38980583D01*
X4432049Y38980580D01*
X4492342Y38862249D01*
X4492344Y38862247D01*
X4492346Y38862244D01*
X4586243Y38768347D01*
X4586245Y38768346D01*
X4586249Y38768342D01*
X4704580Y38708049D01*
X4704581Y38708049D01*
X4704583Y38708048D01*
X4704582Y38708048D01*
X4802749Y38692500D01*
X4802754Y38692500D01*
X5306251Y38692500D01*
X5404417Y38708048D01*
X5404418Y38708049D01*
X5404420Y38708049D01*
X5522751Y38768342D01*
X5616658Y38862249D01*
X5676951Y38980580D01*
X5676951Y38980582D01*
X5676952Y38980583D01*
X5692500Y39078749D01*
X5692500Y39657252D01*
X5991500Y39657252D01*
X5991500Y39078749D01*
X6007047Y38980583D01*
X6007049Y38980580D01*
X6067342Y38862249D01*
X6067344Y38862247D01*
X6067346Y38862244D01*
X6161243Y38768347D01*
X6161245Y38768346D01*
X6161249Y38768342D01*
X6279580Y38708049D01*
X6279581Y38708049D01*
X6279583Y38708048D01*
X6279582Y38708048D01*
X6377749Y38692500D01*
X6377754Y38692500D01*
X6881251Y38692500D01*
X6979417Y38708048D01*
X6979418Y38708049D01*
X6979420Y38708049D01*
X7097751Y38768342D01*
X7191658Y38862249D01*
X7251951Y38980580D01*
X7251951Y38980582D01*
X7251952Y38980583D01*
X7267500Y39078749D01*
X7267500Y39657252D01*
X7251952Y39755418D01*
X7251951Y39755420D01*
X7191658Y39873751D01*
X7191654Y39873755D01*
X7191653Y39873757D01*
X7097756Y39967654D01*
X7097753Y39967656D01*
X7097751Y39967658D01*
X6979420Y40027951D01*
X6979419Y40027952D01*
X6979416Y40027953D01*
X6979417Y40027953D01*
X6881251Y40043500D01*
X6881246Y40043500D01*
X6377754Y40043500D01*
X6377749Y40043500D01*
X6279582Y40027953D01*
X6200692Y39987756D01*
X6161249Y39967658D01*
X6161248Y39967657D01*
X6161243Y39967654D01*
X6067346Y39873757D01*
X6067343Y39873752D01*
X6007047Y39755418D01*
X5991500Y39657252D01*
X5692500Y39657252D01*
X5676952Y39755418D01*
X5676951Y39755420D01*
X5616658Y39873751D01*
X5616654Y39873755D01*
X5616653Y39873757D01*
X5522756Y39967654D01*
X5522753Y39967656D01*
X5522751Y39967658D01*
X5404420Y40027951D01*
X5404419Y40027952D01*
X5404416Y40027953D01*
X5404417Y40027953D01*
X5306251Y40043500D01*
X5306246Y40043500D01*
X4802754Y40043500D01*
X4802749Y40043500D01*
X4704582Y40027953D01*
X4625692Y39987756D01*
X4586249Y39967658D01*
X4586248Y39967657D01*
X4586243Y39967654D01*
X4492346Y39873757D01*
X4492343Y39873752D01*
X4432047Y39755418D01*
X4416500Y39657252D01*
X250500Y39657252D01*
X250500Y43467252D01*
X10766500Y43467252D01*
X10766500Y42888749D01*
X10782047Y42790583D01*
X10782049Y42790580D01*
X10842342Y42672249D01*
X10842344Y42672247D01*
X10842346Y42672244D01*
X10936243Y42578347D01*
X10936245Y42578346D01*
X10936249Y42578342D01*
X11054580Y42518049D01*
X11054581Y42518049D01*
X11054583Y42518048D01*
X11054582Y42518048D01*
X11152749Y42502500D01*
X11152754Y42502500D01*
X11656251Y42502500D01*
X11754417Y42518048D01*
X11754418Y42518049D01*
X11754420Y42518049D01*
X11872751Y42578342D01*
X11966658Y42672249D01*
X12026951Y42790580D01*
X12026951Y42790582D01*
X12026952Y42790583D01*
X12042500Y42888749D01*
X12042500Y43467252D01*
X12341500Y43467252D01*
X12341500Y42888749D01*
X12357047Y42790583D01*
X12357049Y42790580D01*
X12417342Y42672249D01*
X12417344Y42672247D01*
X12417346Y42672244D01*
X12511243Y42578347D01*
X12511245Y42578346D01*
X12511249Y42578342D01*
X12629580Y42518049D01*
X12629581Y42518049D01*
X12629583Y42518048D01*
X12629582Y42518048D01*
X12727749Y42502500D01*
X12727754Y42502500D01*
X13231251Y42502500D01*
X13329417Y42518048D01*
X13329418Y42518049D01*
X13329420Y42518049D01*
X13447751Y42578342D01*
X13541658Y42672249D01*
X13601951Y42790580D01*
X13601951Y42790582D01*
X13601952Y42790583D01*
X13617500Y42888749D01*
X13617500Y43467252D01*
X13601952Y43565418D01*
X13601951Y43565420D01*
X13541658Y43683751D01*
X13541654Y43683755D01*
X13541653Y43683757D01*
X13447756Y43777654D01*
X13447753Y43777656D01*
X13447751Y43777658D01*
X13329420Y43837951D01*
X13329419Y43837952D01*
X13329416Y43837953D01*
X13329417Y43837953D01*
X13231251Y43853500D01*
X13231246Y43853500D01*
X12727754Y43853500D01*
X12727749Y43853500D01*
X12629582Y43837953D01*
X12550692Y43797756D01*
X12511249Y43777658D01*
X12511248Y43777657D01*
X12511243Y43777654D01*
X12417346Y43683757D01*
X12417343Y43683752D01*
X12357047Y43565418D01*
X12341500Y43467252D01*
X12042500Y43467252D01*
X12026952Y43565418D01*
X12026951Y43565420D01*
X11966658Y43683751D01*
X11966654Y43683755D01*
X11966653Y43683757D01*
X11872756Y43777654D01*
X11872753Y43777656D01*
X11872751Y43777658D01*
X11754420Y43837951D01*
X11754419Y43837952D01*
X11754416Y43837953D01*
X11754417Y43837953D01*
X11656251Y43853500D01*
X11656246Y43853500D01*
X11152754Y43853500D01*
X11152749Y43853500D01*
X11054582Y43837953D01*
X10975692Y43797756D01*
X10936249Y43777658D01*
X10936248Y43777657D01*
X10936243Y43777654D01*
X10842346Y43683757D01*
X10842343Y43683752D01*
X10782047Y43565418D01*
X10766500Y43467252D01*
X250500Y43467252D01*
X250500Y47277252D01*
X4416500Y47277252D01*
X4416500Y46698749D01*
X4432047Y46600583D01*
X4432049Y46600580D01*
X4492342Y46482249D01*
X4492344Y46482247D01*
X4492346Y46482244D01*
X4586243Y46388347D01*
X4586245Y46388346D01*
X4586249Y46388342D01*
X4704580Y46328049D01*
X4704581Y46328049D01*
X4704583Y46328048D01*
X4704582Y46328048D01*
X4802749Y46312500D01*
X4802754Y46312500D01*
X5306251Y46312500D01*
X5404417Y46328048D01*
X5404418Y46328049D01*
X5404420Y46328049D01*
X5522751Y46388342D01*
X5616658Y46482249D01*
X5676951Y46600580D01*
X5676951Y46600582D01*
X5676952Y46600583D01*
X5692500Y46698749D01*
X5692500Y47277252D01*
X5991500Y47277252D01*
X5991500Y46698749D01*
X6007047Y46600583D01*
X6007049Y46600580D01*
X6067342Y46482249D01*
X6067344Y46482247D01*
X6067346Y46482244D01*
X6161243Y46388347D01*
X6161245Y46388346D01*
X6161249Y46388342D01*
X6279580Y46328049D01*
X6279581Y46328049D01*
X6279583Y46328048D01*
X6279582Y46328048D01*
X6377749Y46312500D01*
X6377754Y46312500D01*
X6881251Y46312500D01*
X6979417Y46328048D01*
X6979418Y46328049D01*
X6979420Y46328049D01*
X7097751Y46388342D01*
X7191658Y46482249D01*
X7251951Y46600580D01*
X7251951Y46600582D01*
X7251952Y46600583D01*
X7267500Y46698749D01*
X7267500Y47277252D01*
X7251952Y47375418D01*
X7251951Y47375420D01*
X7191658Y47493751D01*
X7191654Y47493755D01*
X7191653Y47493757D01*
X7097756Y47587654D01*
X7097753Y47587656D01*
X7097751Y47587658D01*
X6979420Y47647951D01*
X6979419Y47647952D01*
X6979416Y47647953D01*
X6979417Y47647953D01*
X6881251Y47663500D01*
X6881246Y47663500D01*
X6377754Y47663500D01*
X6377749Y47663500D01*
X6279582Y47647953D01*
X6200692Y47607756D01*
X6161249Y47587658D01*
X6161248Y47587657D01*
X6161243Y47587654D01*
X6067346Y47493757D01*
X6067343Y47493752D01*
X6007047Y47375418D01*
X5991500Y47277252D01*
X5692500Y47277252D01*
X5676952Y47375418D01*
X5676951Y47375420D01*
X5616658Y47493751D01*
X5616654Y47493755D01*
X5616653Y47493757D01*
X5522756Y47587654D01*
X5522753Y47587656D01*
X5522751Y47587658D01*
X5404420Y47647951D01*
X5404419Y47647952D01*
X5404416Y47647953D01*
X5404417Y47647953D01*
X5306251Y47663500D01*
X5306246Y47663500D01*
X4802754Y47663500D01*
X4802749Y47663500D01*
X4704582Y47647953D01*
X4625692Y47607756D01*
X4586249Y47587658D01*
X4586248Y47587657D01*
X4586243Y47587654D01*
X4492346Y47493757D01*
X4492343Y47493752D01*
X4432047Y47375418D01*
X4416500Y47277252D01*
X250500Y47277252D01*
X250500Y51087252D01*
X10766500Y51087252D01*
X10766500Y50508749D01*
X10782047Y50410583D01*
X10782049Y50410580D01*
X10842342Y50292249D01*
X10842344Y50292247D01*
X10842346Y50292244D01*
X10936243Y50198347D01*
X10936245Y50198346D01*
X10936249Y50198342D01*
X11054580Y50138049D01*
X11054581Y50138049D01*
X11054583Y50138048D01*
X11054582Y50138048D01*
X11152749Y50122500D01*
X11152754Y50122500D01*
X11656251Y50122500D01*
X11754417Y50138048D01*
X11754418Y50138049D01*
X11754420Y50138049D01*
X11872751Y50198342D01*
X11966658Y50292249D01*
X12026951Y50410580D01*
X12026951Y50410582D01*
X12026952Y50410583D01*
X12042500Y50508749D01*
X12042500Y51087252D01*
X12341500Y51087252D01*
X12341500Y50508749D01*
X12357047Y50410583D01*
X12357049Y50410580D01*
X12417342Y50292249D01*
X12417344Y50292247D01*
X12417346Y50292244D01*
X12511243Y50198347D01*
X12511245Y50198346D01*
X12511249Y50198342D01*
X12629580Y50138049D01*
X12629581Y50138049D01*
X12629583Y50138048D01*
X12629582Y50138048D01*
X12727749Y50122500D01*
X12727754Y50122500D01*
X13231251Y50122500D01*
X13329417Y50138048D01*
X13329418Y50138049D01*
X13329420Y50138049D01*
X13447751Y50198342D01*
X13541658Y50292249D01*
X13601951Y50410580D01*
X13601951Y50410582D01*
X13601952Y50410583D01*
X13617500Y50508749D01*
X13617500Y51087252D01*
X13601952Y51185418D01*
X13601951Y51185420D01*
X13541658Y51303751D01*
X13541654Y51303755D01*
X13541653Y51303757D01*
X13447756Y51397654D01*
X13447753Y51397656D01*
X13447751Y51397658D01*
X13329420Y51457951D01*
X13329419Y51457952D01*
X13329416Y51457953D01*
X13329417Y51457953D01*
X13231251Y51473500D01*
X13231246Y51473500D01*
X12727754Y51473500D01*
X12727749Y51473500D01*
X12629582Y51457953D01*
X12550692Y51417756D01*
X12511249Y51397658D01*
X12511248Y51397657D01*
X12511243Y51397654D01*
X12417346Y51303757D01*
X12417343Y51303752D01*
X12357047Y51185418D01*
X12341500Y51087252D01*
X12042500Y51087252D01*
X12026952Y51185418D01*
X12026951Y51185420D01*
X11966658Y51303751D01*
X11966654Y51303755D01*
X11966653Y51303757D01*
X11872756Y51397654D01*
X11872753Y51397656D01*
X11872751Y51397658D01*
X11754420Y51457951D01*
X11754419Y51457952D01*
X11754416Y51457953D01*
X11754417Y51457953D01*
X11656251Y51473500D01*
X11656246Y51473500D01*
X11152754Y51473500D01*
X11152749Y51473500D01*
X11054582Y51457953D01*
X10975692Y51417756D01*
X10936249Y51397658D01*
X10936248Y51397657D01*
X10936243Y51397654D01*
X10842346Y51303757D01*
X10842343Y51303752D01*
X10782047Y51185418D01*
X10766500Y51087252D01*
X250500Y51087252D01*
X250500Y55402753D01*
X4141500Y55402753D01*
X4141500Y54763248D01*
X4153131Y54704771D01*
X4153133Y54704767D01*
X4171760Y54676890D01*
X4192638Y54610213D01*
X4174153Y54542833D01*
X4171760Y54539110D01*
X4153133Y54511234D01*
X4153131Y54511230D01*
X4141500Y54452753D01*
X4141500Y53813248D01*
X4153131Y53754771D01*
X4153132Y53754770D01*
X4197447Y53688448D01*
X4263769Y53644133D01*
X4263770Y53644132D01*
X4322247Y53632501D01*
X4322250Y53632500D01*
X4322252Y53632500D01*
X5561750Y53632500D01*
X5561751Y53632501D01*
X5576568Y53635448D01*
X5620229Y53644132D01*
X5620229Y53644133D01*
X5620231Y53644133D01*
X5686552Y53688448D01*
X5730867Y53754769D01*
X5730866Y53754769D01*
X5737652Y53764923D01*
X5740667Y53762909D01*
X5771281Y53800897D01*
X5837576Y53822961D01*
X5905275Y53805681D01*
X5944420Y53763635D01*
X5946348Y53764923D01*
X5997447Y53688448D01*
X6063769Y53644133D01*
X6063770Y53644132D01*
X6122247Y53632501D01*
X6122250Y53632500D01*
X6122252Y53632500D01*
X7361750Y53632500D01*
X7361751Y53632501D01*
X7376568Y53635448D01*
X7420229Y53644132D01*
X7420229Y53644133D01*
X7420231Y53644133D01*
X7486552Y53688448D01*
X7530867Y53754769D01*
X7530867Y53754771D01*
X7530868Y53754771D01*
X7542499Y53813248D01*
X7542500Y53813250D01*
X7542500Y54452751D01*
X7542499Y54452753D01*
X7530868Y54511230D01*
X7530867Y54511232D01*
X7512240Y54539108D01*
X7491361Y54605785D01*
X7509845Y54673165D01*
X7512240Y54676892D01*
X7530867Y54704769D01*
X7530868Y54704771D01*
X7542499Y54763248D01*
X7542500Y54763250D01*
X7542500Y55402751D01*
X7542499Y55402753D01*
X7530868Y55461230D01*
X7530867Y55461231D01*
X7486552Y55527553D01*
X7420230Y55571868D01*
X7420229Y55571869D01*
X7361752Y55583500D01*
X7361748Y55583500D01*
X6122252Y55583500D01*
X6122247Y55583500D01*
X6063770Y55571869D01*
X6063769Y55571868D01*
X5997447Y55527553D01*
X5946348Y55451077D01*
X5943333Y55453092D01*
X5912707Y55415096D01*
X5846410Y55393039D01*
X5778713Y55410327D01*
X5739582Y55452368D01*
X5737652Y55451077D01*
X5686552Y55527553D01*
X5620230Y55571868D01*
X5620229Y55571869D01*
X5561752Y55583500D01*
X5561748Y55583500D01*
X4322252Y55583500D01*
X4322247Y55583500D01*
X4263770Y55571869D01*
X4263769Y55571868D01*
X4197447Y55527553D01*
X4153132Y55461231D01*
X4153131Y55461230D01*
X4141500Y55402753D01*
X250500Y55402753D01*
X250500Y58707252D01*
X10766500Y58707252D01*
X10766500Y58128749D01*
X10782047Y58030583D01*
X10782049Y58030580D01*
X10842342Y57912249D01*
X10842344Y57912247D01*
X10842346Y57912244D01*
X10936243Y57818347D01*
X10936245Y57818346D01*
X10936249Y57818342D01*
X11054580Y57758049D01*
X11054581Y57758049D01*
X11054583Y57758048D01*
X11054582Y57758048D01*
X11152749Y57742500D01*
X11152754Y57742500D01*
X11656251Y57742500D01*
X11754417Y57758048D01*
X11754418Y57758049D01*
X11754420Y57758049D01*
X11872751Y57818342D01*
X11966658Y57912249D01*
X12026951Y58030580D01*
X12026951Y58030582D01*
X12026952Y58030583D01*
X12042500Y58128749D01*
X12042500Y58707252D01*
X12341500Y58707252D01*
X12341500Y58128749D01*
X12357047Y58030583D01*
X12357049Y58030580D01*
X12417342Y57912249D01*
X12417344Y57912247D01*
X12417346Y57912244D01*
X12511243Y57818347D01*
X12511245Y57818346D01*
X12511249Y57818342D01*
X12629580Y57758049D01*
X12629581Y57758049D01*
X12629583Y57758048D01*
X12629582Y57758048D01*
X12727749Y57742500D01*
X12727754Y57742500D01*
X13231251Y57742500D01*
X13329417Y57758048D01*
X13329418Y57758049D01*
X13329420Y57758049D01*
X13447751Y57818342D01*
X13541658Y57912249D01*
X13601951Y58030580D01*
X13601951Y58030582D01*
X13601952Y58030583D01*
X13617500Y58128749D01*
X13617500Y58707252D01*
X13601952Y58805418D01*
X13601951Y58805420D01*
X13541658Y58923751D01*
X13541654Y58923755D01*
X13541653Y58923757D01*
X13447756Y59017654D01*
X13447753Y59017656D01*
X13447751Y59017658D01*
X13329420Y59077951D01*
X13329419Y59077952D01*
X13329416Y59077953D01*
X13329417Y59077953D01*
X13231251Y59093500D01*
X13231246Y59093500D01*
X12727754Y59093500D01*
X12727749Y59093500D01*
X12629582Y59077953D01*
X12550692Y59037756D01*
X12511249Y59017658D01*
X12511248Y59017657D01*
X12511243Y59017654D01*
X12417346Y58923757D01*
X12417343Y58923752D01*
X12357047Y58805418D01*
X12341500Y58707252D01*
X12042500Y58707252D01*
X12026952Y58805418D01*
X12026951Y58805420D01*
X11966658Y58923751D01*
X11966654Y58923755D01*
X11966653Y58923757D01*
X11872756Y59017654D01*
X11872753Y59017656D01*
X11872751Y59017658D01*
X11754420Y59077951D01*
X11754419Y59077952D01*
X11754416Y59077953D01*
X11754417Y59077953D01*
X11656251Y59093500D01*
X11656246Y59093500D01*
X11152754Y59093500D01*
X11152749Y59093500D01*
X11054582Y59077953D01*
X10975692Y59037756D01*
X10936249Y59017658D01*
X10936248Y59017657D01*
X10936243Y59017654D01*
X10842346Y58923757D01*
X10842343Y58923752D01*
X10782047Y58805418D01*
X10766500Y58707252D01*
X250500Y58707252D01*
X250500Y65272520D01*
X250695Y65279472D01*
X260208Y65448867D01*
X267700Y65582280D01*
X269254Y65596075D01*
X319474Y65891648D01*
X322562Y65905179D01*
X405561Y66193277D01*
X410151Y66206391D01*
X427146Y66247420D01*
X524880Y66483370D01*
X530900Y66495870D01*
X675923Y66758271D01*
X683318Y66770039D01*
X856808Y67014552D01*
X865459Y67025399D01*
X1065230Y67248941D01*
X1075061Y67258771D01*
X1298601Y67458541D01*
X1309448Y67467192D01*
X1553966Y67640686D01*
X1565729Y67648077D01*
X1828130Y67793100D01*
X1840630Y67799120D01*
X2117616Y67913852D01*
X2130723Y67918439D01*
X2418821Y68001438D01*
X2432352Y68004526D01*
X2727925Y68054746D01*
X2741718Y68056300D01*
X3037563Y68072914D01*
X3058392Y68072330D01*
X3147935Y68062241D01*
X3175001Y68056064D01*
X3256746Y68027460D01*
X3281762Y68015412D01*
X3355086Y67969339D01*
X3376795Y67952027D01*
X3438026Y67890796D01*
X3455338Y67869087D01*
X3501411Y67795763D01*
X3513460Y67770745D01*
X3542062Y67689004D01*
X3548240Y67661933D01*
X3558720Y67568919D01*
X3559500Y67555036D01*
X3559500Y67512332D01*
X3560258Y67504299D01*
X3635162Y61973120D01*
X3635173Y61971407D01*
X3635148Y61881996D01*
X3635149Y61881991D01*
X3670949Y61701489D01*
X3741181Y61531400D01*
X3843161Y61378225D01*
X3972992Y61247816D01*
X4125712Y61145156D01*
X4125715Y61145154D01*
X4295476Y61074173D01*
X4295480Y61074172D01*
X4295487Y61074169D01*
X4475828Y61037567D01*
X4656587Y61036765D01*
X4659841Y61036750D01*
X4659841Y61036751D01*
X4659845Y61036750D01*
X4840504Y61071747D01*
X5010903Y61141222D01*
X5164530Y61242520D01*
X5295515Y61371770D01*
X5398852Y61524033D01*
X5470593Y61693491D01*
X5482102Y61749019D01*
X5488962Y61771304D01*
X5489322Y61772172D01*
X5494500Y61784672D01*
X5494500Y61796046D01*
X5497088Y61821250D01*
X5498247Y61826832D01*
X5495790Y61843732D01*
X5494500Y61861573D01*
X5494500Y63600000D01*
X5514185Y63667039D01*
X5566989Y63712794D01*
X5618500Y63724000D01*
X5938750Y63724000D01*
X5938751Y63724001D01*
X5953568Y63726948D01*
X5997229Y63735632D01*
X5997229Y63735633D01*
X5997231Y63735633D01*
X6063552Y63779948D01*
X6107867Y63846269D01*
X6107867Y63846271D01*
X6107868Y63846271D01*
X6119499Y63904748D01*
X6119500Y63904750D01*
X6119500Y65694251D01*
X6119499Y65694253D01*
X6106128Y65761477D01*
X6112355Y65831068D01*
X6155218Y65886246D01*
X6185737Y65900735D01*
X6185382Y65901593D01*
X6192883Y65904701D01*
X6192886Y65904701D01*
X6295613Y65964011D01*
X6379489Y66047887D01*
X6438799Y66150614D01*
X6469500Y66265191D01*
X6469500Y66324500D01*
X6469500Y66368670D01*
X6469500Y66400000D01*
X6489185Y66467039D01*
X6541989Y66512794D01*
X6593500Y66524000D01*
X7669500Y66524000D01*
X7736539Y66504315D01*
X7782294Y66451511D01*
X7793500Y66400000D01*
X7793500Y66374500D01*
X7793500Y66315191D01*
X7824201Y66200614D01*
X7883511Y66097887D01*
X7883513Y66097885D01*
X7894717Y66086681D01*
X7928202Y66025358D01*
X7923218Y65955666D01*
X7881346Y65899733D01*
X7815882Y65875316D01*
X7807036Y65875000D01*
X7744249Y65875000D01*
X7673791Y65860985D01*
X7673238Y65863763D01*
X7621972Y65858255D01*
X7609455Y65861931D01*
X7543751Y65875000D01*
X7543748Y65875000D01*
X7244252Y65875000D01*
X7244249Y65875000D01*
X7173791Y65860985D01*
X7173238Y65863763D01*
X7121972Y65858255D01*
X7109455Y65861931D01*
X7043751Y65875000D01*
X7043748Y65875000D01*
X6744252Y65875000D01*
X6744247Y65875000D01*
X6685770Y65863369D01*
X6685769Y65863368D01*
X6619447Y65819053D01*
X6575132Y65752731D01*
X6575131Y65752730D01*
X6563500Y65694253D01*
X6563500Y64104748D01*
X6575131Y64046271D01*
X6575132Y64046270D01*
X6619447Y63979948D01*
X6685769Y63935633D01*
X6685770Y63935632D01*
X6744247Y63924001D01*
X6744250Y63924000D01*
X6744252Y63924000D01*
X7043750Y63924000D01*
X7043751Y63924001D01*
X7058485Y63926932D01*
X7114210Y63938015D01*
X7114762Y63935236D01*
X7166001Y63940751D01*
X7178527Y63937073D01*
X7244247Y63924001D01*
X7244250Y63924000D01*
X7244252Y63924000D01*
X7543750Y63924000D01*
X7543751Y63924001D01*
X7558485Y63926932D01*
X7614210Y63938015D01*
X7614762Y63935236D01*
X7666001Y63940751D01*
X7678527Y63937073D01*
X7744247Y63924001D01*
X7744250Y63924000D01*
X7744252Y63924000D01*
X8043750Y63924000D01*
X8043751Y63924001D01*
X8058485Y63926932D01*
X8114210Y63938015D01*
X8114762Y63935236D01*
X8166001Y63940751D01*
X8178527Y63937073D01*
X8244247Y63924001D01*
X8244250Y63924000D01*
X8244252Y63924000D01*
X8543750Y63924000D01*
X8543751Y63924001D01*
X8558485Y63926932D01*
X8614210Y63938015D01*
X8614762Y63935236D01*
X8666001Y63940751D01*
X8678527Y63937073D01*
X8744247Y63924001D01*
X8744250Y63924000D01*
X8744252Y63924000D01*
X9043750Y63924000D01*
X9043751Y63924001D01*
X9058485Y63926932D01*
X9114210Y63938015D01*
X9114762Y63935236D01*
X9166001Y63940751D01*
X9178527Y63937073D01*
X9244247Y63924001D01*
X9244250Y63924000D01*
X9244252Y63924000D01*
X9543750Y63924000D01*
X9543751Y63924001D01*
X9558485Y63926932D01*
X9614210Y63938015D01*
X9614762Y63935236D01*
X9666001Y63940751D01*
X9678527Y63937073D01*
X9744247Y63924001D01*
X9744250Y63924000D01*
X9744252Y63924000D01*
X10043750Y63924000D01*
X10043751Y63924001D01*
X10058485Y63926932D01*
X10114210Y63938015D01*
X10114762Y63935236D01*
X10166001Y63940751D01*
X10178527Y63937073D01*
X10244247Y63924001D01*
X10244250Y63924000D01*
X10244252Y63924000D01*
X10543750Y63924000D01*
X10543751Y63924001D01*
X10558485Y63926932D01*
X10614210Y63938015D01*
X10614762Y63935236D01*
X10666001Y63940751D01*
X10678527Y63937073D01*
X10744247Y63924001D01*
X10744250Y63924000D01*
X10744252Y63924000D01*
X11043750Y63924000D01*
X11043751Y63924001D01*
X11058485Y63926932D01*
X11114210Y63938015D01*
X11114762Y63935236D01*
X11166001Y63940751D01*
X11178527Y63937073D01*
X11244247Y63924001D01*
X11244250Y63924000D01*
X11244252Y63924000D01*
X11543750Y63924000D01*
X11543751Y63924001D01*
X11558568Y63926948D01*
X11602229Y63935632D01*
X11602229Y63935633D01*
X11602231Y63935633D01*
X11668552Y63979948D01*
X11712867Y64046269D01*
X11712867Y64046271D01*
X11712868Y64046271D01*
X11724499Y64104748D01*
X11724500Y64104750D01*
X11724500Y65694251D01*
X11724499Y65694253D01*
X11712868Y65752730D01*
X11712867Y65752731D01*
X11668552Y65819053D01*
X11602230Y65863368D01*
X11602229Y65863369D01*
X11543752Y65875000D01*
X11543748Y65875000D01*
X11244252Y65875000D01*
X11244249Y65875000D01*
X11173791Y65860985D01*
X11173238Y65863763D01*
X11121972Y65858255D01*
X11109455Y65861931D01*
X11043751Y65875000D01*
X11043748Y65875000D01*
X10744252Y65875000D01*
X10744249Y65875000D01*
X10673791Y65860985D01*
X10673238Y65863763D01*
X10621972Y65858255D01*
X10609455Y65861931D01*
X10543751Y65875000D01*
X10543748Y65875000D01*
X10244252Y65875000D01*
X10244249Y65875000D01*
X10173791Y65860985D01*
X10173238Y65863763D01*
X10121972Y65858255D01*
X10109455Y65861931D01*
X10043751Y65875000D01*
X10043748Y65875000D01*
X9744252Y65875000D01*
X9692472Y65864701D01*
X9622880Y65870930D01*
X9567703Y65913794D01*
X9544460Y65979684D01*
X9560529Y66047680D01*
X9580595Y66073994D01*
X9604489Y66097887D01*
X9663799Y66200614D01*
X9694500Y66315191D01*
X9694500Y66374500D01*
X9694500Y66400000D01*
X9714185Y66467039D01*
X9766989Y66512794D01*
X9818500Y66524000D01*
X11694500Y66524000D01*
X11761539Y66504315D01*
X11807294Y66451511D01*
X11818500Y66400000D01*
X11818500Y66368670D01*
X11818500Y66324500D01*
X11818500Y66265191D01*
X11849201Y66150614D01*
X11908511Y66047887D01*
X11992387Y65964011D01*
X12079365Y65913794D01*
X12095114Y65904701D01*
X12102618Y65901593D01*
X12101820Y65899668D01*
X12152004Y65869082D01*
X12182536Y65806237D01*
X12181872Y65761478D01*
X12168500Y65694248D01*
X12168500Y63904748D01*
X12180131Y63846271D01*
X12180132Y63846270D01*
X12224447Y63779948D01*
X12290769Y63735633D01*
X12290770Y63735632D01*
X12349247Y63724001D01*
X12349250Y63724000D01*
X12669500Y63724000D01*
X12736539Y63704315D01*
X12782294Y63651511D01*
X12793500Y63600000D01*
X12793500Y63574328D01*
X12793500Y63474672D01*
X12831636Y63382603D01*
X12902103Y63312136D01*
X12994172Y63274000D01*
X13069500Y63274000D01*
X13136539Y63254315D01*
X13182294Y63201511D01*
X13193500Y63150000D01*
X13193500Y61876307D01*
X13192500Y61860594D01*
X13191686Y61854229D01*
X13193360Y61819014D01*
X13193500Y61813129D01*
X13193500Y61772172D01*
X13194313Y61768082D01*
X13196562Y61749598D01*
X13197474Y61729748D01*
X13197475Y61729747D01*
X13237865Y61574012D01*
X13237869Y61574002D01*
X13309297Y61429847D01*
X13408747Y61303366D01*
X13531985Y61199940D01*
X13531989Y61199937D01*
X13602892Y61161942D01*
X13673798Y61123945D01*
X13828169Y61078607D01*
X13899450Y61072936D01*
X13988548Y61065847D01*
X13988549Y61065848D01*
X13988553Y61065847D01*
X14148151Y61086207D01*
X14300195Y61138823D01*
X14304198Y61141219D01*
X14438234Y61221461D01*
X14438234Y61221462D01*
X14438239Y61221464D01*
X14556431Y61330626D01*
X14649760Y61461682D01*
X14714268Y61609075D01*
X14747221Y61766555D01*
X14747190Y61785398D01*
X14747291Y61786434D01*
X14747253Y61797986D01*
X14747254Y61797987D01*
X14747093Y61847475D01*
X14747093Y61891170D01*
X14747093Y61900639D01*
X14746912Y61902648D01*
X14728524Y67554856D01*
X14729303Y67569137D01*
X14739759Y67661939D01*
X14745935Y67689000D01*
X14774541Y67770751D01*
X14786588Y67795763D01*
X14832661Y67869087D01*
X14849969Y67890792D01*
X14911208Y67952031D01*
X14932913Y67969339D01*
X15006237Y68015412D01*
X15031249Y68027459D01*
X15113000Y68056065D01*
X15140062Y68062241D01*
X15229607Y68072330D01*
X15250436Y68072914D01*
X15546279Y68056300D01*
G37*
%TD.AperFunction*%
%TD*%
%TA.AperFunction,Conductor*%
%TO.N,GND*%
G36*
X-25396529Y68073305D02*
G01*
X-25359421Y68071222D01*
X-25093723Y68056300D01*
X-25079924Y68054746D01*
X-24784357Y68004527D01*
X-24770818Y68001437D01*
X-24482730Y67918440D01*
X-24469612Y67913850D01*
X-24192638Y67799123D01*
X-24180124Y67793097D01*
X-23974292Y67679338D01*
X-23917736Y67648080D01*
X-23905962Y67640682D01*
X-23808512Y67571538D01*
X-23661458Y67467198D01*
X-23650590Y67458530D01*
X-23427062Y67258771D01*
X-23417230Y67248939D01*
X-23217471Y67025411D01*
X-23208800Y67014539D01*
X-23035319Y66770039D01*
X-23027921Y66758265D01*
X-22882908Y66495884D01*
X-22876875Y66483356D01*
X-22762152Y66206391D01*
X-22757559Y66193266D01*
X-22674567Y65905194D01*
X-22671473Y65891637D01*
X-22621257Y65596088D01*
X-22619700Y65582270D01*
X-22602695Y65279473D01*
X-22602500Y65272520D01*
X-22602500Y26985716D01*
X-22622185Y26918677D01*
X-22674989Y26872922D01*
X-22744147Y26862978D01*
X-22807703Y26892003D01*
X-22825767Y26911405D01*
X-22958130Y27088220D01*
X-22958141Y27088233D01*
X-22961310Y27091890D01*
X-22977330Y27110377D01*
X-22977343Y27110390D01*
X-22977353Y27110401D01*
X-23179600Y27312648D01*
X-23179612Y27312659D01*
X-23179623Y27312670D01*
X-23201781Y27331871D01*
X-23430804Y27503316D01*
X-23430808Y27503319D01*
X-23430811Y27503321D01*
X-23455468Y27519167D01*
X-23455475Y27519171D01*
X-23706565Y27656275D01*
X-23710232Y27657950D01*
X-23733233Y27668454D01*
X-24001281Y27768431D01*
X-24001290Y27768434D01*
X-24001297Y27768436D01*
X-24013315Y27771965D01*
X-24029414Y27776692D01*
X-24029420Y27776694D01*
X-24029429Y27776696D01*
X-24308957Y27837504D01*
X-24308962Y27837505D01*
X-24337972Y27841675D01*
X-24337986Y27841677D01*
X-24623338Y27862085D01*
X-24623340Y27862085D01*
X-24652660Y27862085D01*
X-24652663Y27862085D01*
X-24938015Y27841677D01*
X-24938029Y27841675D01*
X-24967039Y27837505D01*
X-24967044Y27837504D01*
X-25246572Y27776696D01*
X-25274704Y27768436D01*
X-25274719Y27768431D01*
X-25542767Y27668454D01*
X-25542769Y27668453D01*
X-25569436Y27656275D01*
X-25820526Y27519171D01*
X-25820533Y27519167D01*
X-25845190Y27503321D01*
X-25845193Y27503319D01*
X-26074220Y27331871D01*
X-26074233Y27331860D01*
X-26096367Y27312679D01*
X-26096401Y27312648D01*
X-26298648Y27110401D01*
X-26298679Y27110367D01*
X-26317860Y27088233D01*
X-26317871Y27088220D01*
X-26489319Y26859193D01*
X-26489321Y26859190D01*
X-26505167Y26834533D01*
X-26505171Y26834526D01*
X-26642275Y26583436D01*
X-26654453Y26556769D01*
X-26754430Y26288722D01*
X-26754436Y26288704D01*
X-26762696Y26260572D01*
X-26823504Y25981044D01*
X-26823505Y25981039D01*
X-26827675Y25952029D01*
X-26827676Y25952015D01*
X-26848085Y25666663D01*
X-26848085Y25666654D01*
X-26847676Y25661322D01*
X-26848325Y25644319D01*
X-26847801Y25644297D01*
X-26848086Y25637338D01*
X-26827677Y25351986D01*
X-26827675Y25351972D01*
X-26823505Y25322962D01*
X-26823504Y25322957D01*
X-26762696Y25043429D01*
X-26762694Y25043420D01*
X-26762692Y25043414D01*
X-26754431Y25015281D01*
X-26654454Y24747233D01*
X-26643950Y24724232D01*
X-26642275Y24720565D01*
X-26505171Y24469475D01*
X-26505167Y24469468D01*
X-26489321Y24444811D01*
X-26489319Y24444808D01*
X-26489316Y24444804D01*
X-26317871Y24215781D01*
X-26298670Y24193623D01*
X-26298659Y24193612D01*
X-26298648Y24193600D01*
X-26096401Y23991353D01*
X-26096390Y23991343D01*
X-26096377Y23991330D01*
X-26074219Y23972129D01*
X-25938496Y23870528D01*
X-25845193Y23800682D01*
X-25845190Y23800680D01*
X-25820533Y23784834D01*
X-25820526Y23784830D01*
X-25720446Y23730183D01*
X-25569437Y23647726D01*
X-25542767Y23635546D01*
X-25274719Y23535569D01*
X-25246586Y23527308D01*
X-24967039Y23466496D01*
X-24938017Y23462324D01*
X-24652660Y23441915D01*
X-24623340Y23441915D01*
X-24337983Y23462324D01*
X-24308961Y23466496D01*
X-24029414Y23527308D01*
X-24001281Y23535569D01*
X-23733233Y23635546D01*
X-23706563Y23647726D01*
X-23455471Y23784832D01*
X-23430804Y23800684D01*
X-23201781Y23972129D01*
X-23179623Y23991330D01*
X-22977330Y24193623D01*
X-22958129Y24215781D01*
X-22825766Y24392597D01*
X-22769833Y24434467D01*
X-22700142Y24439451D01*
X-22638819Y24405966D01*
X-22605334Y24344643D01*
X-22602500Y24318285D01*
X-22602500Y23877481D01*
X-22602695Y23870528D01*
X-22619700Y23567731D01*
X-22621257Y23553913D01*
X-22671473Y23258364D01*
X-22674567Y23244807D01*
X-22757559Y22956735D01*
X-22762152Y22943610D01*
X-22876875Y22666645D01*
X-22882908Y22654117D01*
X-23027921Y22391736D01*
X-23035319Y22379962D01*
X-23208800Y22135462D01*
X-23217471Y22124590D01*
X-23417230Y21901062D01*
X-23427062Y21891230D01*
X-23650590Y21691471D01*
X-23661462Y21682800D01*
X-23905962Y21509319D01*
X-23917736Y21501921D01*
X-24180117Y21356908D01*
X-24192645Y21350875D01*
X-24469610Y21236152D01*
X-24482735Y21231559D01*
X-24770807Y21148567D01*
X-24784364Y21145473D01*
X-25079913Y21095257D01*
X-25093731Y21093700D01*
X-25396528Y21076695D01*
X-25403481Y21076500D01*
X-37588519Y21076500D01*
X-37595472Y21076695D01*
X-37898270Y21093700D01*
X-37912088Y21095257D01*
X-38207637Y21145473D01*
X-38221194Y21148567D01*
X-38509266Y21231559D01*
X-38522391Y21236152D01*
X-38799356Y21350875D01*
X-38811884Y21356908D01*
X-39074265Y21501921D01*
X-39086039Y21509319D01*
X-39330539Y21682800D01*
X-39341411Y21691471D01*
X-39564939Y21891230D01*
X-39574771Y21901062D01*
X-39774530Y22124590D01*
X-39783201Y22135462D01*
X-39956682Y22379962D01*
X-39964080Y22391736D01*
X-40109093Y22654117D01*
X-40115123Y22666638D01*
X-40229850Y22943612D01*
X-40234442Y22956735D01*
X-40252413Y23019114D01*
X-40317437Y23244818D01*
X-40320528Y23258364D01*
X-40370746Y23553924D01*
X-40372300Y23567723D01*
X-40389305Y23870529D01*
X-40389500Y23877481D01*
X-40389500Y24318285D01*
X-40369815Y24385324D01*
X-40317011Y24431079D01*
X-40247853Y24441023D01*
X-40184297Y24411998D01*
X-40166236Y24392599D01*
X-40033871Y24215781D01*
X-40014670Y24193623D01*
X-40014659Y24193612D01*
X-40014648Y24193600D01*
X-39812401Y23991353D01*
X-39812390Y23991343D01*
X-39812377Y23991330D01*
X-39790219Y23972129D01*
X-39654496Y23870528D01*
X-39561193Y23800682D01*
X-39561190Y23800680D01*
X-39536533Y23784834D01*
X-39536526Y23784830D01*
X-39436446Y23730183D01*
X-39285437Y23647726D01*
X-39258767Y23635546D01*
X-38990719Y23535569D01*
X-38962586Y23527308D01*
X-38683039Y23466496D01*
X-38654017Y23462324D01*
X-38368660Y23441915D01*
X-38339340Y23441915D01*
X-38053983Y23462324D01*
X-38024961Y23466496D01*
X-37745414Y23527308D01*
X-37717281Y23535569D01*
X-37449233Y23635546D01*
X-37422563Y23647726D01*
X-37171471Y23784832D01*
X-37146804Y23800684D01*
X-36917781Y23972129D01*
X-36895623Y23991330D01*
X-36693330Y24193623D01*
X-36674129Y24215781D01*
X-36502684Y24444804D01*
X-36486832Y24469471D01*
X-36349726Y24720563D01*
X-36337546Y24747233D01*
X-36237569Y25015281D01*
X-36229308Y25043414D01*
X-36168496Y25322961D01*
X-36164324Y25351983D01*
X-36143915Y25637340D01*
X-36143915Y25666660D01*
X-36164324Y25952017D01*
X-36168496Y25981039D01*
X-36229308Y26260586D01*
X-36237569Y26288719D01*
X-36337546Y26556767D01*
X-36349726Y26583437D01*
X-36486832Y26834529D01*
X-36486834Y26834533D01*
X-36502680Y26859190D01*
X-36502682Y26859193D01*
X-36531759Y26898035D01*
X-36674129Y27088219D01*
X-36693330Y27110377D01*
X-36693343Y27110390D01*
X-36693353Y27110401D01*
X-36895600Y27312648D01*
X-36895612Y27312659D01*
X-36895623Y27312670D01*
X-36917781Y27331871D01*
X-37146804Y27503316D01*
X-37146808Y27503319D01*
X-37146811Y27503321D01*
X-37171468Y27519167D01*
X-37171475Y27519171D01*
X-37422565Y27656275D01*
X-37426232Y27657950D01*
X-37449233Y27668454D01*
X-37717281Y27768431D01*
X-37717290Y27768434D01*
X-37717297Y27768436D01*
X-37729315Y27771965D01*
X-37745414Y27776692D01*
X-37745420Y27776694D01*
X-37745429Y27776696D01*
X-38024957Y27837504D01*
X-38024962Y27837505D01*
X-38053972Y27841675D01*
X-38053986Y27841677D01*
X-38339338Y27862085D01*
X-38339340Y27862085D01*
X-38368660Y27862085D01*
X-38368663Y27862085D01*
X-38654015Y27841677D01*
X-38654029Y27841675D01*
X-38683039Y27837505D01*
X-38683044Y27837504D01*
X-38962572Y27776696D01*
X-38990704Y27768436D01*
X-38990719Y27768431D01*
X-39258767Y27668454D01*
X-39258769Y27668453D01*
X-39285436Y27656275D01*
X-39536526Y27519171D01*
X-39536533Y27519167D01*
X-39561190Y27503321D01*
X-39561193Y27503319D01*
X-39790220Y27331871D01*
X-39790233Y27331860D01*
X-39812367Y27312679D01*
X-39812401Y27312648D01*
X-40014648Y27110401D01*
X-40014679Y27110367D01*
X-40033860Y27088233D01*
X-40033871Y27088220D01*
X-40166233Y26911405D01*
X-40222167Y26869534D01*
X-40291859Y26864550D01*
X-40353182Y26898035D01*
X-40386666Y26959358D01*
X-40389500Y26985716D01*
X-40389500Y60952319D01*
X-39548325Y60952319D01*
X-39547801Y60952297D01*
X-39548086Y60945338D01*
X-39527677Y60659986D01*
X-39527675Y60659972D01*
X-39523505Y60630962D01*
X-39523504Y60630957D01*
X-39462696Y60351429D01*
X-39462694Y60351420D01*
X-39462692Y60351414D01*
X-39454431Y60323281D01*
X-39354454Y60055233D01*
X-39343950Y60032232D01*
X-39342275Y60028565D01*
X-39205171Y59777475D01*
X-39205167Y59777468D01*
X-39189321Y59752811D01*
X-39189319Y59752808D01*
X-39189316Y59752804D01*
X-39017871Y59523781D01*
X-38998670Y59501623D01*
X-38998659Y59501612D01*
X-38998648Y59501600D01*
X-38796401Y59299353D01*
X-38796390Y59299343D01*
X-38796377Y59299330D01*
X-38777890Y59283310D01*
X-38774233Y59280141D01*
X-38774220Y59280130D01*
X-38545193Y59108682D01*
X-38545190Y59108680D01*
X-38520533Y59092834D01*
X-38520526Y59092830D01*
X-38420446Y59038183D01*
X-38269437Y58955726D01*
X-38242767Y58943546D01*
X-37974719Y58843569D01*
X-37946586Y58835308D01*
X-37667039Y58774496D01*
X-37638017Y58770324D01*
X-37352660Y58749915D01*
X-37323340Y58749915D01*
X-37037983Y58770324D01*
X-37008961Y58774496D01*
X-36729414Y58835308D01*
X-36701281Y58843569D01*
X-36433233Y58943546D01*
X-36406563Y58955726D01*
X-36155471Y59092832D01*
X-36130804Y59108684D01*
X-35901781Y59280129D01*
X-35879623Y59299330D01*
X-35677330Y59501623D01*
X-35658129Y59523781D01*
X-35486684Y59752804D01*
X-35470832Y59777471D01*
X-35333726Y60028563D01*
X-35321546Y60055233D01*
X-35221569Y60323281D01*
X-35213308Y60351414D01*
X-35152496Y60630961D01*
X-35148324Y60659983D01*
X-35127915Y60945340D01*
X-35127915Y60952319D01*
X-27864325Y60952319D01*
X-27863801Y60952297D01*
X-27864086Y60945338D01*
X-27843677Y60659986D01*
X-27843675Y60659972D01*
X-27839505Y60630962D01*
X-27839504Y60630957D01*
X-27778696Y60351429D01*
X-27778694Y60351420D01*
X-27778692Y60351414D01*
X-27770431Y60323281D01*
X-27670454Y60055233D01*
X-27659950Y60032232D01*
X-27658275Y60028565D01*
X-27521171Y59777475D01*
X-27521167Y59777468D01*
X-27505321Y59752811D01*
X-27505319Y59752808D01*
X-27505316Y59752804D01*
X-27333871Y59523781D01*
X-27314670Y59501623D01*
X-27314659Y59501612D01*
X-27314648Y59501600D01*
X-27112401Y59299353D01*
X-27112390Y59299343D01*
X-27112377Y59299330D01*
X-27093890Y59283310D01*
X-27090233Y59280141D01*
X-27090220Y59280130D01*
X-26861193Y59108682D01*
X-26861190Y59108680D01*
X-26836533Y59092834D01*
X-26836526Y59092830D01*
X-26736446Y59038183D01*
X-26585437Y58955726D01*
X-26558767Y58943546D01*
X-26290719Y58843569D01*
X-26262586Y58835308D01*
X-25983039Y58774496D01*
X-25954017Y58770324D01*
X-25668660Y58749915D01*
X-25639340Y58749915D01*
X-25353983Y58770324D01*
X-25324961Y58774496D01*
X-25045414Y58835308D01*
X-25017281Y58843569D01*
X-24749233Y58943546D01*
X-24722563Y58955726D01*
X-24471471Y59092832D01*
X-24446804Y59108684D01*
X-24217781Y59280129D01*
X-24195623Y59299330D01*
X-23993330Y59501623D01*
X-23974129Y59523781D01*
X-23802684Y59752804D01*
X-23786832Y59777471D01*
X-23649726Y60028563D01*
X-23637546Y60055233D01*
X-23537569Y60323281D01*
X-23529308Y60351414D01*
X-23468496Y60630961D01*
X-23464324Y60659983D01*
X-23443915Y60945340D01*
X-23443915Y60974660D01*
X-23464324Y61260017D01*
X-23468496Y61289039D01*
X-23529308Y61568586D01*
X-23537569Y61596719D01*
X-23637546Y61864767D01*
X-23649726Y61891437D01*
X-23786832Y62142529D01*
X-23786834Y62142533D01*
X-23802680Y62167190D01*
X-23802682Y62167193D01*
X-23974130Y62396220D01*
X-23974141Y62396233D01*
X-23977310Y62399890D01*
X-23993330Y62418377D01*
X-23993343Y62418390D01*
X-23993353Y62418401D01*
X-24195600Y62620648D01*
X-24195612Y62620659D01*
X-24195623Y62620670D01*
X-24217781Y62639871D01*
X-24446804Y62811316D01*
X-24446808Y62811319D01*
X-24446811Y62811321D01*
X-24471468Y62827167D01*
X-24471475Y62827171D01*
X-24722565Y62964275D01*
X-24726232Y62965950D01*
X-24749233Y62976454D01*
X-25017281Y63076431D01*
X-25017290Y63076434D01*
X-25017297Y63076436D01*
X-25029315Y63079965D01*
X-25045414Y63084692D01*
X-25045420Y63084694D01*
X-25045429Y63084696D01*
X-25324957Y63145504D01*
X-25324962Y63145505D01*
X-25353972Y63149675D01*
X-25353986Y63149677D01*
X-25639338Y63170085D01*
X-25639340Y63170085D01*
X-25668660Y63170085D01*
X-25668663Y63170085D01*
X-25954015Y63149677D01*
X-25954029Y63149675D01*
X-25983039Y63145505D01*
X-25983044Y63145504D01*
X-26262572Y63084696D01*
X-26290704Y63076436D01*
X-26290719Y63076431D01*
X-26558767Y62976454D01*
X-26558769Y62976453D01*
X-26585436Y62964275D01*
X-26836526Y62827171D01*
X-26836533Y62827167D01*
X-26861190Y62811321D01*
X-26861193Y62811319D01*
X-27090220Y62639871D01*
X-27090233Y62639860D01*
X-27112367Y62620679D01*
X-27112401Y62620648D01*
X-27314648Y62418401D01*
X-27314679Y62418367D01*
X-27333860Y62396233D01*
X-27333871Y62396220D01*
X-27505319Y62167193D01*
X-27505321Y62167190D01*
X-27521167Y62142533D01*
X-27521171Y62142526D01*
X-27658275Y61891436D01*
X-27670453Y61864769D01*
X-27770430Y61596722D01*
X-27770436Y61596704D01*
X-27778696Y61568572D01*
X-27839504Y61289044D01*
X-27839505Y61289039D01*
X-27843675Y61260029D01*
X-27843676Y61260015D01*
X-27864085Y60974663D01*
X-27864085Y60974654D01*
X-27863676Y60969322D01*
X-27864325Y60952319D01*
X-35127915Y60952319D01*
X-35127915Y60974660D01*
X-35148324Y61260017D01*
X-35152496Y61289039D01*
X-35213308Y61568586D01*
X-35221569Y61596719D01*
X-35321546Y61864767D01*
X-35333726Y61891437D01*
X-35470832Y62142529D01*
X-35470834Y62142533D01*
X-35486680Y62167190D01*
X-35486682Y62167193D01*
X-35658130Y62396220D01*
X-35658141Y62396233D01*
X-35661310Y62399890D01*
X-35677330Y62418377D01*
X-35677343Y62418390D01*
X-35677353Y62418401D01*
X-35879600Y62620648D01*
X-35879612Y62620659D01*
X-35879623Y62620670D01*
X-35901781Y62639871D01*
X-36130804Y62811316D01*
X-36130808Y62811319D01*
X-36130811Y62811321D01*
X-36155468Y62827167D01*
X-36155475Y62827171D01*
X-36406565Y62964275D01*
X-36410232Y62965950D01*
X-36433233Y62976454D01*
X-36701281Y63076431D01*
X-36701290Y63076434D01*
X-36701297Y63076436D01*
X-36713315Y63079965D01*
X-36729414Y63084692D01*
X-36729420Y63084694D01*
X-36729429Y63084696D01*
X-37008957Y63145504D01*
X-37008962Y63145505D01*
X-37037972Y63149675D01*
X-37037986Y63149677D01*
X-37323338Y63170085D01*
X-37323340Y63170085D01*
X-37352660Y63170085D01*
X-37352663Y63170085D01*
X-37638015Y63149677D01*
X-37638029Y63149675D01*
X-37667039Y63145505D01*
X-37667044Y63145504D01*
X-37946572Y63084696D01*
X-37974704Y63076436D01*
X-37974719Y63076431D01*
X-38242767Y62976454D01*
X-38242769Y62976453D01*
X-38269436Y62964275D01*
X-38520526Y62827171D01*
X-38520533Y62827167D01*
X-38545190Y62811321D01*
X-38545193Y62811319D01*
X-38774220Y62639871D01*
X-38774233Y62639860D01*
X-38796367Y62620679D01*
X-38796401Y62620648D01*
X-38998648Y62418401D01*
X-38998679Y62418367D01*
X-39017860Y62396233D01*
X-39017871Y62396220D01*
X-39189319Y62167193D01*
X-39189321Y62167190D01*
X-39205167Y62142533D01*
X-39205171Y62142526D01*
X-39342275Y61891436D01*
X-39354453Y61864769D01*
X-39454430Y61596722D01*
X-39454436Y61596704D01*
X-39462696Y61568572D01*
X-39523504Y61289044D01*
X-39523505Y61289039D01*
X-39527675Y61260029D01*
X-39527676Y61260015D01*
X-39548085Y60974663D01*
X-39548085Y60974654D01*
X-39547676Y60969322D01*
X-39548325Y60952319D01*
X-40389500Y60952319D01*
X-40389500Y65272520D01*
X-40389305Y65279472D01*
X-40379792Y65448867D01*
X-40372300Y65582280D01*
X-40370746Y65596075D01*
X-40320526Y65891648D01*
X-40317438Y65905179D01*
X-40234439Y66193277D01*
X-40229849Y66206391D01*
X-40115120Y66483370D01*
X-40109100Y66495870D01*
X-39964077Y66758271D01*
X-39956682Y66770039D01*
X-39783192Y67014552D01*
X-39774541Y67025399D01*
X-39574770Y67248941D01*
X-39564939Y67258771D01*
X-39341399Y67458541D01*
X-39330552Y67467192D01*
X-39086034Y67640686D01*
X-39074271Y67648077D01*
X-38811870Y67793100D01*
X-38799370Y67799120D01*
X-38522384Y67913852D01*
X-38509277Y67918439D01*
X-38221179Y68001438D01*
X-38207648Y68004526D01*
X-37912075Y68054746D01*
X-37898280Y68056300D01*
X-37629426Y68071399D01*
X-37595471Y68073305D01*
X-37588519Y68073500D01*
X-37547830Y68073500D01*
X-25444170Y68073500D01*
X-25403481Y68073500D01*
X-25396529Y68073305D01*
G37*
%TD.AperFunction*%
%TD*%
%TA.AperFunction,Conductor*%
%TO.N,GND*%
G36*
X55883471Y68073305D02*
G01*
X55920579Y68071222D01*
X56186277Y68056300D01*
X56200076Y68054746D01*
X56495643Y68004527D01*
X56509182Y68001437D01*
X56797270Y67918440D01*
X56810388Y67913850D01*
X57087362Y67799123D01*
X57099876Y67793097D01*
X57305708Y67679338D01*
X57362264Y67648080D01*
X57374038Y67640682D01*
X57471488Y67571538D01*
X57618542Y67467198D01*
X57629410Y67458530D01*
X57852938Y67258771D01*
X57862770Y67248939D01*
X58062529Y67025411D01*
X58071200Y67014539D01*
X58244681Y66770039D01*
X58252079Y66758265D01*
X58397092Y66495884D01*
X58403125Y66483356D01*
X58517848Y66206391D01*
X58522441Y66193266D01*
X58605433Y65905194D01*
X58608527Y65891637D01*
X58658743Y65596088D01*
X58660300Y65582270D01*
X58677305Y65279473D01*
X58677500Y65272520D01*
X58677500Y23877481D01*
X58677305Y23870528D01*
X58660300Y23567731D01*
X58658743Y23553913D01*
X58608527Y23258364D01*
X58605433Y23244807D01*
X58522441Y22956735D01*
X58517848Y22943610D01*
X58403125Y22666645D01*
X58397092Y22654117D01*
X58252079Y22391736D01*
X58244681Y22379962D01*
X58071200Y22135462D01*
X58062529Y22124590D01*
X57862770Y21901062D01*
X57852938Y21891230D01*
X57629410Y21691471D01*
X57618538Y21682800D01*
X57374038Y21509319D01*
X57362264Y21501921D01*
X57099883Y21356908D01*
X57087355Y21350875D01*
X56810390Y21236152D01*
X56797265Y21231559D01*
X56509193Y21148567D01*
X56495636Y21145473D01*
X56200087Y21095257D01*
X56186269Y21093700D01*
X55883472Y21076695D01*
X55876519Y21076500D01*
X55380127Y21076500D01*
X55363942Y21077561D01*
X55345286Y21080018D01*
X55288666Y21087472D01*
X55257401Y21095850D01*
X55194833Y21121766D01*
X55166800Y21137950D01*
X55152963Y21148567D01*
X55113066Y21179181D01*
X55090180Y21202067D01*
X55048948Y21255802D01*
X55032765Y21283834D01*
X55006849Y21346402D01*
X54998471Y21377669D01*
X54988561Y21452943D01*
X54987500Y21469128D01*
X54987500Y25652001D01*
X55486571Y25652001D01*
X55486571Y25652000D01*
X55506244Y25439690D01*
X55564596Y25234608D01*
X55564596Y25234606D01*
X55659632Y25043747D01*
X55659634Y25043745D01*
X55788128Y24873593D01*
X55945698Y24729948D01*
X56126981Y24617702D01*
X56325802Y24540679D01*
X56535390Y24501500D01*
X56535392Y24501500D01*
X56748608Y24501500D01*
X56748610Y24501500D01*
X56958198Y24540679D01*
X57157019Y24617702D01*
X57338302Y24729948D01*
X57495872Y24873593D01*
X57624366Y25043745D01*
X57719405Y25234611D01*
X57777756Y25439690D01*
X57797429Y25652000D01*
X57777756Y25864310D01*
X57719405Y26069389D01*
X57719403Y26069394D01*
X57719403Y26069395D01*
X57624367Y26260254D01*
X57495872Y26430407D01*
X57338302Y26574052D01*
X57157019Y26686298D01*
X57157017Y26686299D01*
X57057608Y26724810D01*
X56958198Y26763321D01*
X56748610Y26802500D01*
X56535390Y26802500D01*
X56325802Y26763321D01*
X56325799Y26763321D01*
X56325799Y26763320D01*
X56126982Y26686299D01*
X56126980Y26686298D01*
X55945699Y26574053D01*
X55788127Y26430407D01*
X55659632Y26260254D01*
X55564596Y26069395D01*
X55564596Y26069393D01*
X55506244Y25864311D01*
X55486571Y25652001D01*
X54987500Y25652001D01*
X54987500Y27758709D01*
X54958352Y27905241D01*
X54958351Y27905242D01*
X54958351Y27905246D01*
X54958349Y27905251D01*
X54901177Y28043278D01*
X54901170Y28043291D01*
X54818165Y28167516D01*
X54818162Y28167520D01*
X54712519Y28273163D01*
X54712515Y28273166D01*
X54588290Y28356171D01*
X54588277Y28356178D01*
X54450250Y28413350D01*
X54450240Y28413353D01*
X54303708Y28442500D01*
X54303706Y28442500D01*
X54278828Y28442500D01*
X45383170Y28442500D01*
X45339000Y28442500D01*
X45264294Y28442500D01*
X45264292Y28442500D01*
X45117759Y28413353D01*
X45117749Y28413350D01*
X44979722Y28356178D01*
X44979709Y28356171D01*
X44855484Y28273166D01*
X44855480Y28273163D01*
X44749837Y28167520D01*
X44749834Y28167516D01*
X44666829Y28043291D01*
X44666822Y28043278D01*
X44609650Y27905251D01*
X44609647Y27905241D01*
X44580500Y27758709D01*
X44580500Y21469128D01*
X44579439Y21452941D01*
X44569528Y21377667D01*
X44561150Y21346402D01*
X44535234Y21283834D01*
X44519050Y21255801D01*
X44477822Y21202070D01*
X44454930Y21179178D01*
X44401199Y21137950D01*
X44373166Y21121766D01*
X44310598Y21095850D01*
X44279333Y21087472D01*
X44219507Y21079595D01*
X44204057Y21077561D01*
X44187873Y21076500D01*
X43691481Y21076500D01*
X43684528Y21076695D01*
X43381730Y21093700D01*
X43367912Y21095257D01*
X43072363Y21145473D01*
X43058806Y21148567D01*
X42770734Y21231559D01*
X42757609Y21236152D01*
X42480644Y21350875D01*
X42468116Y21356908D01*
X42205735Y21501921D01*
X42193961Y21509319D01*
X41949461Y21682800D01*
X41938589Y21691471D01*
X41715061Y21891230D01*
X41705229Y21901062D01*
X41505470Y22124590D01*
X41496799Y22135462D01*
X41323318Y22379962D01*
X41315920Y22391736D01*
X41170907Y22654117D01*
X41164877Y22666638D01*
X41050150Y22943612D01*
X41045558Y22956735D01*
X41027587Y23019114D01*
X40962563Y23244818D01*
X40959472Y23258364D01*
X40909254Y23553924D01*
X40907700Y23567723D01*
X40890695Y23870529D01*
X40890500Y23877481D01*
X40890500Y25652001D01*
X41770571Y25652001D01*
X41770571Y25652000D01*
X41790244Y25439690D01*
X41848596Y25234608D01*
X41848596Y25234606D01*
X41943632Y25043747D01*
X41943634Y25043745D01*
X42072128Y24873593D01*
X42229698Y24729948D01*
X42410981Y24617702D01*
X42609802Y24540679D01*
X42819390Y24501500D01*
X42819392Y24501500D01*
X43032608Y24501500D01*
X43032610Y24501500D01*
X43242198Y24540679D01*
X43441019Y24617702D01*
X43622302Y24729948D01*
X43779872Y24873593D01*
X43908366Y25043745D01*
X44003405Y25234611D01*
X44061756Y25439690D01*
X44081429Y25652000D01*
X44061756Y25864310D01*
X44003405Y26069389D01*
X44003403Y26069394D01*
X44003403Y26069395D01*
X43908367Y26260254D01*
X43779872Y26430407D01*
X43622302Y26574052D01*
X43441019Y26686298D01*
X43441017Y26686299D01*
X43341608Y26724810D01*
X43242198Y26763321D01*
X43032610Y26802500D01*
X42819390Y26802500D01*
X42609802Y26763321D01*
X42609799Y26763321D01*
X42609799Y26763320D01*
X42410982Y26686299D01*
X42410980Y26686298D01*
X42229699Y26574053D01*
X42072127Y26430407D01*
X41943632Y26260254D01*
X41848596Y26069395D01*
X41848596Y26069393D01*
X41790244Y25864311D01*
X41770571Y25652001D01*
X40890500Y25652001D01*
X40890500Y61046611D01*
X41825500Y61046611D01*
X41825500Y60873389D01*
X41852598Y60702299D01*
X41906127Y60537555D01*
X41984768Y60383212D01*
X42086586Y60243072D01*
X42209072Y60120586D01*
X42349212Y60018768D01*
X42503555Y59940127D01*
X42668299Y59886598D01*
X42839389Y59859500D01*
X42839390Y59859500D01*
X43012610Y59859500D01*
X43012611Y59859500D01*
X43183701Y59886598D01*
X43348445Y59940127D01*
X43502788Y60018768D01*
X43642928Y60120586D01*
X43765414Y60243072D01*
X43867232Y60383212D01*
X43945873Y60537555D01*
X43999402Y60702299D01*
X44026500Y60873389D01*
X44026500Y61046611D01*
X55541500Y61046611D01*
X55541500Y60873389D01*
X55568598Y60702299D01*
X55622127Y60537555D01*
X55700768Y60383212D01*
X55802586Y60243072D01*
X55925072Y60120586D01*
X56065212Y60018768D01*
X56219555Y59940127D01*
X56384299Y59886598D01*
X56555389Y59859500D01*
X56555390Y59859500D01*
X56728610Y59859500D01*
X56728611Y59859500D01*
X56899701Y59886598D01*
X57064445Y59940127D01*
X57218788Y60018768D01*
X57358928Y60120586D01*
X57481414Y60243072D01*
X57583232Y60383212D01*
X57661873Y60537555D01*
X57715402Y60702299D01*
X57742500Y60873389D01*
X57742500Y61046611D01*
X57715402Y61217701D01*
X57661873Y61382445D01*
X57583232Y61536788D01*
X57481414Y61676928D01*
X57358928Y61799414D01*
X57218788Y61901232D01*
X57064445Y61979873D01*
X56899701Y62033402D01*
X56899699Y62033403D01*
X56899698Y62033403D01*
X56768271Y62054219D01*
X56728611Y62060500D01*
X56555389Y62060500D01*
X56515728Y62054219D01*
X56384302Y62033403D01*
X56219552Y61979872D01*
X56065211Y61901232D01*
X55985256Y61843141D01*
X55925072Y61799414D01*
X55925070Y61799412D01*
X55925069Y61799412D01*
X55802588Y61676931D01*
X55802588Y61676930D01*
X55802586Y61676928D01*
X55758859Y61616744D01*
X55700768Y61536789D01*
X55622128Y61382448D01*
X55568597Y61217698D01*
X55541500Y61046611D01*
X44026500Y61046611D01*
X43999402Y61217701D01*
X43945873Y61382445D01*
X43867232Y61536788D01*
X43765414Y61676928D01*
X43642928Y61799414D01*
X43502788Y61901232D01*
X43348445Y61979873D01*
X43183701Y62033402D01*
X43183699Y62033403D01*
X43183698Y62033403D01*
X43052271Y62054219D01*
X43012611Y62060500D01*
X42839389Y62060500D01*
X42799728Y62054219D01*
X42668302Y62033403D01*
X42503552Y61979872D01*
X42349211Y61901232D01*
X42269256Y61843141D01*
X42209072Y61799414D01*
X42209070Y61799412D01*
X42209069Y61799412D01*
X42086588Y61676931D01*
X42086588Y61676930D01*
X42086586Y61676928D01*
X42042859Y61616744D01*
X41984768Y61536789D01*
X41906128Y61382448D01*
X41852597Y61217698D01*
X41825500Y61046611D01*
X40890500Y61046611D01*
X40890500Y65272520D01*
X40890695Y65279472D01*
X40900208Y65448867D01*
X40907700Y65582280D01*
X40909254Y65596075D01*
X40959474Y65891648D01*
X40962562Y65905179D01*
X41045561Y66193277D01*
X41050151Y66206391D01*
X41164880Y66483370D01*
X41170900Y66495870D01*
X41315923Y66758271D01*
X41323318Y66770039D01*
X41496808Y67014552D01*
X41505459Y67025399D01*
X41705230Y67248941D01*
X41715061Y67258771D01*
X41938601Y67458541D01*
X41949448Y67467192D01*
X42193966Y67640686D01*
X42205729Y67648077D01*
X42468130Y67793100D01*
X42480630Y67799120D01*
X42757616Y67913852D01*
X42770723Y67918439D01*
X43058821Y68001438D01*
X43072352Y68004526D01*
X43367925Y68054746D01*
X43381720Y68056300D01*
X43650574Y68071399D01*
X43684529Y68073305D01*
X43691481Y68073500D01*
X43732170Y68073500D01*
X55835830Y68073500D01*
X55876519Y68073500D01*
X55883471Y68073305D01*
G37*
%TD.AperFunction*%
%TD*%
%TA.AperFunction,Conductor*%
%TO.N,GND*%
G36*
X24263922Y68072721D02*
G01*
X24356935Y68062241D01*
X24384001Y68056064D01*
X24465746Y68027460D01*
X24490762Y68015412D01*
X24564086Y67969339D01*
X24585795Y67952027D01*
X24647026Y67890796D01*
X24664338Y67869087D01*
X24710411Y67795763D01*
X24722460Y67770745D01*
X24751062Y67689004D01*
X24757240Y67661934D01*
X24767720Y67568924D01*
X24768500Y67555040D01*
X24768500Y62780170D01*
X24768500Y62736000D01*
X24768500Y62661294D01*
X24768500Y62661292D01*
X24768499Y62661292D01*
X24797647Y62514760D01*
X24797650Y62514750D01*
X24854822Y62376723D01*
X24854829Y62376710D01*
X24937834Y62252485D01*
X24937837Y62252481D01*
X25043480Y62146838D01*
X25043484Y62146835D01*
X25167709Y62063830D01*
X25167722Y62063823D01*
X25305749Y62006651D01*
X25305754Y62006649D01*
X25305758Y62006649D01*
X25305759Y62006648D01*
X25452291Y61977500D01*
X25452294Y61977500D01*
X33475708Y61977500D01*
X33574292Y61997111D01*
X33622246Y62006649D01*
X33760284Y62063826D01*
X33884516Y62146835D01*
X33990165Y62252484D01*
X34073174Y62376716D01*
X34130351Y62514754D01*
X34159500Y62661294D01*
X34159500Y62736000D01*
X34159500Y62780170D01*
X34159500Y67555040D01*
X34160280Y67568923D01*
X34160280Y67568924D01*
X34170759Y67661938D01*
X34176935Y67689000D01*
X34205541Y67770751D01*
X34217588Y67795763D01*
X34263661Y67869087D01*
X34280969Y67890792D01*
X34342208Y67952031D01*
X34363913Y67969339D01*
X34437237Y68015412D01*
X34462249Y68027459D01*
X34544000Y68056065D01*
X34571062Y68062241D01*
X34664077Y68072721D01*
X34677960Y68073500D01*
X34715170Y68073500D01*
X35515830Y68073500D01*
X35556519Y68073500D01*
X35563471Y68073305D01*
X35600579Y68071222D01*
X35866277Y68056300D01*
X35880076Y68054746D01*
X36175643Y68004527D01*
X36189182Y68001437D01*
X36477270Y67918440D01*
X36490388Y67913850D01*
X36767362Y67799123D01*
X36779876Y67793097D01*
X36968218Y67689004D01*
X37042264Y67648080D01*
X37054038Y67640682D01*
X37151488Y67571538D01*
X37298542Y67467198D01*
X37309410Y67458530D01*
X37532938Y67258771D01*
X37542770Y67248939D01*
X37742529Y67025411D01*
X37751200Y67014539D01*
X37924681Y66770039D01*
X37932079Y66758265D01*
X38077092Y66495884D01*
X38083125Y66483356D01*
X38197848Y66206391D01*
X38202441Y66193266D01*
X38285433Y65905194D01*
X38288527Y65891637D01*
X38338743Y65596088D01*
X38340300Y65582270D01*
X38357305Y65279473D01*
X38357500Y65272520D01*
X38357500Y23877481D01*
X38357305Y23870528D01*
X38340300Y23567731D01*
X38338743Y23553913D01*
X38288527Y23258364D01*
X38285433Y23244807D01*
X38202441Y22956735D01*
X38197848Y22943610D01*
X38083125Y22666645D01*
X38077092Y22654117D01*
X37932079Y22391736D01*
X37924681Y22379962D01*
X37751200Y22135462D01*
X37742529Y22124590D01*
X37542770Y21901062D01*
X37532938Y21891230D01*
X37309410Y21691471D01*
X37298538Y21682800D01*
X37054038Y21509319D01*
X37042264Y21501921D01*
X36779883Y21356908D01*
X36767355Y21350875D01*
X36490390Y21236152D01*
X36477265Y21231559D01*
X36189193Y21148567D01*
X36175636Y21145473D01*
X35880087Y21095257D01*
X35866269Y21093700D01*
X35563472Y21076695D01*
X35556519Y21076500D01*
X35060127Y21076500D01*
X35043942Y21077561D01*
X35025286Y21080018D01*
X34968666Y21087472D01*
X34937401Y21095850D01*
X34874833Y21121766D01*
X34846800Y21137950D01*
X34832963Y21148567D01*
X34793066Y21179181D01*
X34770180Y21202067D01*
X34728948Y21255802D01*
X34712765Y21283834D01*
X34686849Y21346402D01*
X34678471Y21377669D01*
X34668561Y21452943D01*
X34667500Y21469128D01*
X34667500Y25652001D01*
X35166571Y25652001D01*
X35166571Y25652000D01*
X35186244Y25439690D01*
X35244596Y25234608D01*
X35244596Y25234606D01*
X35339632Y25043747D01*
X35468127Y24873594D01*
X35468128Y24873593D01*
X35625698Y24729948D01*
X35806981Y24617702D01*
X36005802Y24540679D01*
X36215390Y24501500D01*
X36215392Y24501500D01*
X36428608Y24501500D01*
X36428610Y24501500D01*
X36638198Y24540679D01*
X36837019Y24617702D01*
X37018302Y24729948D01*
X37175872Y24873593D01*
X37304366Y25043745D01*
X37399405Y25234611D01*
X37457756Y25439690D01*
X37477429Y25652000D01*
X37457756Y25864310D01*
X37399405Y26069389D01*
X37399403Y26069394D01*
X37399403Y26069395D01*
X37304367Y26260254D01*
X37175872Y26430407D01*
X37018302Y26574052D01*
X36837019Y26686298D01*
X36837017Y26686299D01*
X36737608Y26724810D01*
X36638198Y26763321D01*
X36428610Y26802500D01*
X36215390Y26802500D01*
X36005802Y26763321D01*
X36005799Y26763321D01*
X36005799Y26763320D01*
X35806982Y26686299D01*
X35806980Y26686298D01*
X35625699Y26574053D01*
X35468127Y26430407D01*
X35339632Y26260254D01*
X35244596Y26069395D01*
X35244596Y26069393D01*
X35186244Y25864311D01*
X35166571Y25652001D01*
X34667500Y25652001D01*
X34667500Y27758709D01*
X34638352Y27905241D01*
X34638351Y27905242D01*
X34638351Y27905246D01*
X34638349Y27905251D01*
X34581177Y28043278D01*
X34581170Y28043291D01*
X34498165Y28167516D01*
X34498162Y28167520D01*
X34392519Y28273163D01*
X34392515Y28273166D01*
X34268290Y28356171D01*
X34268277Y28356178D01*
X34130250Y28413350D01*
X34130240Y28413353D01*
X33983708Y28442500D01*
X33983706Y28442500D01*
X33958828Y28442500D01*
X25063170Y28442500D01*
X25019000Y28442500D01*
X24944294Y28442500D01*
X24944292Y28442500D01*
X24797759Y28413353D01*
X24797749Y28413350D01*
X24659722Y28356178D01*
X24659709Y28356171D01*
X24535484Y28273166D01*
X24535480Y28273163D01*
X24429837Y28167520D01*
X24429834Y28167516D01*
X24346829Y28043291D01*
X24346822Y28043278D01*
X24289650Y27905251D01*
X24289647Y27905241D01*
X24260500Y27758709D01*
X24260500Y21469128D01*
X24259439Y21452941D01*
X24249528Y21377667D01*
X24241150Y21346402D01*
X24215234Y21283834D01*
X24199050Y21255801D01*
X24157822Y21202070D01*
X24134930Y21179178D01*
X24081199Y21137950D01*
X24053166Y21121766D01*
X23990598Y21095850D01*
X23959333Y21087472D01*
X23899507Y21079595D01*
X23884057Y21077561D01*
X23867873Y21076500D01*
X23371481Y21076500D01*
X23364528Y21076695D01*
X23061730Y21093700D01*
X23047912Y21095257D01*
X22752363Y21145473D01*
X22738806Y21148567D01*
X22450734Y21231559D01*
X22437609Y21236152D01*
X22160644Y21350875D01*
X22148116Y21356908D01*
X21885735Y21501921D01*
X21873961Y21509319D01*
X21629461Y21682800D01*
X21618589Y21691471D01*
X21395061Y21891230D01*
X21385229Y21901062D01*
X21185470Y22124590D01*
X21176799Y22135462D01*
X21003318Y22379962D01*
X20995920Y22391736D01*
X20850907Y22654117D01*
X20844877Y22666638D01*
X20730150Y22943612D01*
X20725558Y22956735D01*
X20707587Y23019114D01*
X20642563Y23244818D01*
X20639472Y23258364D01*
X20589254Y23553924D01*
X20587700Y23567723D01*
X20570695Y23870529D01*
X20570500Y23877481D01*
X20570500Y25652001D01*
X21450571Y25652001D01*
X21450571Y25652000D01*
X21470244Y25439690D01*
X21528596Y25234608D01*
X21528596Y25234606D01*
X21623632Y25043747D01*
X21752127Y24873594D01*
X21752128Y24873593D01*
X21909698Y24729948D01*
X22090981Y24617702D01*
X22289802Y24540679D01*
X22499390Y24501500D01*
X22499392Y24501500D01*
X22712608Y24501500D01*
X22712610Y24501500D01*
X22922198Y24540679D01*
X23121019Y24617702D01*
X23302302Y24729948D01*
X23459872Y24873593D01*
X23588366Y25043745D01*
X23683405Y25234611D01*
X23741756Y25439690D01*
X23761429Y25652000D01*
X23741756Y25864310D01*
X23683405Y26069389D01*
X23683403Y26069394D01*
X23683403Y26069395D01*
X23588367Y26260254D01*
X23459872Y26430407D01*
X23302302Y26574052D01*
X23121019Y26686298D01*
X23121017Y26686299D01*
X23021608Y26724810D01*
X22922198Y26763321D01*
X22712610Y26802500D01*
X22499390Y26802500D01*
X22289802Y26763321D01*
X22289799Y26763321D01*
X22289799Y26763320D01*
X22090982Y26686299D01*
X22090980Y26686298D01*
X21909699Y26574053D01*
X21752127Y26430407D01*
X21623632Y26260254D01*
X21528596Y26069395D01*
X21528596Y26069393D01*
X21470244Y25864311D01*
X21450571Y25652001D01*
X20570500Y25652001D01*
X20570500Y31748000D01*
X23366400Y31748000D01*
X23386782Y31411034D01*
X23386782Y31411029D01*
X23386783Y31411028D01*
X23447635Y31078969D01*
X23447636Y31078965D01*
X23447637Y31078961D01*
X23548062Y30756686D01*
X23548066Y30756675D01*
X23548067Y30756672D01*
X23548069Y30756667D01*
X23686619Y30448820D01*
X23743794Y30354241D01*
X23861264Y30159920D01*
X23861270Y30159912D01*
X24069465Y29894171D01*
X24308170Y29655466D01*
X24573911Y29447271D01*
X24573919Y29447265D01*
X24645127Y29404219D01*
X24862820Y29272619D01*
X25170667Y29134069D01*
X25170677Y29134066D01*
X25170685Y29134063D01*
X25385535Y29067113D01*
X25492969Y29033635D01*
X25825028Y28972783D01*
X26162000Y28952400D01*
X26498972Y28972783D01*
X26831031Y29033635D01*
X27153333Y29134069D01*
X27461180Y29272619D01*
X27750082Y29447266D01*
X28015826Y29655463D01*
X28254537Y29894174D01*
X28462734Y30159918D01*
X28637381Y30448820D01*
X28775931Y30756667D01*
X28876365Y31078969D01*
X28937217Y31411028D01*
X28957600Y31748000D01*
X28937217Y32084972D01*
X28876365Y32417031D01*
X28842887Y32524465D01*
X28775937Y32739315D01*
X28775933Y32739326D01*
X28775931Y32739333D01*
X28637381Y33047180D01*
X28462734Y33336082D01*
X28438573Y33366921D01*
X28254534Y33601830D01*
X28015829Y33840535D01*
X27750088Y34048730D01*
X27750080Y34048736D01*
X27607663Y34134830D01*
X27461180Y34223381D01*
X27153333Y34361931D01*
X27153328Y34361933D01*
X27153325Y34361934D01*
X27153314Y34361938D01*
X26831039Y34462363D01*
X26831035Y34462364D01*
X26831031Y34462365D01*
X26498972Y34523217D01*
X26498971Y34523218D01*
X26498966Y34523218D01*
X26162000Y34543600D01*
X25825033Y34523218D01*
X25825028Y34523217D01*
X25492969Y34462365D01*
X25492966Y34462365D01*
X25492960Y34462363D01*
X25170685Y34361938D01*
X25170674Y34361934D01*
X24862824Y34223383D01*
X24862822Y34223382D01*
X24573919Y34048736D01*
X24573911Y34048730D01*
X24308170Y33840535D01*
X24069465Y33601830D01*
X23861270Y33336089D01*
X23861264Y33336081D01*
X23686618Y33047178D01*
X23686617Y33047176D01*
X23548066Y32739326D01*
X23548062Y32739315D01*
X23447637Y32417040D01*
X23447635Y32417034D01*
X23447635Y32417031D01*
X23398509Y32148963D01*
X23386782Y32084967D01*
X23366400Y31748000D01*
X20570500Y31748000D01*
X20570500Y35558000D01*
X29716400Y35558000D01*
X29736782Y35221034D01*
X29736782Y35221029D01*
X29736783Y35221028D01*
X29797635Y34888969D01*
X29797636Y34888965D01*
X29797637Y34888961D01*
X29898062Y34566686D01*
X29898066Y34566675D01*
X29898067Y34566672D01*
X29898069Y34566667D01*
X30036619Y34258820D01*
X30058043Y34223381D01*
X30211264Y33969920D01*
X30211270Y33969912D01*
X30419465Y33704171D01*
X30658170Y33465466D01*
X30923911Y33257271D01*
X30923919Y33257265D01*
X30995127Y33214219D01*
X31212820Y33082619D01*
X31520667Y32944069D01*
X31520677Y32944066D01*
X31520685Y32944063D01*
X31685354Y32892750D01*
X31842969Y32843635D01*
X32175028Y32782783D01*
X32512000Y32762400D01*
X32848972Y32782783D01*
X33181031Y32843635D01*
X33503333Y32944069D01*
X33811180Y33082619D01*
X34100082Y33257266D01*
X34365826Y33465463D01*
X34604537Y33704174D01*
X34812734Y33969918D01*
X34987381Y34258820D01*
X35125931Y34566667D01*
X35226365Y34888969D01*
X35287217Y35221028D01*
X35307600Y35558000D01*
X35287217Y35894972D01*
X35226365Y36227031D01*
X35192887Y36334465D01*
X35125937Y36549315D01*
X35125933Y36549326D01*
X35125931Y36549333D01*
X34987381Y36857180D01*
X34812734Y37146082D01*
X34788573Y37176921D01*
X34604534Y37411830D01*
X34365829Y37650535D01*
X34100088Y37858730D01*
X34100080Y37858736D01*
X33957663Y37944830D01*
X33811180Y38033381D01*
X33503333Y38171931D01*
X33503328Y38171933D01*
X33503325Y38171934D01*
X33503314Y38171938D01*
X33181039Y38272363D01*
X33181035Y38272364D01*
X33181031Y38272365D01*
X32848972Y38333217D01*
X32848971Y38333218D01*
X32848966Y38333218D01*
X32512000Y38353600D01*
X32175033Y38333218D01*
X32175028Y38333217D01*
X31842969Y38272365D01*
X31842966Y38272365D01*
X31842960Y38272363D01*
X31520685Y38171938D01*
X31520674Y38171934D01*
X31212824Y38033383D01*
X31212822Y38033382D01*
X30923919Y37858736D01*
X30923911Y37858730D01*
X30658170Y37650535D01*
X30419465Y37411830D01*
X30211270Y37146089D01*
X30211264Y37146081D01*
X30036618Y36857178D01*
X30036617Y36857176D01*
X29898066Y36549326D01*
X29898062Y36549315D01*
X29797637Y36227040D01*
X29797635Y36227034D01*
X29797635Y36227031D01*
X29748509Y35958963D01*
X29736782Y35894967D01*
X29716400Y35558000D01*
X20570500Y35558000D01*
X20570500Y39368000D01*
X23366400Y39368000D01*
X23386782Y39031034D01*
X23386782Y39031029D01*
X23386783Y39031028D01*
X23447635Y38698969D01*
X23447636Y38698965D01*
X23447637Y38698961D01*
X23548062Y38376686D01*
X23548066Y38376675D01*
X23548067Y38376672D01*
X23548069Y38376667D01*
X23686619Y38068820D01*
X23708043Y38033381D01*
X23861264Y37779920D01*
X23861270Y37779912D01*
X24069465Y37514171D01*
X24308170Y37275466D01*
X24573911Y37067271D01*
X24573919Y37067265D01*
X24645127Y37024219D01*
X24862820Y36892619D01*
X25170667Y36754069D01*
X25170677Y36754066D01*
X25170685Y36754063D01*
X25335354Y36702750D01*
X25492969Y36653635D01*
X25825028Y36592783D01*
X26162000Y36572400D01*
X26498972Y36592783D01*
X26831031Y36653635D01*
X27153333Y36754069D01*
X27461180Y36892619D01*
X27750082Y37067266D01*
X28015826Y37275463D01*
X28254537Y37514174D01*
X28462734Y37779918D01*
X28637381Y38068820D01*
X28775931Y38376667D01*
X28876365Y38698969D01*
X28937217Y39031028D01*
X28957600Y39368000D01*
X28937217Y39704972D01*
X28876365Y40037031D01*
X28842887Y40144465D01*
X28775937Y40359315D01*
X28775933Y40359326D01*
X28775931Y40359333D01*
X28637381Y40667180D01*
X28462734Y40956082D01*
X28438573Y40986921D01*
X28254534Y41221830D01*
X28015829Y41460535D01*
X27750088Y41668730D01*
X27750080Y41668736D01*
X27607663Y41754830D01*
X27461180Y41843381D01*
X27153333Y41981931D01*
X27153328Y41981933D01*
X27153325Y41981934D01*
X27153314Y41981938D01*
X26831039Y42082363D01*
X26831035Y42082364D01*
X26831031Y42082365D01*
X26498972Y42143217D01*
X26498971Y42143218D01*
X26498966Y42143218D01*
X26162000Y42163600D01*
X25825033Y42143218D01*
X25825028Y42143217D01*
X25492969Y42082365D01*
X25492966Y42082365D01*
X25492960Y42082363D01*
X25170685Y41981938D01*
X25170674Y41981934D01*
X24862824Y41843383D01*
X24862822Y41843382D01*
X24573919Y41668736D01*
X24573911Y41668730D01*
X24308170Y41460535D01*
X24069465Y41221830D01*
X23861270Y40956089D01*
X23861264Y40956081D01*
X23686618Y40667178D01*
X23686617Y40667176D01*
X23548066Y40359326D01*
X23548062Y40359315D01*
X23447637Y40037040D01*
X23447635Y40037034D01*
X23447635Y40037031D01*
X23398509Y39768963D01*
X23386782Y39704967D01*
X23366400Y39368000D01*
X20570500Y39368000D01*
X20570500Y43178000D01*
X29716400Y43178000D01*
X29736782Y42841034D01*
X29736782Y42841029D01*
X29736783Y42841028D01*
X29797635Y42508969D01*
X29797636Y42508965D01*
X29797637Y42508961D01*
X29898062Y42186686D01*
X29898066Y42186675D01*
X29898067Y42186672D01*
X29898069Y42186667D01*
X30036619Y41878820D01*
X30058043Y41843381D01*
X30211264Y41589920D01*
X30211270Y41589912D01*
X30419465Y41324171D01*
X30658170Y41085466D01*
X30923911Y40877271D01*
X30923919Y40877265D01*
X30995127Y40834219D01*
X31212820Y40702619D01*
X31520667Y40564069D01*
X31520677Y40564066D01*
X31520685Y40564063D01*
X31685354Y40512750D01*
X31842969Y40463635D01*
X32175028Y40402783D01*
X32512000Y40382400D01*
X32848972Y40402783D01*
X33181031Y40463635D01*
X33503333Y40564069D01*
X33811180Y40702619D01*
X34100082Y40877266D01*
X34365826Y41085463D01*
X34604537Y41324174D01*
X34812734Y41589918D01*
X34987381Y41878820D01*
X35125931Y42186667D01*
X35226365Y42508969D01*
X35287217Y42841028D01*
X35307600Y43178000D01*
X35287217Y43514972D01*
X35226365Y43847031D01*
X35192887Y43954465D01*
X35125937Y44169315D01*
X35125933Y44169326D01*
X35125931Y44169333D01*
X34987381Y44477180D01*
X34812734Y44766082D01*
X34788573Y44796921D01*
X34604534Y45031830D01*
X34365829Y45270535D01*
X34100088Y45478730D01*
X34100080Y45478736D01*
X33957663Y45564830D01*
X33811180Y45653381D01*
X33503333Y45791931D01*
X33503328Y45791933D01*
X33503325Y45791934D01*
X33503314Y45791938D01*
X33181039Y45892363D01*
X33181035Y45892364D01*
X33181031Y45892365D01*
X32848972Y45953217D01*
X32848971Y45953218D01*
X32848966Y45953218D01*
X32512000Y45973600D01*
X32175033Y45953218D01*
X32175028Y45953217D01*
X31842969Y45892365D01*
X31842966Y45892365D01*
X31842960Y45892363D01*
X31520685Y45791938D01*
X31520674Y45791934D01*
X31212824Y45653383D01*
X31212822Y45653382D01*
X30923919Y45478736D01*
X30923911Y45478730D01*
X30658170Y45270535D01*
X30419465Y45031830D01*
X30211270Y44766089D01*
X30211264Y44766081D01*
X30036618Y44477178D01*
X30036617Y44477176D01*
X29898066Y44169326D01*
X29898062Y44169315D01*
X29797637Y43847040D01*
X29797635Y43847034D01*
X29797635Y43847031D01*
X29748509Y43578963D01*
X29736782Y43514967D01*
X29716400Y43178000D01*
X20570500Y43178000D01*
X20570500Y46988000D01*
X23366400Y46988000D01*
X23386782Y46651034D01*
X23386782Y46651029D01*
X23386783Y46651028D01*
X23447635Y46318969D01*
X23447636Y46318965D01*
X23447637Y46318961D01*
X23548062Y45996686D01*
X23548066Y45996675D01*
X23548067Y45996672D01*
X23548069Y45996667D01*
X23686619Y45688820D01*
X23708043Y45653381D01*
X23861264Y45399920D01*
X23861270Y45399912D01*
X24069465Y45134171D01*
X24308170Y44895466D01*
X24573911Y44687271D01*
X24573919Y44687265D01*
X24645127Y44644219D01*
X24862820Y44512619D01*
X25170667Y44374069D01*
X25170677Y44374066D01*
X25170685Y44374063D01*
X25335354Y44322750D01*
X25492969Y44273635D01*
X25825028Y44212783D01*
X26162000Y44192400D01*
X26498972Y44212783D01*
X26831031Y44273635D01*
X27153333Y44374069D01*
X27461180Y44512619D01*
X27750082Y44687266D01*
X28015826Y44895463D01*
X28254537Y45134174D01*
X28462734Y45399918D01*
X28637381Y45688820D01*
X28775931Y45996667D01*
X28876365Y46318969D01*
X28937217Y46651028D01*
X28957600Y46988000D01*
X28937217Y47324972D01*
X28876365Y47657031D01*
X28842887Y47764465D01*
X28775937Y47979315D01*
X28775933Y47979326D01*
X28775931Y47979333D01*
X28637381Y48287180D01*
X28462734Y48576082D01*
X28438573Y48606921D01*
X28254534Y48841830D01*
X28015829Y49080535D01*
X27750088Y49288730D01*
X27750080Y49288736D01*
X27607663Y49374830D01*
X27461180Y49463381D01*
X27153333Y49601931D01*
X27153328Y49601933D01*
X27153325Y49601934D01*
X27153314Y49601938D01*
X26831039Y49702363D01*
X26831035Y49702364D01*
X26831031Y49702365D01*
X26498972Y49763217D01*
X26498971Y49763218D01*
X26498966Y49763218D01*
X26162000Y49783600D01*
X25825033Y49763218D01*
X25825028Y49763217D01*
X25492969Y49702365D01*
X25492966Y49702365D01*
X25492960Y49702363D01*
X25170685Y49601938D01*
X25170674Y49601934D01*
X24862824Y49463383D01*
X24862822Y49463382D01*
X24573919Y49288736D01*
X24573911Y49288730D01*
X24308170Y49080535D01*
X24069465Y48841830D01*
X23861270Y48576089D01*
X23861264Y48576081D01*
X23686618Y48287178D01*
X23686617Y48287176D01*
X23548066Y47979326D01*
X23548062Y47979315D01*
X23447637Y47657040D01*
X23447635Y47657034D01*
X23447635Y47657031D01*
X23398509Y47388963D01*
X23386782Y47324967D01*
X23366400Y46988000D01*
X20570500Y46988000D01*
X20570500Y50798000D01*
X29716400Y50798000D01*
X29736782Y50461034D01*
X29736782Y50461029D01*
X29736783Y50461028D01*
X29797635Y50128969D01*
X29797636Y50128965D01*
X29797637Y50128961D01*
X29898062Y49806686D01*
X29898066Y49806675D01*
X29898067Y49806672D01*
X29898069Y49806667D01*
X30036619Y49498820D01*
X30058043Y49463381D01*
X30211264Y49209920D01*
X30211270Y49209912D01*
X30419465Y48944171D01*
X30658170Y48705466D01*
X30923911Y48497271D01*
X30923919Y48497265D01*
X30995127Y48454219D01*
X31212820Y48322619D01*
X31520667Y48184069D01*
X31520677Y48184066D01*
X31520685Y48184063D01*
X31685354Y48132750D01*
X31842969Y48083635D01*
X32175028Y48022783D01*
X32512000Y48002400D01*
X32848972Y48022783D01*
X33181031Y48083635D01*
X33503333Y48184069D01*
X33811180Y48322619D01*
X34100082Y48497266D01*
X34365826Y48705463D01*
X34604537Y48944174D01*
X34812734Y49209918D01*
X34987381Y49498820D01*
X35125931Y49806667D01*
X35226365Y50128969D01*
X35287217Y50461028D01*
X35307600Y50798000D01*
X35287217Y51134972D01*
X35226365Y51467031D01*
X35192887Y51574465D01*
X35125937Y51789315D01*
X35125933Y51789326D01*
X35125931Y51789333D01*
X34987381Y52097180D01*
X34812734Y52386082D01*
X34788573Y52416921D01*
X34604534Y52651830D01*
X34365829Y52890535D01*
X34100088Y53098730D01*
X34100080Y53098736D01*
X33957663Y53184830D01*
X33811180Y53273381D01*
X33503333Y53411931D01*
X33503328Y53411933D01*
X33503325Y53411934D01*
X33503314Y53411938D01*
X33181039Y53512363D01*
X33181035Y53512364D01*
X33181031Y53512365D01*
X32848972Y53573217D01*
X32848971Y53573218D01*
X32848966Y53573218D01*
X32512000Y53593600D01*
X32175033Y53573218D01*
X32175028Y53573217D01*
X31842969Y53512365D01*
X31842966Y53512365D01*
X31842960Y53512363D01*
X31520685Y53411938D01*
X31520674Y53411934D01*
X31212824Y53273383D01*
X31212822Y53273382D01*
X30923919Y53098736D01*
X30923911Y53098730D01*
X30658170Y52890535D01*
X30419465Y52651830D01*
X30211270Y52386089D01*
X30211264Y52386081D01*
X30036618Y52097178D01*
X30036617Y52097176D01*
X29898066Y51789326D01*
X29898062Y51789315D01*
X29797637Y51467040D01*
X29797635Y51467034D01*
X29797635Y51467031D01*
X29748509Y51198963D01*
X29736782Y51134967D01*
X29716400Y50798000D01*
X20570500Y50798000D01*
X20570500Y54608000D01*
X23366400Y54608000D01*
X23386782Y54271034D01*
X23386782Y54271029D01*
X23386783Y54271028D01*
X23447635Y53938969D01*
X23447636Y53938965D01*
X23447637Y53938961D01*
X23548062Y53616686D01*
X23548066Y53616675D01*
X23548067Y53616672D01*
X23548069Y53616667D01*
X23686619Y53308820D01*
X23708043Y53273381D01*
X23861264Y53019920D01*
X23861270Y53019912D01*
X24069465Y52754171D01*
X24308170Y52515466D01*
X24573911Y52307271D01*
X24573919Y52307265D01*
X24645127Y52264219D01*
X24862820Y52132619D01*
X25170667Y51994069D01*
X25170677Y51994066D01*
X25170685Y51994063D01*
X25335354Y51942750D01*
X25492969Y51893635D01*
X25825028Y51832783D01*
X26162000Y51812400D01*
X26498972Y51832783D01*
X26831031Y51893635D01*
X27153333Y51994069D01*
X27461180Y52132619D01*
X27750082Y52307266D01*
X28015826Y52515463D01*
X28254537Y52754174D01*
X28462734Y53019918D01*
X28637381Y53308820D01*
X28775931Y53616667D01*
X28876365Y53938969D01*
X28937217Y54271028D01*
X28957600Y54608000D01*
X28937217Y54944972D01*
X28876365Y55277031D01*
X28842887Y55384465D01*
X28775937Y55599315D01*
X28775933Y55599326D01*
X28775931Y55599333D01*
X28637381Y55907180D01*
X28462734Y56196082D01*
X28438573Y56226921D01*
X28254534Y56461830D01*
X28015829Y56700535D01*
X27750088Y56908730D01*
X27750080Y56908736D01*
X27607663Y56994830D01*
X27461180Y57083381D01*
X27153333Y57221931D01*
X27153328Y57221933D01*
X27153325Y57221934D01*
X27153314Y57221938D01*
X26831039Y57322363D01*
X26831035Y57322364D01*
X26831031Y57322365D01*
X26498972Y57383217D01*
X26498971Y57383218D01*
X26498966Y57383218D01*
X26162000Y57403600D01*
X25825033Y57383218D01*
X25825028Y57383217D01*
X25492969Y57322365D01*
X25492966Y57322365D01*
X25492960Y57322363D01*
X25170685Y57221938D01*
X25170674Y57221934D01*
X24862824Y57083383D01*
X24862822Y57083382D01*
X24573919Y56908736D01*
X24573911Y56908730D01*
X24308170Y56700535D01*
X24069465Y56461830D01*
X23861270Y56196089D01*
X23861264Y56196081D01*
X23686618Y55907178D01*
X23686617Y55907176D01*
X23548066Y55599326D01*
X23548062Y55599315D01*
X23447637Y55277040D01*
X23447635Y55277034D01*
X23447635Y55277031D01*
X23398509Y55008963D01*
X23386782Y54944967D01*
X23366400Y54608000D01*
X20570500Y54608000D01*
X20570500Y58418000D01*
X29716400Y58418000D01*
X29736782Y58081034D01*
X29736782Y58081029D01*
X29736783Y58081028D01*
X29797635Y57748969D01*
X29797636Y57748965D01*
X29797637Y57748961D01*
X29898062Y57426686D01*
X29898066Y57426675D01*
X29898067Y57426672D01*
X29898069Y57426667D01*
X30036619Y57118820D01*
X30058043Y57083381D01*
X30211264Y56829920D01*
X30211270Y56829912D01*
X30419465Y56564171D01*
X30658170Y56325466D01*
X30923911Y56117271D01*
X30923919Y56117265D01*
X30995127Y56074219D01*
X31212820Y55942619D01*
X31520667Y55804069D01*
X31520677Y55804066D01*
X31520685Y55804063D01*
X31685354Y55752750D01*
X31842969Y55703635D01*
X32175028Y55642783D01*
X32512000Y55622400D01*
X32848972Y55642783D01*
X33181031Y55703635D01*
X33503333Y55804069D01*
X33811180Y55942619D01*
X34100082Y56117266D01*
X34365826Y56325463D01*
X34604537Y56564174D01*
X34812734Y56829918D01*
X34987381Y57118820D01*
X35125931Y57426667D01*
X35226365Y57748969D01*
X35287217Y58081028D01*
X35307600Y58418000D01*
X35287217Y58754972D01*
X35226365Y59087031D01*
X35192887Y59194465D01*
X35125937Y59409315D01*
X35125933Y59409326D01*
X35125931Y59409333D01*
X34987381Y59717180D01*
X34812734Y60006082D01*
X34788573Y60036921D01*
X34604534Y60271830D01*
X34365829Y60510535D01*
X34100088Y60718730D01*
X34100080Y60718736D01*
X33957663Y60804830D01*
X33811180Y60893381D01*
X33663156Y60960001D01*
X35166571Y60960001D01*
X35166571Y60960000D01*
X35186244Y60747690D01*
X35244596Y60542608D01*
X35244596Y60542606D01*
X35339632Y60351747D01*
X35428263Y60234382D01*
X35468128Y60181593D01*
X35625698Y60037948D01*
X35806981Y59925702D01*
X36005802Y59848679D01*
X36215390Y59809500D01*
X36215392Y59809500D01*
X36428608Y59809500D01*
X36428610Y59809500D01*
X36638198Y59848679D01*
X36837019Y59925702D01*
X37018302Y60037948D01*
X37175872Y60181593D01*
X37304366Y60351745D01*
X37341077Y60425472D01*
X37399403Y60542606D01*
X37399403Y60542607D01*
X37399405Y60542611D01*
X37457756Y60747690D01*
X37477429Y60960000D01*
X37457756Y61172310D01*
X37399405Y61377389D01*
X37399403Y61377394D01*
X37399403Y61377395D01*
X37304367Y61568254D01*
X37175872Y61738407D01*
X37018302Y61882052D01*
X36837019Y61994298D01*
X36837017Y61994299D01*
X36737608Y62032810D01*
X36638198Y62071321D01*
X36428610Y62110500D01*
X36215390Y62110500D01*
X36005802Y62071321D01*
X36005799Y62071321D01*
X36005799Y62071320D01*
X35806982Y61994299D01*
X35806980Y61994298D01*
X35625699Y61882053D01*
X35468127Y61738407D01*
X35339632Y61568254D01*
X35244596Y61377395D01*
X35244596Y61377393D01*
X35186244Y61172311D01*
X35166571Y60960001D01*
X33663156Y60960001D01*
X33503333Y61031931D01*
X33503328Y61031933D01*
X33503325Y61031934D01*
X33503314Y61031938D01*
X33181039Y61132363D01*
X33181035Y61132364D01*
X33181031Y61132365D01*
X32848972Y61193217D01*
X32848971Y61193218D01*
X32848966Y61193218D01*
X32512000Y61213600D01*
X32175033Y61193218D01*
X32175028Y61193217D01*
X31842969Y61132365D01*
X31842966Y61132365D01*
X31842960Y61132363D01*
X31520685Y61031938D01*
X31520674Y61031934D01*
X31212824Y60893383D01*
X31212822Y60893382D01*
X30923919Y60718736D01*
X30923911Y60718730D01*
X30658170Y60510535D01*
X30419465Y60271830D01*
X30211270Y60006089D01*
X30211264Y60006081D01*
X30036618Y59717178D01*
X30036617Y59717176D01*
X29898066Y59409326D01*
X29898062Y59409315D01*
X29797637Y59087040D01*
X29797635Y59087034D01*
X29797635Y59087031D01*
X29748509Y58818963D01*
X29736782Y58754967D01*
X29716400Y58418000D01*
X20570500Y58418000D01*
X20570500Y60960001D01*
X21450571Y60960001D01*
X21450571Y60960000D01*
X21470244Y60747690D01*
X21528596Y60542608D01*
X21528596Y60542606D01*
X21623632Y60351747D01*
X21712263Y60234382D01*
X21752128Y60181593D01*
X21909698Y60037948D01*
X22090981Y59925702D01*
X22289802Y59848679D01*
X22499390Y59809500D01*
X22499392Y59809500D01*
X22712608Y59809500D01*
X22712610Y59809500D01*
X22922198Y59848679D01*
X23121019Y59925702D01*
X23302302Y60037948D01*
X23459872Y60181593D01*
X23588366Y60351745D01*
X23625077Y60425472D01*
X23683403Y60542606D01*
X23683403Y60542607D01*
X23683405Y60542611D01*
X23741756Y60747690D01*
X23761429Y60960000D01*
X23741756Y61172310D01*
X23683405Y61377389D01*
X23683403Y61377394D01*
X23683403Y61377395D01*
X23588367Y61568254D01*
X23459872Y61738407D01*
X23302302Y61882052D01*
X23121019Y61994298D01*
X23121017Y61994299D01*
X23021608Y62032810D01*
X22922198Y62071321D01*
X22712610Y62110500D01*
X22499390Y62110500D01*
X22289802Y62071321D01*
X22289799Y62071321D01*
X22289799Y62071320D01*
X22090982Y61994299D01*
X22090980Y61994298D01*
X21909699Y61882053D01*
X21752127Y61738407D01*
X21623632Y61568254D01*
X21528596Y61377395D01*
X21528596Y61377393D01*
X21470244Y61172311D01*
X21450571Y60960001D01*
X20570500Y60960001D01*
X20570500Y65272520D01*
X20570695Y65279472D01*
X20580208Y65448867D01*
X20587700Y65582280D01*
X20589254Y65596075D01*
X20639474Y65891648D01*
X20642562Y65905179D01*
X20725561Y66193277D01*
X20730151Y66206391D01*
X20844880Y66483370D01*
X20850900Y66495870D01*
X20995923Y66758271D01*
X21003318Y66770039D01*
X21176808Y67014552D01*
X21185459Y67025399D01*
X21385230Y67248941D01*
X21395061Y67258771D01*
X21618601Y67458541D01*
X21629448Y67467192D01*
X21873966Y67640686D01*
X21885729Y67648077D01*
X22148130Y67793100D01*
X22160630Y67799120D01*
X22437616Y67913852D01*
X22450723Y67918439D01*
X22738821Y68001438D01*
X22752352Y68004526D01*
X23047925Y68054746D01*
X23061720Y68056300D01*
X23330574Y68071399D01*
X23364529Y68073305D01*
X23371481Y68073500D01*
X23412170Y68073500D01*
X24212830Y68073500D01*
X24250040Y68073500D01*
X24263922Y68072721D01*
G37*
%TD.AperFunction*%
%TD*%
%TA.AperFunction,Conductor*%
%TO.N,GND*%
G36*
X-16376079Y68072721D02*
G01*
X-16283070Y68062241D01*
X-16256000Y68056063D01*
X-16174257Y68027460D01*
X-16149239Y68015412D01*
X-16075917Y67969341D01*
X-16054208Y67952028D01*
X-15992974Y67890794D01*
X-15975661Y67869085D01*
X-15929590Y67795764D01*
X-15917542Y67770746D01*
X-15888939Y67689003D01*
X-15882761Y67661934D01*
X-15872281Y67568934D01*
X-15871501Y67555049D01*
X-15871500Y62272170D01*
X-15871500Y62228000D01*
X-15871500Y62153294D01*
X-15871500Y62153292D01*
X-15871501Y62153292D01*
X-15842353Y62006760D01*
X-15842350Y62006750D01*
X-15785178Y61868723D01*
X-15785171Y61868710D01*
X-15702166Y61744485D01*
X-15702163Y61744481D01*
X-15596520Y61638838D01*
X-15596516Y61638835D01*
X-15472291Y61555830D01*
X-15472278Y61555823D01*
X-15334251Y61498651D01*
X-15334246Y61498649D01*
X-15334242Y61498649D01*
X-15334241Y61498648D01*
X-15187709Y61469500D01*
X-15187706Y61469500D01*
X-7164292Y61469500D01*
X-7065708Y61489111D01*
X-7017754Y61498649D01*
X-6879716Y61555826D01*
X-6755484Y61638835D01*
X-6649835Y61744484D01*
X-6566826Y61868716D01*
X-6509649Y62006754D01*
X-6480500Y62153294D01*
X-6480500Y62228000D01*
X-6480500Y62272170D01*
X-6480500Y67555049D01*
X-6479720Y67568924D01*
X-6479719Y67568934D01*
X-6469241Y67661937D01*
X-6463063Y67689003D01*
X-6434459Y67770751D01*
X-6422412Y67795763D01*
X-6376339Y67869087D01*
X-6359031Y67890792D01*
X-6297792Y67952031D01*
X-6276087Y67969339D01*
X-6202763Y68015412D01*
X-6177751Y68027459D01*
X-6096000Y68056065D01*
X-6068938Y68062241D01*
X-5975923Y68072721D01*
X-5962040Y68073500D01*
X-5924830Y68073500D01*
X-5124170Y68073500D01*
X-5083481Y68073500D01*
X-5076529Y68073305D01*
X-5039421Y68071222D01*
X-4773723Y68056300D01*
X-4759924Y68054746D01*
X-4464357Y68004527D01*
X-4450818Y68001437D01*
X-4162730Y67918440D01*
X-4149612Y67913850D01*
X-3872638Y67799123D01*
X-3860124Y67793097D01*
X-3671782Y67689004D01*
X-3597736Y67648080D01*
X-3585962Y67640682D01*
X-3488512Y67571538D01*
X-3341458Y67467198D01*
X-3330590Y67458530D01*
X-3107062Y67258771D01*
X-3097230Y67248939D01*
X-2897471Y67025411D01*
X-2888800Y67014539D01*
X-2715319Y66770039D01*
X-2707921Y66758265D01*
X-2562908Y66495884D01*
X-2556875Y66483356D01*
X-2442152Y66206391D01*
X-2437559Y66193266D01*
X-2354567Y65905194D01*
X-2351473Y65891637D01*
X-2301257Y65596088D01*
X-2299700Y65582270D01*
X-2282695Y65279473D01*
X-2282500Y65272520D01*
X-2282500Y61892328D01*
X-2302185Y61825289D01*
X-2354989Y61779534D01*
X-2424147Y61769590D01*
X-2487703Y61798615D01*
X-2515332Y61832901D01*
X-2630771Y62044310D01*
X-2630776Y62044318D01*
X-2802255Y62273388D01*
X-2802271Y62273406D01*
X-3004595Y62475730D01*
X-3004613Y62475746D01*
X-3233683Y62647225D01*
X-3233691Y62647230D01*
X-3484834Y62784365D01*
X-3484833Y62784365D01*
X-3592085Y62824368D01*
X-3752954Y62884369D01*
X-3752957Y62884370D01*
X-3752963Y62884372D01*
X-4032567Y62945196D01*
X-4317999Y62965610D01*
X-4318001Y62965610D01*
X-4603434Y62945196D01*
X-4883038Y62884372D01*
X-5151167Y62784365D01*
X-5402310Y62647230D01*
X-5402318Y62647225D01*
X-5631388Y62475746D01*
X-5631406Y62475730D01*
X-5833730Y62273406D01*
X-5833746Y62273388D01*
X-6005225Y62044318D01*
X-6005230Y62044310D01*
X-6142365Y61793167D01*
X-6242372Y61525038D01*
X-6303196Y61245434D01*
X-6323610Y60960002D01*
X-6323610Y60959999D01*
X-6303196Y60674567D01*
X-6242372Y60394963D01*
X-6142365Y60126834D01*
X-6005230Y59875691D01*
X-6005225Y59875683D01*
X-5833746Y59646613D01*
X-5833730Y59646595D01*
X-5631406Y59444271D01*
X-5631388Y59444255D01*
X-5402318Y59272776D01*
X-5402310Y59272771D01*
X-5151167Y59135636D01*
X-5151168Y59135636D01*
X-5151164Y59135635D01*
X-5151161Y59135633D01*
X-4883046Y59035631D01*
X-4883040Y59035630D01*
X-4883038Y59035629D01*
X-4603434Y58974805D01*
X-4603432Y58974805D01*
X-4603428Y58974804D01*
X-4349780Y58956663D01*
X-4318001Y58954390D01*
X-4318000Y58954390D01*
X-4317999Y58954390D01*
X-4289405Y58956436D01*
X-4032572Y58974804D01*
X-3752954Y59035631D01*
X-3484839Y59135633D01*
X-3233685Y59272774D01*
X-3004605Y59444261D01*
X-2802261Y59646605D01*
X-2630774Y59875685D01*
X-2515332Y60087100D01*
X-2465927Y60136505D01*
X-2397654Y60151357D01*
X-2332189Y60126940D01*
X-2290318Y60071006D01*
X-2282500Y60027673D01*
X-2282500Y26584328D01*
X-2302185Y26517289D01*
X-2354989Y26471534D01*
X-2424147Y26461590D01*
X-2487703Y26490615D01*
X-2515332Y26524901D01*
X-2630771Y26736310D01*
X-2630776Y26736318D01*
X-2802255Y26965388D01*
X-2802271Y26965406D01*
X-3004595Y27167730D01*
X-3004613Y27167746D01*
X-3233683Y27339225D01*
X-3233691Y27339230D01*
X-3484834Y27476365D01*
X-3484833Y27476365D01*
X-3592085Y27516368D01*
X-3752954Y27576369D01*
X-3752957Y27576370D01*
X-3752963Y27576372D01*
X-4032567Y27637196D01*
X-4317999Y27657610D01*
X-4318001Y27657610D01*
X-4603434Y27637196D01*
X-4883038Y27576372D01*
X-5151167Y27476365D01*
X-5402310Y27339230D01*
X-5402318Y27339225D01*
X-5631388Y27167746D01*
X-5631406Y27167730D01*
X-5833730Y26965406D01*
X-5833746Y26965388D01*
X-6005225Y26736318D01*
X-6005230Y26736310D01*
X-6142365Y26485167D01*
X-6242372Y26217038D01*
X-6303196Y25937434D01*
X-6323610Y25652002D01*
X-6323610Y25651999D01*
X-6303196Y25366567D01*
X-6242372Y25086963D01*
X-6142365Y24818834D01*
X-6005230Y24567691D01*
X-6005225Y24567683D01*
X-5833746Y24338613D01*
X-5833730Y24338595D01*
X-5631406Y24136271D01*
X-5631388Y24136255D01*
X-5402318Y23964776D01*
X-5402310Y23964771D01*
X-5151167Y23827636D01*
X-5151168Y23827636D01*
X-5151164Y23827635D01*
X-5151161Y23827633D01*
X-4883046Y23727631D01*
X-4883040Y23727630D01*
X-4883038Y23727629D01*
X-4603434Y23666805D01*
X-4603432Y23666805D01*
X-4603428Y23666804D01*
X-4349780Y23648663D01*
X-4318001Y23646390D01*
X-4318000Y23646390D01*
X-4317999Y23646390D01*
X-4289405Y23648436D01*
X-4032572Y23666804D01*
X-3874763Y23701133D01*
X-3752963Y23727629D01*
X-3752963Y23727630D01*
X-3752954Y23727631D01*
X-3484839Y23827633D01*
X-3233685Y23964774D01*
X-3004605Y24136261D01*
X-2802261Y24338605D01*
X-2630774Y24567685D01*
X-2515332Y24779100D01*
X-2465927Y24828505D01*
X-2397654Y24843357D01*
X-2332189Y24818940D01*
X-2290318Y24763006D01*
X-2282500Y24719673D01*
X-2282500Y23877481D01*
X-2282695Y23870528D01*
X-2299700Y23567731D01*
X-2301257Y23553913D01*
X-2351473Y23258364D01*
X-2354567Y23244807D01*
X-2437559Y22956735D01*
X-2442152Y22943610D01*
X-2556875Y22666645D01*
X-2562908Y22654117D01*
X-2707921Y22391736D01*
X-2715319Y22379962D01*
X-2888800Y22135462D01*
X-2897471Y22124590D01*
X-3097230Y21901062D01*
X-3107062Y21891230D01*
X-3330590Y21691471D01*
X-3341462Y21682800D01*
X-3585962Y21509319D01*
X-3597736Y21501921D01*
X-3860117Y21356908D01*
X-3872645Y21350875D01*
X-4149610Y21236152D01*
X-4162735Y21231559D01*
X-4450807Y21148567D01*
X-4464364Y21145473D01*
X-4759913Y21095257D01*
X-4773731Y21093700D01*
X-5076528Y21076695D01*
X-5083481Y21076500D01*
X-17268519Y21076500D01*
X-17275472Y21076695D01*
X-17578270Y21093700D01*
X-17592088Y21095257D01*
X-17887637Y21145473D01*
X-17901194Y21148567D01*
X-18189266Y21231559D01*
X-18202391Y21236152D01*
X-18479356Y21350875D01*
X-18491884Y21356908D01*
X-18754265Y21501921D01*
X-18766039Y21509319D01*
X-19010539Y21682800D01*
X-19021411Y21691471D01*
X-19244939Y21891230D01*
X-19254771Y21901062D01*
X-19454530Y22124590D01*
X-19463201Y22135462D01*
X-19636682Y22379962D01*
X-19644080Y22391736D01*
X-19789093Y22654117D01*
X-19795123Y22666638D01*
X-19909850Y22943612D01*
X-19914442Y22956735D01*
X-19932413Y23019114D01*
X-19997437Y23244818D01*
X-20000528Y23258364D01*
X-20050746Y23553924D01*
X-20052300Y23567723D01*
X-20069305Y23870529D01*
X-20069500Y23877481D01*
X-20069500Y24719673D01*
X-20049815Y24786712D01*
X-19997011Y24832467D01*
X-19927853Y24842411D01*
X-19864297Y24813386D01*
X-19836668Y24779100D01*
X-19721230Y24567691D01*
X-19721225Y24567683D01*
X-19549746Y24338613D01*
X-19549730Y24338595D01*
X-19347406Y24136271D01*
X-19347388Y24136255D01*
X-19118318Y23964776D01*
X-19118310Y23964771D01*
X-18867167Y23827636D01*
X-18867168Y23827636D01*
X-18867164Y23827635D01*
X-18867161Y23827633D01*
X-18599046Y23727631D01*
X-18599040Y23727630D01*
X-18599038Y23727629D01*
X-18319434Y23666805D01*
X-18319432Y23666805D01*
X-18319428Y23666804D01*
X-18065780Y23648663D01*
X-18034001Y23646390D01*
X-18034000Y23646390D01*
X-18033999Y23646390D01*
X-18005405Y23648436D01*
X-17748572Y23666804D01*
X-17590763Y23701133D01*
X-17468963Y23727629D01*
X-17468963Y23727630D01*
X-17468954Y23727631D01*
X-17200839Y23827633D01*
X-16949685Y23964774D01*
X-16720605Y24136261D01*
X-16518261Y24338605D01*
X-16346774Y24567685D01*
X-16209633Y24818839D01*
X-16109631Y25086954D01*
X-16048804Y25366572D01*
X-16028390Y25652000D01*
X-16048804Y25937428D01*
X-16092629Y26138887D01*
X-16109629Y26217038D01*
X-16109630Y26217040D01*
X-16109631Y26217046D01*
X-16209633Y26485161D01*
X-16231333Y26524901D01*
X-16346771Y26736310D01*
X-16346776Y26736318D01*
X-16518255Y26965388D01*
X-16518271Y26965406D01*
X-16720595Y27167730D01*
X-16720613Y27167746D01*
X-16949683Y27339225D01*
X-16949691Y27339230D01*
X-17200834Y27476365D01*
X-17200833Y27476365D01*
X-17308085Y27516368D01*
X-17468954Y27576369D01*
X-17468957Y27576370D01*
X-17468963Y27576372D01*
X-17748567Y27637196D01*
X-18033999Y27657610D01*
X-18034001Y27657610D01*
X-18319434Y27637196D01*
X-18599038Y27576372D01*
X-18867167Y27476365D01*
X-19118310Y27339230D01*
X-19118318Y27339225D01*
X-19347388Y27167746D01*
X-19347406Y27167730D01*
X-19549730Y26965406D01*
X-19549746Y26965388D01*
X-19721225Y26736318D01*
X-19721230Y26736310D01*
X-19836668Y26524901D01*
X-19886073Y26475496D01*
X-19954346Y26460644D01*
X-20019811Y26485061D01*
X-20061682Y26540995D01*
X-20069500Y26584328D01*
X-20069500Y60027673D01*
X-20049815Y60094712D01*
X-19997011Y60140467D01*
X-19927853Y60150411D01*
X-19864297Y60121386D01*
X-19836668Y60087100D01*
X-19721230Y59875691D01*
X-19721225Y59875683D01*
X-19549746Y59646613D01*
X-19549730Y59646595D01*
X-19347406Y59444271D01*
X-19347388Y59444255D01*
X-19118318Y59272776D01*
X-19118310Y59272771D01*
X-18867167Y59135636D01*
X-18867168Y59135636D01*
X-18867164Y59135635D01*
X-18867161Y59135633D01*
X-18599046Y59035631D01*
X-18599040Y59035630D01*
X-18599038Y59035629D01*
X-18319434Y58974805D01*
X-18319432Y58974805D01*
X-18319428Y58974804D01*
X-18065780Y58956663D01*
X-18034001Y58954390D01*
X-18034000Y58954390D01*
X-18033999Y58954390D01*
X-18005405Y58956436D01*
X-17748572Y58974804D01*
X-17468954Y59035631D01*
X-17200839Y59135633D01*
X-16949685Y59272774D01*
X-16720605Y59444261D01*
X-16518261Y59646605D01*
X-16346774Y59875685D01*
X-16209633Y60126839D01*
X-16109631Y60394954D01*
X-16048804Y60674572D01*
X-16028390Y60960000D01*
X-16048804Y61245428D01*
X-16092629Y61446887D01*
X-16109629Y61525038D01*
X-16109630Y61525040D01*
X-16109631Y61525046D01*
X-16209633Y61793161D01*
X-16231333Y61832901D01*
X-16346771Y62044310D01*
X-16346776Y62044318D01*
X-16518255Y62273388D01*
X-16518271Y62273406D01*
X-16720595Y62475730D01*
X-16720613Y62475746D01*
X-16949683Y62647225D01*
X-16949691Y62647230D01*
X-17200834Y62784365D01*
X-17200833Y62784365D01*
X-17308085Y62824368D01*
X-17468954Y62884369D01*
X-17468957Y62884370D01*
X-17468963Y62884372D01*
X-17748567Y62945196D01*
X-18033999Y62965610D01*
X-18034001Y62965610D01*
X-18319434Y62945196D01*
X-18599038Y62884372D01*
X-18867167Y62784365D01*
X-19118310Y62647230D01*
X-19118318Y62647225D01*
X-19347388Y62475746D01*
X-19347406Y62475730D01*
X-19549730Y62273406D01*
X-19549746Y62273388D01*
X-19721225Y62044318D01*
X-19721230Y62044310D01*
X-19836668Y61832901D01*
X-19886073Y61783496D01*
X-19954346Y61768644D01*
X-20019811Y61793061D01*
X-20061682Y61848995D01*
X-20069500Y61892328D01*
X-20069500Y65272520D01*
X-20069305Y65279472D01*
X-20059792Y65448867D01*
X-20052300Y65582280D01*
X-20050746Y65596075D01*
X-20000526Y65891648D01*
X-19997438Y65905179D01*
X-19914439Y66193277D01*
X-19909849Y66206391D01*
X-19795120Y66483370D01*
X-19789100Y66495870D01*
X-19644077Y66758271D01*
X-19636682Y66770039D01*
X-19463192Y67014552D01*
X-19454541Y67025399D01*
X-19254770Y67248941D01*
X-19244939Y67258771D01*
X-19021399Y67458541D01*
X-19010552Y67467192D01*
X-18766034Y67640686D01*
X-18754271Y67648077D01*
X-18491870Y67793100D01*
X-18479370Y67799120D01*
X-18202384Y67913852D01*
X-18189277Y67918439D01*
X-17901179Y68001438D01*
X-17887648Y68004526D01*
X-17592075Y68054746D01*
X-17578280Y68056300D01*
X-17309426Y68071399D01*
X-17275471Y68073305D01*
X-17268519Y68073500D01*
X-17227830Y68073500D01*
X-16427171Y68073500D01*
X-16389961Y68073500D01*
X-16376079Y68072721D01*
G37*
%TD.AperFunction*%
%TD*%
M02*
