%TF.GenerationSoftware,KiCad,Pcbnew,8.0.2*%
%TF.CreationDate,2024-05-27T11:14:22+02:00*%
%TF.ProjectId,005_usb_volt_tester_beta,3030355f-7573-4625-9f76-6f6c745f7465,rev?*%
%TF.SameCoordinates,Original*%
%TF.FileFunction,Soldermask,Bot*%
%TF.FilePolarity,Negative*%
%FSLAX46Y46*%
G04 Gerber Fmt 4.6, Leading zero omitted, Abs format (unit mm)*
G04 Created by KiCad (PCBNEW 8.0.2) date 2024-05-27 11:14:22*
%MOMM*%
%LPD*%
G01*
G04 APERTURE LIST*
G04 Aperture macros list*
%AMRoundRect*
0 Rectangle with rounded corners*
0 $1 Rounding radius*
0 $2 $3 $4 $5 $6 $7 $8 $9 X,Y pos of 4 corners*
0 Add a 4 corners polygon primitive as box body*
4,1,4,$2,$3,$4,$5,$6,$7,$8,$9,$2,$3,0*
0 Add four circle primitives for the rounded corners*
1,1,$1+$1,$2,$3*
1,1,$1+$1,$4,$5*
1,1,$1+$1,$6,$7*
1,1,$1+$1,$8,$9*
0 Add four rect primitives between the rounded corners*
20,1,$1+$1,$2,$3,$4,$5,0*
20,1,$1+$1,$4,$5,$6,$7,0*
20,1,$1+$1,$6,$7,$8,$9,0*
20,1,$1+$1,$8,$9,$2,$3,0*%
%AMFreePoly0*
4,1,14,0.385355,0.085355,0.400000,0.050000,0.400000,0.000711,0.385355,-0.034644,0.334644,-0.085355,0.299289,-0.100000,-0.350000,-0.100000,-0.385355,-0.085355,-0.400000,-0.050000,-0.400000,0.050000,-0.385355,0.085355,-0.350000,0.100000,0.350000,0.100000,0.385355,0.085355,0.385355,0.085355,$1*%
%AMFreePoly1*
4,1,14,0.334644,0.085355,0.385355,0.034644,0.400000,-0.000711,0.400000,-0.050000,0.385355,-0.085355,0.350000,-0.100000,-0.350000,-0.100000,-0.385355,-0.085355,-0.400000,-0.050000,-0.400000,0.050000,-0.385355,0.085355,-0.350000,0.100000,0.299289,0.100000,0.334644,0.085355,0.334644,0.085355,$1*%
%AMFreePoly2*
4,1,14,0.085355,0.385355,0.100000,0.350000,0.100000,-0.350000,0.085355,-0.385355,0.050000,-0.400000,0.000711,-0.400000,-0.034644,-0.385355,-0.085355,-0.334644,-0.100000,-0.299289,-0.100000,0.350000,-0.085355,0.385355,-0.050000,0.400000,0.050000,0.400000,0.085355,0.385355,0.085355,0.385355,$1*%
%AMFreePoly3*
4,1,14,0.085355,0.385355,0.100000,0.350000,0.100000,-0.299289,0.085355,-0.334644,0.034644,-0.385355,-0.000711,-0.400000,-0.050000,-0.400000,-0.085355,-0.385355,-0.100000,-0.350000,-0.100000,0.350000,-0.085355,0.385355,-0.050000,0.400000,0.050000,0.400000,0.085355,0.385355,0.085355,0.385355,$1*%
%AMFreePoly4*
4,1,14,0.385355,0.085355,0.400000,0.050000,0.400000,-0.050000,0.385355,-0.085355,0.350000,-0.100000,-0.350000,-0.100000,-0.385355,-0.085355,-0.400000,-0.050000,-0.400000,-0.000711,-0.385355,0.034644,-0.334644,0.085355,-0.299289,0.100000,0.350000,0.100000,0.385355,0.085355,0.385355,0.085355,$1*%
%AMFreePoly5*
4,1,14,0.385355,0.085355,0.400000,0.050000,0.400000,-0.050000,0.385355,-0.085355,0.350000,-0.100000,-0.299289,-0.100000,-0.334644,-0.085355,-0.385355,-0.034644,-0.400000,0.000711,-0.400000,0.050000,-0.385355,0.085355,-0.350000,0.100000,0.350000,0.100000,0.385355,0.085355,0.385355,0.085355,$1*%
%AMFreePoly6*
4,1,14,0.034644,0.385355,0.085355,0.334644,0.100000,0.299289,0.100000,-0.350000,0.085355,-0.385355,0.050000,-0.400000,-0.050000,-0.400000,-0.085355,-0.385355,-0.100000,-0.350000,-0.100000,0.350000,-0.085355,0.385355,-0.050000,0.400000,-0.000711,0.400000,0.034644,0.385355,0.034644,0.385355,$1*%
%AMFreePoly7*
4,1,14,0.085355,0.385355,0.100000,0.350000,0.100000,-0.350000,0.085355,-0.385355,0.050000,-0.400000,-0.050000,-0.400000,-0.085355,-0.385355,-0.100000,-0.350000,-0.100000,0.299289,-0.085355,0.334644,-0.034644,0.385355,0.000711,0.400000,0.050000,0.400000,0.085355,0.385355,0.085355,0.385355,$1*%
G04 Aperture macros list end*
%ADD10C,2.100000*%
%ADD11O,1.300000X2.600000*%
%ADD12O,1.300000X2.300000*%
%ADD13O,0.850000X0.600000*%
%ADD14C,0.600000*%
%ADD15R,0.710000X1.500000*%
%ADD16R,0.360000X2.050000*%
%ADD17R,0.800000X1.500000*%
%ADD18R,0.410000X1.550000*%
%ADD19R,0.260000X1.550000*%
%ADD20C,1.800000*%
%ADD21R,1.700000X1.700000*%
%ADD22O,1.700000X1.700000*%
%ADD23RoundRect,0.200000X-0.275000X0.200000X-0.275000X-0.200000X0.275000X-0.200000X0.275000X0.200000X0*%
%ADD24RoundRect,0.200000X0.275000X-0.200000X0.275000X0.200000X-0.275000X0.200000X-0.275000X-0.200000X0*%
%ADD25RoundRect,0.250000X-0.250000X-0.475000X0.250000X-0.475000X0.250000X0.475000X-0.250000X0.475000X0*%
%ADD26RoundRect,0.250000X0.475000X-0.250000X0.475000X0.250000X-0.475000X0.250000X-0.475000X-0.250000X0*%
%ADD27RoundRect,0.225000X0.250000X-0.225000X0.250000X0.225000X-0.250000X0.225000X-0.250000X-0.225000X0*%
%ADD28RoundRect,0.150000X0.150000X-0.587500X0.150000X0.587500X-0.150000X0.587500X-0.150000X-0.587500X0*%
%ADD29FreePoly0,90.000000*%
%ADD30RoundRect,0.050000X0.050000X-0.350000X0.050000X0.350000X-0.050000X0.350000X-0.050000X-0.350000X0*%
%ADD31FreePoly1,90.000000*%
%ADD32FreePoly2,90.000000*%
%ADD33RoundRect,0.050000X0.350000X-0.050000X0.350000X0.050000X-0.350000X0.050000X-0.350000X-0.050000X0*%
%ADD34FreePoly3,90.000000*%
%ADD35FreePoly4,90.000000*%
%ADD36FreePoly5,90.000000*%
%ADD37FreePoly6,90.000000*%
%ADD38FreePoly7,90.000000*%
G04 APERTURE END LIST*
D10*
%TO.C,H4*%
X-38354000Y25652000D03*
%TD*%
%TO.C,H3*%
X-24638000Y25652000D03*
%TD*%
%TO.C,H2*%
X-25654000Y60960000D03*
%TD*%
%TO.C,H1*%
X-37338000Y60960000D03*
%TD*%
D11*
%TO.C,J1*%
X13462000Y22778000D03*
D12*
X13462000Y26603000D03*
D11*
X4822000Y22778000D03*
D12*
X4822000Y26603000D03*
D13*
X12142000Y25878000D03*
D14*
X6142000Y25878000D03*
%TD*%
D15*
%TO.C,P1*%
X5674000Y62579500D03*
D16*
X5739000Y64649500D03*
X12549000Y64649500D03*
D17*
X12569000Y62579500D03*
D18*
X6319000Y64899500D03*
D19*
X6894000Y64899500D03*
X7394000Y64899500D03*
X7894000Y64899500D03*
X8394000Y64899500D03*
X8894000Y64899500D03*
X9394000Y64899500D03*
X9894000Y64899500D03*
X10394000Y64899500D03*
X10894000Y64899500D03*
X11394000Y64899500D03*
D18*
X11969000Y64899500D03*
%TD*%
D20*
%TO.C,H7*%
X56642000Y25652000D03*
%TD*%
%TO.C,H5*%
X42926000Y60960000D03*
%TD*%
%TO.C,H6*%
X56642000Y60960000D03*
%TD*%
%TO.C,H8*%
X42926000Y25652000D03*
%TD*%
D21*
%TO.C,J2*%
X31942000Y-17360000D03*
D22*
X31434000Y-14820000D03*
X31942000Y-12280000D03*
X31434000Y-9740000D03*
%TD*%
D23*
%TO.C,R8*%
X27400000Y-9806000D03*
X27400000Y-11456000D03*
%TD*%
D24*
%TO.C,R3*%
X10160000Y-11306000D03*
X10160000Y-12956000D03*
%TD*%
D25*
%TO.C,C1*%
X25596000Y-20156000D03*
X27496000Y-20156000D03*
%TD*%
D26*
%TO.C,C4*%
X23752000Y-20979000D03*
X23752000Y-19079000D03*
%TD*%
D24*
%TO.C,R4*%
X10160000Y-19687000D03*
X10160000Y-18037000D03*
%TD*%
D25*
%TO.C,C2*%
X24261000Y-14187000D03*
X26161000Y-14187000D03*
%TD*%
D27*
%TO.C,C3*%
X22417000Y-17591000D03*
X22417000Y-16041000D03*
%TD*%
D28*
%TO.C,U2*%
X27431000Y-18122000D03*
X25531000Y-18122000D03*
X26481000Y-16247000D03*
%TD*%
D24*
%TO.C,R2*%
X23941000Y-17654000D03*
X23941000Y-16004000D03*
%TD*%
%TO.C,R5*%
X10160000Y-26418000D03*
X10160000Y-24768000D03*
%TD*%
%TO.C,R7*%
X10160000Y-39880000D03*
X10160000Y-38230000D03*
%TD*%
D29*
%TO.C,U1*%
X25332000Y-12485000D03*
D30*
X24932000Y-12485000D03*
X24532000Y-12485000D03*
X24132000Y-12485000D03*
D31*
X23732000Y-12485000D03*
D32*
X23082000Y-11835000D03*
D33*
X23082000Y-11435000D03*
X23082000Y-11035000D03*
X23082000Y-10635000D03*
D34*
X23082000Y-10235000D03*
D35*
X23732000Y-9585000D03*
D30*
X24132000Y-9585000D03*
X24532000Y-9585000D03*
X24932000Y-9585000D03*
D36*
X25332000Y-9585000D03*
D37*
X25982000Y-10235000D03*
D33*
X25982000Y-10635000D03*
X25982000Y-11035000D03*
X25982000Y-11435000D03*
D38*
X25982000Y-11835000D03*
D21*
X24532000Y-11035000D03*
%TD*%
D24*
%TO.C,R1*%
X21974000Y-20702000D03*
X21974000Y-19052000D03*
%TD*%
%TO.C,R6*%
X10160000Y-33149000D03*
X10160000Y-31499000D03*
%TD*%
M02*
