%TF.GenerationSoftware,KiCad,Pcbnew,8.0.2*%
%TF.CreationDate,2024-05-27T11:14:22+02:00*%
%TF.ProjectId,005_usb_volt_tester_beta,3030355f-7573-4625-9f76-6f6c745f7465,rev?*%
%TF.SameCoordinates,Original*%
%TF.FileFunction,Copper,L4,Bot*%
%TF.FilePolarity,Positive*%
%FSLAX46Y46*%
G04 Gerber Fmt 4.6, Leading zero omitted, Abs format (unit mm)*
G04 Created by KiCad (PCBNEW 8.0.2) date 2024-05-27 11:14:22*
%MOMM*%
%LPD*%
G01*
G04 APERTURE LIST*
G04 Aperture macros list*
%AMRoundRect*
0 Rectangle with rounded corners*
0 $1 Rounding radius*
0 $2 $3 $4 $5 $6 $7 $8 $9 X,Y pos of 4 corners*
0 Add a 4 corners polygon primitive as box body*
4,1,4,$2,$3,$4,$5,$6,$7,$8,$9,$2,$3,0*
0 Add four circle primitives for the rounded corners*
1,1,$1+$1,$2,$3*
1,1,$1+$1,$4,$5*
1,1,$1+$1,$6,$7*
1,1,$1+$1,$8,$9*
0 Add four rect primitives between the rounded corners*
20,1,$1+$1,$2,$3,$4,$5,0*
20,1,$1+$1,$4,$5,$6,$7,0*
20,1,$1+$1,$6,$7,$8,$9,0*
20,1,$1+$1,$8,$9,$2,$3,0*%
%AMFreePoly0*
4,1,14,0.385355,0.085355,0.400000,0.050000,0.400000,0.000711,0.385355,-0.034644,0.334644,-0.085355,0.299289,-0.100000,-0.350000,-0.100000,-0.385355,-0.085355,-0.400000,-0.050000,-0.400000,0.050000,-0.385355,0.085355,-0.350000,0.100000,0.350000,0.100000,0.385355,0.085355,0.385355,0.085355,$1*%
%AMFreePoly1*
4,1,14,0.334644,0.085355,0.385355,0.034644,0.400000,-0.000711,0.400000,-0.050000,0.385355,-0.085355,0.350000,-0.100000,-0.350000,-0.100000,-0.385355,-0.085355,-0.400000,-0.050000,-0.400000,0.050000,-0.385355,0.085355,-0.350000,0.100000,0.299289,0.100000,0.334644,0.085355,0.334644,0.085355,$1*%
%AMFreePoly2*
4,1,14,0.085355,0.385355,0.100000,0.350000,0.100000,-0.350000,0.085355,-0.385355,0.050000,-0.400000,0.000711,-0.400000,-0.034644,-0.385355,-0.085355,-0.334644,-0.100000,-0.299289,-0.100000,0.350000,-0.085355,0.385355,-0.050000,0.400000,0.050000,0.400000,0.085355,0.385355,0.085355,0.385355,$1*%
%AMFreePoly3*
4,1,14,0.085355,0.385355,0.100000,0.350000,0.100000,-0.299289,0.085355,-0.334644,0.034644,-0.385355,-0.000711,-0.400000,-0.050000,-0.400000,-0.085355,-0.385355,-0.100000,-0.350000,-0.100000,0.350000,-0.085355,0.385355,-0.050000,0.400000,0.050000,0.400000,0.085355,0.385355,0.085355,0.385355,$1*%
%AMFreePoly4*
4,1,14,0.385355,0.085355,0.400000,0.050000,0.400000,-0.050000,0.385355,-0.085355,0.350000,-0.100000,-0.350000,-0.100000,-0.385355,-0.085355,-0.400000,-0.050000,-0.400000,-0.000711,-0.385355,0.034644,-0.334644,0.085355,-0.299289,0.100000,0.350000,0.100000,0.385355,0.085355,0.385355,0.085355,$1*%
%AMFreePoly5*
4,1,14,0.385355,0.085355,0.400000,0.050000,0.400000,-0.050000,0.385355,-0.085355,0.350000,-0.100000,-0.299289,-0.100000,-0.334644,-0.085355,-0.385355,-0.034644,-0.400000,0.000711,-0.400000,0.050000,-0.385355,0.085355,-0.350000,0.100000,0.350000,0.100000,0.385355,0.085355,0.385355,0.085355,$1*%
%AMFreePoly6*
4,1,14,0.034644,0.385355,0.085355,0.334644,0.100000,0.299289,0.100000,-0.350000,0.085355,-0.385355,0.050000,-0.400000,-0.050000,-0.400000,-0.085355,-0.385355,-0.100000,-0.350000,-0.100000,0.350000,-0.085355,0.385355,-0.050000,0.400000,-0.000711,0.400000,0.034644,0.385355,0.034644,0.385355,$1*%
%AMFreePoly7*
4,1,14,0.085355,0.385355,0.100000,0.350000,0.100000,-0.350000,0.085355,-0.385355,0.050000,-0.400000,-0.050000,-0.400000,-0.085355,-0.385355,-0.100000,-0.350000,-0.100000,0.299289,-0.085355,0.334644,-0.034644,0.385355,0.000711,0.400000,0.050000,0.400000,0.085355,0.385355,0.085355,0.385355,$1*%
G04 Aperture macros list end*
%TA.AperFunction,ComponentPad*%
%ADD10O,1.300000X2.600000*%
%TD*%
%TA.AperFunction,ComponentPad*%
%ADD11O,1.300000X2.300000*%
%TD*%
%TA.AperFunction,SMDPad,CuDef*%
%ADD12R,0.710000X1.500000*%
%TD*%
%TA.AperFunction,SMDPad,CuDef*%
%ADD13R,0.360000X2.050000*%
%TD*%
%TA.AperFunction,SMDPad,CuDef*%
%ADD14R,0.800000X1.500000*%
%TD*%
%TA.AperFunction,SMDPad,CuDef*%
%ADD15R,0.410000X1.550000*%
%TD*%
%TA.AperFunction,SMDPad,CuDef*%
%ADD16R,0.260000X1.550000*%
%TD*%
%TA.AperFunction,ComponentPad*%
%ADD17R,1.700000X1.700000*%
%TD*%
%TA.AperFunction,ComponentPad*%
%ADD18O,1.700000X1.700000*%
%TD*%
%TA.AperFunction,SMDPad,CuDef*%
%ADD19RoundRect,0.200000X-0.275000X0.200000X-0.275000X-0.200000X0.275000X-0.200000X0.275000X0.200000X0*%
%TD*%
%TA.AperFunction,SMDPad,CuDef*%
%ADD20RoundRect,0.200000X0.275000X-0.200000X0.275000X0.200000X-0.275000X0.200000X-0.275000X-0.200000X0*%
%TD*%
%TA.AperFunction,SMDPad,CuDef*%
%ADD21RoundRect,0.250000X-0.250000X-0.475000X0.250000X-0.475000X0.250000X0.475000X-0.250000X0.475000X0*%
%TD*%
%TA.AperFunction,SMDPad,CuDef*%
%ADD22RoundRect,0.250000X0.475000X-0.250000X0.475000X0.250000X-0.475000X0.250000X-0.475000X-0.250000X0*%
%TD*%
%TA.AperFunction,SMDPad,CuDef*%
%ADD23RoundRect,0.225000X0.250000X-0.225000X0.250000X0.225000X-0.250000X0.225000X-0.250000X-0.225000X0*%
%TD*%
%TA.AperFunction,SMDPad,CuDef*%
%ADD24RoundRect,0.150000X0.150000X-0.587500X0.150000X0.587500X-0.150000X0.587500X-0.150000X-0.587500X0*%
%TD*%
%TA.AperFunction,SMDPad,CuDef*%
%ADD25FreePoly0,90.000000*%
%TD*%
%TA.AperFunction,SMDPad,CuDef*%
%ADD26RoundRect,0.050000X0.050000X-0.350000X0.050000X0.350000X-0.050000X0.350000X-0.050000X-0.350000X0*%
%TD*%
%TA.AperFunction,SMDPad,CuDef*%
%ADD27FreePoly1,90.000000*%
%TD*%
%TA.AperFunction,SMDPad,CuDef*%
%ADD28FreePoly2,90.000000*%
%TD*%
%TA.AperFunction,SMDPad,CuDef*%
%ADD29RoundRect,0.050000X0.350000X-0.050000X0.350000X0.050000X-0.350000X0.050000X-0.350000X-0.050000X0*%
%TD*%
%TA.AperFunction,SMDPad,CuDef*%
%ADD30FreePoly3,90.000000*%
%TD*%
%TA.AperFunction,SMDPad,CuDef*%
%ADD31FreePoly4,90.000000*%
%TD*%
%TA.AperFunction,SMDPad,CuDef*%
%ADD32FreePoly5,90.000000*%
%TD*%
%TA.AperFunction,SMDPad,CuDef*%
%ADD33FreePoly6,90.000000*%
%TD*%
%TA.AperFunction,SMDPad,CuDef*%
%ADD34FreePoly7,90.000000*%
%TD*%
%TA.AperFunction,SMDPad,CuDef*%
%ADD35R,1.700000X1.700000*%
%TD*%
%TA.AperFunction,ViaPad*%
%ADD36C,0.900000*%
%TD*%
%TA.AperFunction,ViaPad*%
%ADD37C,0.700000*%
%TD*%
%TA.AperFunction,Conductor*%
%ADD38C,0.300000*%
%TD*%
%TA.AperFunction,Conductor*%
%ADD39C,0.500000*%
%TD*%
%TA.AperFunction,Conductor*%
%ADD40C,0.750000*%
%TD*%
%TA.AperFunction,Conductor*%
%ADD41C,0.200000*%
%TD*%
%TA.AperFunction,Conductor*%
%ADD42C,0.230000*%
%TD*%
%TA.AperFunction,Conductor*%
%ADD43C,0.350000*%
%TD*%
G04 APERTURE END LIST*
D10*
%TO.P,J1,S1,SHIELD*%
%TO.N,GND*%
X13462000Y22778000D03*
D11*
X13462000Y26603000D03*
D10*
X4822000Y22778000D03*
D11*
X4822000Y26603000D03*
%TD*%
D12*
%TO.P,P1,S1,SHIELD*%
%TO.N,GND*%
X5674000Y62579500D03*
D13*
X5739000Y64649500D03*
X12549000Y64649500D03*
D14*
X12569000Y62579500D03*
D15*
%TO.P,P1,B12,GND*%
X6319000Y64899500D03*
D16*
%TO.P,P1,B11,RX1+*%
%TO.N,unconnected-(P1-RX1+-PadB11)*%
X6894000Y64899500D03*
%TO.P,P1,B10,RX1-*%
%TO.N,unconnected-(P1-RX1--PadB10)*%
X7394000Y64899500D03*
%TO.P,P1,B9,VBUS*%
%TO.N,VDD*%
X7894000Y64899500D03*
%TO.P,P1,B8,SBU2*%
%TO.N,/SBU2*%
X8394000Y64899500D03*
%TO.P,P1,B7,D-*%
%TO.N,/D-*%
X8894000Y64899500D03*
%TO.P,P1,B6,D+*%
%TO.N,/D+*%
X9394000Y64899500D03*
%TO.P,P1,B5,VCONN*%
%TO.N,/CC2*%
X9894000Y64899500D03*
%TO.P,P1,B4,VBUS*%
%TO.N,VDD*%
X10394000Y64899500D03*
%TO.P,P1,B3,TX2-*%
%TO.N,unconnected-(P1-TX2--PadB3)*%
X10894000Y64899500D03*
%TO.P,P1,B2,TX2+*%
%TO.N,unconnected-(P1-TX2+-PadB2)*%
X11394000Y64899500D03*
D15*
%TO.P,P1,B1,GND*%
%TO.N,GND*%
X11969000Y64899500D03*
%TD*%
D17*
%TO.P,J2,1,~{MCLR}/VPP*%
%TO.N,unconnected-(J2-~{MCLR}{slash}VPP-Pad1)*%
X31942000Y-17360000D03*
D18*
%TO.P,J2,2,VDD*%
%TO.N,VCC*%
X31434000Y-14820000D03*
%TO.P,J2,3,VSS*%
%TO.N,GND*%
X31942000Y-12280000D03*
%TO.P,J2,4,PGD/ICSPDAT*%
%TO.N,/{slash}PGD{slash}ICSPDAT*%
X31434000Y-9740000D03*
%TD*%
D19*
%TO.P,R8,1*%
%TO.N,/{slash}PGD{slash}ICSPDAT*%
X27400000Y-9806000D03*
%TO.P,R8,2*%
%TO.N,/PGD{slash}ICSPDAT*%
X27400000Y-11456000D03*
%TD*%
D20*
%TO.P,R3,2*%
%TO.N,GND*%
X10160000Y-11306000D03*
%TO.P,R3,1*%
%TO.N,unconnected-(R3-Pad1)*%
X10160000Y-12956000D03*
%TD*%
D21*
%TO.P,C1,1*%
%TO.N,VDD*%
X25596000Y-20156000D03*
%TO.P,C1,2*%
%TO.N,GND*%
X27496000Y-20156000D03*
%TD*%
D22*
%TO.P,C4,1*%
%TO.N,VDD*%
X23752000Y-20979000D03*
%TO.P,C4,2*%
%TO.N,GND*%
X23752000Y-19079000D03*
%TD*%
D20*
%TO.P,R4,1*%
%TO.N,unconnected-(R4-Pad1)*%
X10160000Y-19687000D03*
%TO.P,R4,2*%
%TO.N,GND*%
X10160000Y-18037000D03*
%TD*%
D21*
%TO.P,C2,1*%
%TO.N,VCC*%
X24261000Y-14187000D03*
%TO.P,C2,2*%
%TO.N,GND*%
X26161000Y-14187000D03*
%TD*%
D23*
%TO.P,C3,1*%
%TO.N,/VDD_SENSE*%
X22417000Y-17591000D03*
%TO.P,C3,2*%
%TO.N,GND*%
X22417000Y-16041000D03*
%TD*%
D24*
%TO.P,U2,1,GND*%
%TO.N,GND*%
X27431000Y-18122000D03*
%TO.P,U2,2,VO*%
%TO.N,VCC*%
X25531000Y-18122000D03*
%TO.P,U2,3,VI*%
%TO.N,VDD*%
X26481000Y-16247000D03*
%TD*%
D20*
%TO.P,R2,1*%
%TO.N,/VDD_SENSE*%
X23941000Y-17654000D03*
%TO.P,R2,2*%
%TO.N,GND*%
X23941000Y-16004000D03*
%TD*%
%TO.P,R5,1*%
%TO.N,unconnected-(R5-Pad1)*%
X10160000Y-26418000D03*
%TO.P,R5,2*%
%TO.N,GND*%
X10160000Y-24768000D03*
%TD*%
%TO.P,R7,1*%
%TO.N,unconnected-(R7-Pad1)*%
X10160000Y-39880000D03*
%TO.P,R7,2*%
%TO.N,GND*%
X10160000Y-38230000D03*
%TD*%
D25*
%TO.P,U1,1,PA2*%
%TO.N,unconnected-(U1-PA2-Pad1)*%
X25332000Y-12485000D03*
D26*
%TO.P,U1,2,PA3*%
%TO.N,unconnected-(U1-PA3-Pad2)*%
X24932000Y-12485000D03*
%TO.P,U1,3,GND*%
%TO.N,GND*%
X24532000Y-12485000D03*
%TO.P,U1,4,VCC*%
%TO.N,VCC*%
X24132000Y-12485000D03*
D27*
%TO.P,U1,5,PA4*%
%TO.N,/VDD_SENSE*%
X23732000Y-12485000D03*
D28*
%TO.P,U1,6,PA5*%
%TO.N,unconnected-(U1-PA5-Pad6)*%
X23082000Y-11835000D03*
D29*
%TO.P,U1,7,PA6*%
%TO.N,unconnected-(U1-PA6-Pad7)*%
X23082000Y-11435000D03*
%TO.P,U1,8,PA7*%
%TO.N,unconnected-(U1-PA7-Pad8)*%
X23082000Y-11035000D03*
%TO.P,U1,9,PB5*%
%TO.N,unconnected-(U1-PB5-Pad9)*%
X23082000Y-10635000D03*
D30*
%TO.P,U1,10,PB4*%
%TO.N,unconnected-(U1-PB4-Pad10)*%
X23082000Y-10235000D03*
D31*
%TO.P,U1,11,PB3*%
%TO.N,unconnected-(U1-PB3-Pad11)*%
X23732000Y-9585000D03*
D26*
%TO.P,U1,12,PB2*%
%TO.N,unconnected-(U1-PB2-Pad12)*%
X24132000Y-9585000D03*
%TO.P,U1,13,PB1*%
%TO.N,unconnected-(U1-PB1-Pad13)*%
X24532000Y-9585000D03*
%TO.P,U1,14,PB0*%
%TO.N,unconnected-(U1-PB0-Pad14)*%
X24932000Y-9585000D03*
D32*
%TO.P,U1,15,PC0*%
%TO.N,unconnected-(U1-PC0-Pad15)*%
X25332000Y-9585000D03*
D33*
%TO.P,U1,16,PC1*%
%TO.N,unconnected-(U1-PC1-Pad16)*%
X25982000Y-10235000D03*
D29*
%TO.P,U1,17,PC2*%
%TO.N,unconnected-(U1-PC2-Pad17)*%
X25982000Y-10635000D03*
%TO.P,U1,18,PC3*%
%TO.N,unconnected-(U1-PC3-Pad18)*%
X25982000Y-11035000D03*
%TO.P,U1,19,~{RESET}/PA0*%
%TO.N,/PGD{slash}ICSPDAT*%
X25982000Y-11435000D03*
D34*
%TO.P,U1,20,PA1*%
%TO.N,unconnected-(U1-PA1-Pad20)*%
X25982000Y-11835000D03*
D35*
%TO.P,U1,21,GND*%
%TO.N,GND*%
X24532000Y-11035000D03*
%TD*%
D20*
%TO.P,R1,1*%
%TO.N,VDD*%
X21974000Y-20702000D03*
%TO.P,R1,2*%
%TO.N,/VDD_SENSE*%
X21974000Y-19052000D03*
%TD*%
%TO.P,R6,1*%
%TO.N,unconnected-(R6-Pad1)*%
X10160000Y-33149000D03*
%TO.P,R6,2*%
%TO.N,GND*%
X10160000Y-31499000D03*
%TD*%
D36*
%TO.N,VDD*%
X-254000Y-7241000D03*
X-6985000Y74420000D03*
X-8509000Y72896000D03*
X-2413000Y72896000D03*
X-3937000Y74420000D03*
X635000Y-6479000D03*
X-8001000Y73912000D03*
X-2921000Y73912000D03*
%TO.N,GND*%
X-9336000Y74166000D03*
X-10541000Y75944000D03*
X1651000Y-8384000D03*
X-508000Y74801000D03*
X-5207000Y-8384000D03*
X-5334000Y-7241000D03*
X1651000Y-7241000D03*
X-508000Y75944000D03*
X-10414000Y74674000D03*
X-1524000Y74166000D03*
D37*
%TO.N,/CC1*%
X-6858000Y72896000D03*
X-3175000Y-6098000D03*
%TO.N,/D+*%
X-5011000Y73150000D03*
%TO.N,/D-*%
X-5911000Y73150000D03*
X-2286000Y-5717000D03*
%TO.N,/SBU1*%
X-381000Y-6098000D03*
X-4064000Y72896000D03*
D36*
%TO.N,/SBU2*%
X-3302000Y-7241000D03*
X-4191000Y-6479000D03*
%TD*%
D38*
%TO.N,VDD*%
X-4211000Y75055000D02*
X-4211000Y74948000D01*
D39*
X23752000Y-20979000D02*
X22251000Y-20979000D01*
X25088000Y-20979000D02*
X23752000Y-20979000D01*
X25596000Y-20471000D02*
X25088000Y-20979000D01*
D40*
X-8001000Y73912000D02*
X-8509000Y73404000D01*
X-3429000Y74420000D02*
X-2921000Y73912000D01*
D39*
X26481000Y-19271000D02*
X25596000Y-20156000D01*
D38*
X-4211000Y74948000D02*
X-3937000Y74674000D01*
D40*
X-7493000Y74420000D02*
X-8001000Y73912000D01*
D38*
X-6711000Y74694000D02*
X-6985000Y74420000D01*
D39*
X22417000Y-21145000D02*
X21974000Y-20702000D01*
D40*
X-3937000Y74420000D02*
X-3429000Y74420000D01*
X-2921000Y73912000D02*
X-2413000Y73404000D01*
X-8509000Y73404000D02*
X-8509000Y72896000D01*
X-2413000Y73404000D02*
X-2413000Y72896000D01*
D38*
X-6711000Y75846000D02*
X-6711000Y74694000D01*
D40*
X-6985000Y74420000D02*
X-7493000Y74420000D01*
D38*
X-6711000Y74948000D02*
X-6985000Y74674000D01*
X-4211000Y74694000D02*
X-3937000Y74420000D01*
D39*
X25596000Y-20156000D02*
X25596000Y-20471000D01*
X26481000Y-16209500D02*
X26481000Y-19271000D01*
X22251000Y-20979000D02*
X21974000Y-20702000D01*
D38*
X-6711000Y75846000D02*
X-6711000Y74948000D01*
X-4211000Y75846000D02*
X-4211000Y74694000D01*
D41*
%TO.N,GND*%
X25000675Y-13379325D02*
X24532000Y-12910650D01*
X26161000Y-14187000D02*
X26161000Y-13992000D01*
X26161000Y-13992000D02*
X25548325Y-13379325D01*
X24532000Y-12910650D02*
X24532000Y-12485000D01*
X25548325Y-13379325D02*
X25000675Y-13379325D01*
%TO.N,VCC*%
X29021000Y-15201000D02*
X25846000Y-15201000D01*
D39*
X24680000Y-15115000D02*
X24133000Y-14568000D01*
D41*
X29021000Y-15201000D02*
X29402000Y-14820000D01*
X25846000Y-15201000D02*
X25317500Y-15729500D01*
X24132000Y-12485000D02*
X24132000Y-14058000D01*
X29402000Y-14820000D02*
X31434000Y-14820000D01*
X24132000Y-14058000D02*
X24261000Y-14187000D01*
D39*
X25531000Y-15943000D02*
X25317500Y-15729500D01*
X24703000Y-15115000D02*
X24680000Y-15115000D01*
X25531000Y-18084500D02*
X25531000Y-15943000D01*
X25317500Y-15729500D02*
X24703000Y-15115000D01*
D41*
X24703000Y-15115000D02*
X24789000Y-15201000D01*
D42*
%TO.N,/D+*%
X-5246000Y73385000D02*
X-5246000Y73785000D01*
X-5246000Y73785000D02*
X-5246000Y73570000D01*
X-5011000Y73150000D02*
X-5246000Y73385000D01*
X-5211000Y74833499D02*
X-5211000Y75846000D01*
X-5246000Y74798499D02*
X-5211000Y74833499D01*
X-5246000Y73785000D02*
X-5246000Y74798499D01*
X-5246000Y73570000D02*
X-4953000Y73277000D01*
%TO.N,/D-*%
X-5676000Y74798499D02*
X-5711000Y74833499D01*
X-5911000Y73150000D02*
X-5842000Y73219000D01*
X-5676000Y73570000D02*
X-5969000Y73277000D01*
X-5676000Y73912000D02*
X-5676000Y74798499D01*
X-5676000Y73912000D02*
X-5676000Y73570000D01*
X-5676000Y73385000D02*
X-5676000Y73912000D01*
X-5711000Y74833499D02*
X-5711000Y75846000D01*
X-5911000Y73150000D02*
X-5676000Y73385000D01*
D41*
%TO.N,/CC2*%
X-3810000Y73658000D02*
X-3302000Y73150000D01*
X-4711000Y75846000D02*
X-4711000Y73924000D01*
X-4445000Y73658000D02*
X-3810000Y73658000D01*
X-4711000Y73924000D02*
X-4445000Y73658000D01*
%TO.N,/SBU2*%
X-6211000Y74051000D02*
X-6540500Y73721500D01*
X-7112000Y73658000D02*
X-7620000Y73150000D01*
X-6540500Y73721500D02*
X-6604000Y73658000D01*
X-6604000Y73658000D02*
X-7112000Y73658000D01*
X-6211000Y75846000D02*
X-6211000Y74051000D01*
D43*
%TO.N,/VDD_SENSE*%
X21974000Y-18034000D02*
X21974000Y-19052000D01*
D41*
X21466000Y-13425000D02*
X22406000Y-12485000D01*
D43*
X22417000Y-17591000D02*
X21974000Y-18034000D01*
D41*
X22406000Y-12485000D02*
X23732000Y-12485000D01*
D43*
X22990000Y-17654000D02*
X22480000Y-17654000D01*
D41*
X22417000Y-17591000D02*
X21466000Y-16640000D01*
D43*
X23941000Y-17654000D02*
X22990000Y-17654000D01*
X22480000Y-17654000D02*
X22417000Y-17591000D01*
D41*
X21466000Y-16640000D02*
X21466000Y-13425000D01*
%TO.N,/{slash}PGD{slash}ICSPDAT*%
X27400000Y-9806000D02*
X31368000Y-9806000D01*
X31368000Y-9806000D02*
X31434000Y-9740000D01*
%TO.N,/PGD{slash}ICSPDAT*%
X27379000Y-11435000D02*
X27400000Y-11456000D01*
X25982000Y-11435000D02*
X27379000Y-11435000D01*
%TO.N,unconnected-(R3-Pad1)*%
X8512000Y-12388000D02*
X9144000Y-13020000D01*
X9144000Y-13020000D02*
X10414000Y-13020000D01*
X8512000Y-12131000D02*
X8512000Y-12388000D01*
%TO.N,unconnected-(R4-Pad1)*%
X8512000Y-18862000D02*
X8512000Y-19119000D01*
X9271000Y-19878000D02*
X10160000Y-19878000D01*
X8512000Y-19119000D02*
X9271000Y-19878000D01*
%TO.N,unconnected-(R5-Pad1)*%
X9271000Y-26609000D02*
X10160000Y-26609000D01*
X8512000Y-25850000D02*
X9271000Y-26609000D01*
X8512000Y-25593000D02*
X8512000Y-25850000D01*
%TO.N,unconnected-(R6-Pad1)*%
X9271000Y-33340000D02*
X10287000Y-33340000D01*
X8512000Y-32324000D02*
X8512000Y-32581000D01*
X8512000Y-32581000D02*
X9271000Y-33340000D01*
%TO.N,unconnected-(R7-Pad1)*%
X8512000Y-39312000D02*
X9271000Y-40071000D01*
X9271000Y-40071000D02*
X10033000Y-40071000D01*
X8512000Y-39055000D02*
X8512000Y-39312000D01*
%TD*%
%TA.AperFunction,Conductor*%
%TO.N,GND*%
G36*
X-25396529Y68073305D02*
G01*
X-25359421Y68071222D01*
X-25093723Y68056300D01*
X-25079924Y68054746D01*
X-24784357Y68004527D01*
X-24770818Y68001437D01*
X-24482730Y67918440D01*
X-24469612Y67913850D01*
X-24192638Y67799123D01*
X-24180124Y67793097D01*
X-23974292Y67679338D01*
X-23917736Y67648080D01*
X-23905962Y67640682D01*
X-23808512Y67571538D01*
X-23661458Y67467198D01*
X-23650590Y67458530D01*
X-23427062Y67258771D01*
X-23417230Y67248939D01*
X-23217471Y67025411D01*
X-23208800Y67014539D01*
X-23035319Y66770039D01*
X-23027921Y66758265D01*
X-22882908Y66495884D01*
X-22876875Y66483356D01*
X-22762152Y66206391D01*
X-22757559Y66193266D01*
X-22674567Y65905194D01*
X-22671473Y65891637D01*
X-22621257Y65596088D01*
X-22619700Y65582270D01*
X-22602695Y65279473D01*
X-22602500Y65272520D01*
X-22602500Y23877481D01*
X-22602695Y23870528D01*
X-22619700Y23567731D01*
X-22621257Y23553913D01*
X-22671473Y23258364D01*
X-22674567Y23244807D01*
X-22757559Y22956735D01*
X-22762152Y22943610D01*
X-22876875Y22666645D01*
X-22882908Y22654117D01*
X-23027921Y22391736D01*
X-23035319Y22379962D01*
X-23208800Y22135462D01*
X-23217471Y22124590D01*
X-23417230Y21901062D01*
X-23427062Y21891230D01*
X-23650590Y21691471D01*
X-23661462Y21682800D01*
X-23905962Y21509319D01*
X-23917736Y21501921D01*
X-24180117Y21356908D01*
X-24192645Y21350875D01*
X-24469610Y21236152D01*
X-24482735Y21231559D01*
X-24770807Y21148567D01*
X-24784364Y21145473D01*
X-25079913Y21095257D01*
X-25093731Y21093700D01*
X-25396528Y21076695D01*
X-25403481Y21076500D01*
X-37588519Y21076500D01*
X-37595472Y21076695D01*
X-37898270Y21093700D01*
X-37912088Y21095257D01*
X-38207637Y21145473D01*
X-38221194Y21148567D01*
X-38509266Y21231559D01*
X-38522391Y21236152D01*
X-38799356Y21350875D01*
X-38811884Y21356908D01*
X-39074265Y21501921D01*
X-39086039Y21509319D01*
X-39330539Y21682800D01*
X-39341411Y21691471D01*
X-39564939Y21891230D01*
X-39574771Y21901062D01*
X-39774530Y22124590D01*
X-39783201Y22135462D01*
X-39956682Y22379962D01*
X-39964080Y22391736D01*
X-40109093Y22654117D01*
X-40115123Y22666638D01*
X-40229850Y22943612D01*
X-40234442Y22956735D01*
X-40252413Y23019114D01*
X-40317437Y23244818D01*
X-40320528Y23258364D01*
X-40370746Y23553924D01*
X-40372300Y23567723D01*
X-40389305Y23870529D01*
X-40389500Y23877481D01*
X-40389500Y25750423D01*
X-39604500Y25750423D01*
X-39604500Y25553578D01*
X-39573710Y25359174D01*
X-39512883Y25171971D01*
X-39423524Y24996595D01*
X-39307828Y24837354D01*
X-39168646Y24698172D01*
X-39009405Y24582476D01*
X-38926545Y24540257D01*
X-38834030Y24493118D01*
X-38834028Y24493118D01*
X-38834025Y24493116D01*
X-38733683Y24460513D01*
X-38646827Y24432291D01*
X-38452422Y24401500D01*
X-38452417Y24401500D01*
X-38255578Y24401500D01*
X-38061174Y24432291D01*
X-37873975Y24493116D01*
X-37698595Y24582476D01*
X-37539354Y24698172D01*
X-37400172Y24837354D01*
X-37284476Y24996595D01*
X-37195116Y25171975D01*
X-37134291Y25359174D01*
X-37103500Y25553578D01*
X-37103500Y25750423D01*
X-25888500Y25750423D01*
X-25888500Y25553578D01*
X-25857710Y25359174D01*
X-25796883Y25171971D01*
X-25707524Y24996595D01*
X-25591828Y24837354D01*
X-25452646Y24698172D01*
X-25293405Y24582476D01*
X-25210545Y24540257D01*
X-25118030Y24493118D01*
X-25118028Y24493118D01*
X-25118025Y24493116D01*
X-25017683Y24460513D01*
X-24930827Y24432291D01*
X-24736422Y24401500D01*
X-24736417Y24401500D01*
X-24539578Y24401500D01*
X-24345174Y24432291D01*
X-24157975Y24493116D01*
X-23982595Y24582476D01*
X-23823354Y24698172D01*
X-23684172Y24837354D01*
X-23568476Y24996595D01*
X-23479116Y25171975D01*
X-23418291Y25359174D01*
X-23387500Y25553578D01*
X-23387500Y25750423D01*
X-23418291Y25944827D01*
X-23479118Y26132030D01*
X-23568477Y26307406D01*
X-23684172Y26466646D01*
X-23823354Y26605828D01*
X-23982595Y26721524D01*
X-24157971Y26810883D01*
X-24345174Y26871710D01*
X-24539578Y26902500D01*
X-24539583Y26902500D01*
X-24736417Y26902500D01*
X-24736422Y26902500D01*
X-24930827Y26871710D01*
X-25118030Y26810883D01*
X-25293406Y26721524D01*
X-25384259Y26655515D01*
X-25452646Y26605828D01*
X-25452648Y26605826D01*
X-25452649Y26605826D01*
X-25591826Y26466649D01*
X-25591826Y26466648D01*
X-25591828Y26466646D01*
X-25641515Y26398259D01*
X-25707524Y26307406D01*
X-25796883Y26132030D01*
X-25857710Y25944827D01*
X-25888500Y25750423D01*
X-37103500Y25750423D01*
X-37134291Y25944827D01*
X-37195118Y26132030D01*
X-37284477Y26307406D01*
X-37400172Y26466646D01*
X-37539354Y26605828D01*
X-37698595Y26721524D01*
X-37873971Y26810883D01*
X-38061174Y26871710D01*
X-38255578Y26902500D01*
X-38255583Y26902500D01*
X-38452417Y26902500D01*
X-38452422Y26902500D01*
X-38646827Y26871710D01*
X-38834030Y26810883D01*
X-39009406Y26721524D01*
X-39100259Y26655515D01*
X-39168646Y26605828D01*
X-39168648Y26605826D01*
X-39168649Y26605826D01*
X-39307826Y26466649D01*
X-39307826Y26466648D01*
X-39307828Y26466646D01*
X-39357515Y26398259D01*
X-39423524Y26307406D01*
X-39512883Y26132030D01*
X-39573710Y25944827D01*
X-39604500Y25750423D01*
X-40389500Y25750423D01*
X-40389500Y61058423D01*
X-38588500Y61058423D01*
X-38588500Y60861578D01*
X-38557710Y60667174D01*
X-38496883Y60479971D01*
X-38407524Y60304595D01*
X-38291828Y60145354D01*
X-38152646Y60006172D01*
X-37993405Y59890476D01*
X-37910545Y59848257D01*
X-37818030Y59801118D01*
X-37818028Y59801118D01*
X-37818025Y59801116D01*
X-37717683Y59768513D01*
X-37630827Y59740291D01*
X-37436422Y59709500D01*
X-37436417Y59709500D01*
X-37239578Y59709500D01*
X-37045174Y59740291D01*
X-36857975Y59801116D01*
X-36682595Y59890476D01*
X-36523354Y60006172D01*
X-36384172Y60145354D01*
X-36268476Y60304595D01*
X-36179116Y60479975D01*
X-36118291Y60667174D01*
X-36087500Y60861578D01*
X-36087500Y61058423D01*
X-26904500Y61058423D01*
X-26904500Y60861578D01*
X-26873710Y60667174D01*
X-26812883Y60479971D01*
X-26723524Y60304595D01*
X-26607828Y60145354D01*
X-26468646Y60006172D01*
X-26309405Y59890476D01*
X-26226545Y59848257D01*
X-26134030Y59801118D01*
X-26134028Y59801118D01*
X-26134025Y59801116D01*
X-26033683Y59768513D01*
X-25946827Y59740291D01*
X-25752422Y59709500D01*
X-25752417Y59709500D01*
X-25555578Y59709500D01*
X-25361174Y59740291D01*
X-25173975Y59801116D01*
X-24998595Y59890476D01*
X-24839354Y60006172D01*
X-24700172Y60145354D01*
X-24584476Y60304595D01*
X-24495116Y60479975D01*
X-24434291Y60667174D01*
X-24403500Y60861578D01*
X-24403500Y61058423D01*
X-24434291Y61252827D01*
X-24495118Y61440030D01*
X-24584477Y61615406D01*
X-24700172Y61774646D01*
X-24839354Y61913828D01*
X-24998595Y62029524D01*
X-25173971Y62118883D01*
X-25361174Y62179710D01*
X-25555578Y62210500D01*
X-25555583Y62210500D01*
X-25752417Y62210500D01*
X-25752422Y62210500D01*
X-25946827Y62179710D01*
X-26134030Y62118883D01*
X-26309406Y62029524D01*
X-26400259Y61963515D01*
X-26468646Y61913828D01*
X-26468648Y61913826D01*
X-26468649Y61913826D01*
X-26607826Y61774649D01*
X-26607826Y61774648D01*
X-26607828Y61774646D01*
X-26657515Y61706259D01*
X-26723524Y61615406D01*
X-26812883Y61440030D01*
X-26873710Y61252827D01*
X-26904500Y61058423D01*
X-36087500Y61058423D01*
X-36118291Y61252827D01*
X-36179118Y61440030D01*
X-36268477Y61615406D01*
X-36384172Y61774646D01*
X-36523354Y61913828D01*
X-36682595Y62029524D01*
X-36857971Y62118883D01*
X-37045174Y62179710D01*
X-37239578Y62210500D01*
X-37239583Y62210500D01*
X-37436417Y62210500D01*
X-37436422Y62210500D01*
X-37630827Y62179710D01*
X-37818030Y62118883D01*
X-37993406Y62029524D01*
X-38084259Y61963515D01*
X-38152646Y61913828D01*
X-38152648Y61913826D01*
X-38152649Y61913826D01*
X-38291826Y61774649D01*
X-38291826Y61774648D01*
X-38291828Y61774646D01*
X-38341515Y61706259D01*
X-38407524Y61615406D01*
X-38496883Y61440030D01*
X-38557710Y61252827D01*
X-38588500Y61058423D01*
X-40389500Y61058423D01*
X-40389500Y65272520D01*
X-40389305Y65279472D01*
X-40379792Y65448867D01*
X-40372300Y65582280D01*
X-40370746Y65596075D01*
X-40320526Y65891648D01*
X-40317438Y65905179D01*
X-40234439Y66193277D01*
X-40229849Y66206391D01*
X-40115120Y66483370D01*
X-40109100Y66495870D01*
X-39964077Y66758271D01*
X-39956682Y66770039D01*
X-39783192Y67014552D01*
X-39774541Y67025399D01*
X-39574770Y67248941D01*
X-39564939Y67258771D01*
X-39341399Y67458541D01*
X-39330552Y67467192D01*
X-39086034Y67640686D01*
X-39074271Y67648077D01*
X-38811870Y67793100D01*
X-38799370Y67799120D01*
X-38522384Y67913852D01*
X-38509277Y67918439D01*
X-38221179Y68001438D01*
X-38207648Y68004526D01*
X-37912075Y68054746D01*
X-37898280Y68056300D01*
X-37629426Y68071399D01*
X-37595471Y68073305D01*
X-37588519Y68073500D01*
X-37547830Y68073500D01*
X-25444170Y68073500D01*
X-25403481Y68073500D01*
X-25396529Y68073305D01*
G37*
%TD.AperFunction*%
%TD*%
%TA.AperFunction,Conductor*%
%TO.N,GND*%
G36*
X55883471Y68073305D02*
G01*
X55920579Y68071222D01*
X56186277Y68056300D01*
X56200076Y68054746D01*
X56495643Y68004527D01*
X56509182Y68001437D01*
X56797270Y67918440D01*
X56810388Y67913850D01*
X57087362Y67799123D01*
X57099876Y67793097D01*
X57305708Y67679338D01*
X57362264Y67648080D01*
X57374038Y67640682D01*
X57471488Y67571538D01*
X57618542Y67467198D01*
X57629410Y67458530D01*
X57852938Y67258771D01*
X57862770Y67248939D01*
X58062529Y67025411D01*
X58071200Y67014539D01*
X58244681Y66770039D01*
X58252079Y66758265D01*
X58397092Y66495884D01*
X58403125Y66483356D01*
X58517848Y66206391D01*
X58522441Y66193266D01*
X58605433Y65905194D01*
X58608527Y65891637D01*
X58658743Y65596088D01*
X58660300Y65582270D01*
X58677305Y65279473D01*
X58677500Y65272520D01*
X58677500Y23877481D01*
X58677305Y23870528D01*
X58660300Y23567731D01*
X58658743Y23553913D01*
X58608527Y23258364D01*
X58605433Y23244807D01*
X58522441Y22956735D01*
X58517848Y22943610D01*
X58403125Y22666645D01*
X58397092Y22654117D01*
X58252079Y22391736D01*
X58244681Y22379962D01*
X58071200Y22135462D01*
X58062529Y22124590D01*
X57862770Y21901062D01*
X57852938Y21891230D01*
X57629410Y21691471D01*
X57618538Y21682800D01*
X57374038Y21509319D01*
X57362264Y21501921D01*
X57099883Y21356908D01*
X57087355Y21350875D01*
X56810390Y21236152D01*
X56797265Y21231559D01*
X56509193Y21148567D01*
X56495636Y21145473D01*
X56200087Y21095257D01*
X56186269Y21093700D01*
X55883472Y21076695D01*
X55876519Y21076500D01*
X55380127Y21076500D01*
X55363942Y21077561D01*
X55345286Y21080018D01*
X55288666Y21087472D01*
X55257401Y21095850D01*
X55194833Y21121766D01*
X55166800Y21137950D01*
X55152963Y21148567D01*
X55113066Y21179181D01*
X55090180Y21202067D01*
X55048948Y21255802D01*
X55032765Y21283834D01*
X55006849Y21346402D01*
X54998471Y21377669D01*
X54988561Y21452943D01*
X54987500Y21469128D01*
X54987500Y25652001D01*
X55486571Y25652001D01*
X55486571Y25652000D01*
X55506244Y25439690D01*
X55564596Y25234608D01*
X55564596Y25234606D01*
X55659632Y25043747D01*
X55659634Y25043745D01*
X55788128Y24873593D01*
X55945698Y24729948D01*
X56126981Y24617702D01*
X56325802Y24540679D01*
X56535390Y24501500D01*
X56535392Y24501500D01*
X56748608Y24501500D01*
X56748610Y24501500D01*
X56958198Y24540679D01*
X57157019Y24617702D01*
X57338302Y24729948D01*
X57495872Y24873593D01*
X57624366Y25043745D01*
X57719405Y25234611D01*
X57777756Y25439690D01*
X57797429Y25652000D01*
X57777756Y25864310D01*
X57719405Y26069389D01*
X57719403Y26069394D01*
X57719403Y26069395D01*
X57624367Y26260254D01*
X57495872Y26430407D01*
X57338302Y26574052D01*
X57157019Y26686298D01*
X57157017Y26686299D01*
X57057608Y26724810D01*
X56958198Y26763321D01*
X56748610Y26802500D01*
X56535390Y26802500D01*
X56325802Y26763321D01*
X56325799Y26763321D01*
X56325799Y26763320D01*
X56126982Y26686299D01*
X56126980Y26686298D01*
X55945699Y26574053D01*
X55788127Y26430407D01*
X55659632Y26260254D01*
X55564596Y26069395D01*
X55564596Y26069393D01*
X55506244Y25864311D01*
X55486571Y25652001D01*
X54987500Y25652001D01*
X54987500Y27758709D01*
X54958352Y27905241D01*
X54958351Y27905242D01*
X54958351Y27905246D01*
X54958349Y27905251D01*
X54901177Y28043278D01*
X54901170Y28043291D01*
X54818165Y28167516D01*
X54818162Y28167520D01*
X54712519Y28273163D01*
X54712515Y28273166D01*
X54588290Y28356171D01*
X54588277Y28356178D01*
X54450250Y28413350D01*
X54450240Y28413353D01*
X54303708Y28442500D01*
X54303706Y28442500D01*
X54278828Y28442500D01*
X45383170Y28442500D01*
X45339000Y28442500D01*
X45264294Y28442500D01*
X45264292Y28442500D01*
X45117759Y28413353D01*
X45117749Y28413350D01*
X44979722Y28356178D01*
X44979709Y28356171D01*
X44855484Y28273166D01*
X44855480Y28273163D01*
X44749837Y28167520D01*
X44749834Y28167516D01*
X44666829Y28043291D01*
X44666822Y28043278D01*
X44609650Y27905251D01*
X44609647Y27905241D01*
X44580500Y27758709D01*
X44580500Y21469128D01*
X44579439Y21452941D01*
X44569528Y21377667D01*
X44561150Y21346402D01*
X44535234Y21283834D01*
X44519050Y21255801D01*
X44477822Y21202070D01*
X44454930Y21179178D01*
X44401199Y21137950D01*
X44373166Y21121766D01*
X44310598Y21095850D01*
X44279333Y21087472D01*
X44219507Y21079595D01*
X44204057Y21077561D01*
X44187873Y21076500D01*
X43691481Y21076500D01*
X43684528Y21076695D01*
X43381730Y21093700D01*
X43367912Y21095257D01*
X43072363Y21145473D01*
X43058806Y21148567D01*
X42770734Y21231559D01*
X42757609Y21236152D01*
X42480644Y21350875D01*
X42468116Y21356908D01*
X42205735Y21501921D01*
X42193961Y21509319D01*
X41949461Y21682800D01*
X41938589Y21691471D01*
X41715061Y21891230D01*
X41705229Y21901062D01*
X41505470Y22124590D01*
X41496799Y22135462D01*
X41323318Y22379962D01*
X41315920Y22391736D01*
X41170907Y22654117D01*
X41164877Y22666638D01*
X41050150Y22943612D01*
X41045558Y22956735D01*
X41027587Y23019114D01*
X40962563Y23244818D01*
X40959472Y23258364D01*
X40909254Y23553924D01*
X40907700Y23567723D01*
X40890695Y23870529D01*
X40890500Y23877481D01*
X40890500Y25652001D01*
X41770571Y25652001D01*
X41770571Y25652000D01*
X41790244Y25439690D01*
X41848596Y25234608D01*
X41848596Y25234606D01*
X41943632Y25043747D01*
X41943634Y25043745D01*
X42072128Y24873593D01*
X42229698Y24729948D01*
X42410981Y24617702D01*
X42609802Y24540679D01*
X42819390Y24501500D01*
X42819392Y24501500D01*
X43032608Y24501500D01*
X43032610Y24501500D01*
X43242198Y24540679D01*
X43441019Y24617702D01*
X43622302Y24729948D01*
X43779872Y24873593D01*
X43908366Y25043745D01*
X44003405Y25234611D01*
X44061756Y25439690D01*
X44081429Y25652000D01*
X44061756Y25864310D01*
X44003405Y26069389D01*
X44003403Y26069394D01*
X44003403Y26069395D01*
X43908367Y26260254D01*
X43779872Y26430407D01*
X43622302Y26574052D01*
X43441019Y26686298D01*
X43441017Y26686299D01*
X43341608Y26724810D01*
X43242198Y26763321D01*
X43032610Y26802500D01*
X42819390Y26802500D01*
X42609802Y26763321D01*
X42609799Y26763321D01*
X42609799Y26763320D01*
X42410982Y26686299D01*
X42410980Y26686298D01*
X42229699Y26574053D01*
X42072127Y26430407D01*
X41943632Y26260254D01*
X41848596Y26069395D01*
X41848596Y26069393D01*
X41790244Y25864311D01*
X41770571Y25652001D01*
X40890500Y25652001D01*
X40890500Y61046611D01*
X41825500Y61046611D01*
X41825500Y60873389D01*
X41852598Y60702299D01*
X41906127Y60537555D01*
X41984768Y60383212D01*
X42086586Y60243072D01*
X42209072Y60120586D01*
X42349212Y60018768D01*
X42503555Y59940127D01*
X42668299Y59886598D01*
X42839389Y59859500D01*
X42839390Y59859500D01*
X43012610Y59859500D01*
X43012611Y59859500D01*
X43183701Y59886598D01*
X43348445Y59940127D01*
X43502788Y60018768D01*
X43642928Y60120586D01*
X43765414Y60243072D01*
X43867232Y60383212D01*
X43945873Y60537555D01*
X43999402Y60702299D01*
X44026500Y60873389D01*
X44026500Y61046611D01*
X55541500Y61046611D01*
X55541500Y60873389D01*
X55568598Y60702299D01*
X55622127Y60537555D01*
X55700768Y60383212D01*
X55802586Y60243072D01*
X55925072Y60120586D01*
X56065212Y60018768D01*
X56219555Y59940127D01*
X56384299Y59886598D01*
X56555389Y59859500D01*
X56555390Y59859500D01*
X56728610Y59859500D01*
X56728611Y59859500D01*
X56899701Y59886598D01*
X57064445Y59940127D01*
X57218788Y60018768D01*
X57358928Y60120586D01*
X57481414Y60243072D01*
X57583232Y60383212D01*
X57661873Y60537555D01*
X57715402Y60702299D01*
X57742500Y60873389D01*
X57742500Y61046611D01*
X57715402Y61217701D01*
X57661873Y61382445D01*
X57583232Y61536788D01*
X57481414Y61676928D01*
X57358928Y61799414D01*
X57218788Y61901232D01*
X57064445Y61979873D01*
X56899701Y62033402D01*
X56899699Y62033403D01*
X56899698Y62033403D01*
X56768271Y62054219D01*
X56728611Y62060500D01*
X56555389Y62060500D01*
X56515728Y62054219D01*
X56384302Y62033403D01*
X56219552Y61979872D01*
X56065211Y61901232D01*
X55985256Y61843141D01*
X55925072Y61799414D01*
X55925070Y61799412D01*
X55925069Y61799412D01*
X55802588Y61676931D01*
X55802588Y61676930D01*
X55802586Y61676928D01*
X55758859Y61616744D01*
X55700768Y61536789D01*
X55622128Y61382448D01*
X55568597Y61217698D01*
X55541500Y61046611D01*
X44026500Y61046611D01*
X43999402Y61217701D01*
X43945873Y61382445D01*
X43867232Y61536788D01*
X43765414Y61676928D01*
X43642928Y61799414D01*
X43502788Y61901232D01*
X43348445Y61979873D01*
X43183701Y62033402D01*
X43183699Y62033403D01*
X43183698Y62033403D01*
X43052271Y62054219D01*
X43012611Y62060500D01*
X42839389Y62060500D01*
X42799728Y62054219D01*
X42668302Y62033403D01*
X42503552Y61979872D01*
X42349211Y61901232D01*
X42269256Y61843141D01*
X42209072Y61799414D01*
X42209070Y61799412D01*
X42209069Y61799412D01*
X42086588Y61676931D01*
X42086588Y61676930D01*
X42086586Y61676928D01*
X42042859Y61616744D01*
X41984768Y61536789D01*
X41906128Y61382448D01*
X41852597Y61217698D01*
X41825500Y61046611D01*
X40890500Y61046611D01*
X40890500Y65272520D01*
X40890695Y65279472D01*
X40900208Y65448867D01*
X40907700Y65582280D01*
X40909254Y65596075D01*
X40959474Y65891648D01*
X40962562Y65905179D01*
X41045561Y66193277D01*
X41050151Y66206391D01*
X41164880Y66483370D01*
X41170900Y66495870D01*
X41315923Y66758271D01*
X41323318Y66770039D01*
X41496808Y67014552D01*
X41505459Y67025399D01*
X41705230Y67248941D01*
X41715061Y67258771D01*
X41938601Y67458541D01*
X41949448Y67467192D01*
X42193966Y67640686D01*
X42205729Y67648077D01*
X42468130Y67793100D01*
X42480630Y67799120D01*
X42757616Y67913852D01*
X42770723Y67918439D01*
X43058821Y68001438D01*
X43072352Y68004526D01*
X43367925Y68054746D01*
X43381720Y68056300D01*
X43650574Y68071399D01*
X43684529Y68073305D01*
X43691481Y68073500D01*
X43732170Y68073500D01*
X55835830Y68073500D01*
X55876519Y68073500D01*
X55883471Y68073305D01*
G37*
%TD.AperFunction*%
%TD*%
%TA.AperFunction,Conductor*%
%TO.N,GND*%
G36*
X24263922Y68072721D02*
G01*
X24356935Y68062241D01*
X24384001Y68056064D01*
X24465746Y68027460D01*
X24490762Y68015412D01*
X24564086Y67969339D01*
X24585795Y67952027D01*
X24647026Y67890796D01*
X24664338Y67869087D01*
X24710411Y67795763D01*
X24722460Y67770745D01*
X24751062Y67689004D01*
X24757240Y67661934D01*
X24767720Y67568924D01*
X24768500Y67555040D01*
X24768500Y62780170D01*
X24768500Y62736000D01*
X24768500Y62661294D01*
X24768500Y62661292D01*
X24768499Y62661292D01*
X24797647Y62514760D01*
X24797650Y62514750D01*
X24854822Y62376723D01*
X24854829Y62376710D01*
X24937834Y62252485D01*
X24937837Y62252481D01*
X25043480Y62146838D01*
X25043484Y62146835D01*
X25167709Y62063830D01*
X25167722Y62063823D01*
X25305749Y62006651D01*
X25305754Y62006649D01*
X25305758Y62006649D01*
X25305759Y62006648D01*
X25452291Y61977500D01*
X25452294Y61977500D01*
X33475708Y61977500D01*
X33574292Y61997111D01*
X33622246Y62006649D01*
X33760284Y62063826D01*
X33884516Y62146835D01*
X33990165Y62252484D01*
X34073174Y62376716D01*
X34130351Y62514754D01*
X34159500Y62661294D01*
X34159500Y62736000D01*
X34159500Y62780170D01*
X34159500Y67555040D01*
X34160280Y67568923D01*
X34160280Y67568924D01*
X34170759Y67661938D01*
X34176935Y67689000D01*
X34205541Y67770751D01*
X34217588Y67795763D01*
X34263661Y67869087D01*
X34280969Y67890792D01*
X34342208Y67952031D01*
X34363913Y67969339D01*
X34437237Y68015412D01*
X34462249Y68027459D01*
X34544000Y68056065D01*
X34571062Y68062241D01*
X34664077Y68072721D01*
X34677960Y68073500D01*
X34715170Y68073500D01*
X35515830Y68073500D01*
X35556519Y68073500D01*
X35563471Y68073305D01*
X35600579Y68071222D01*
X35866277Y68056300D01*
X35880076Y68054746D01*
X36175643Y68004527D01*
X36189182Y68001437D01*
X36477270Y67918440D01*
X36490388Y67913850D01*
X36767362Y67799123D01*
X36779876Y67793097D01*
X36968218Y67689004D01*
X37042264Y67648080D01*
X37054038Y67640682D01*
X37151488Y67571538D01*
X37298542Y67467198D01*
X37309410Y67458530D01*
X37532938Y67258771D01*
X37542770Y67248939D01*
X37742529Y67025411D01*
X37751200Y67014539D01*
X37924681Y66770039D01*
X37932079Y66758265D01*
X38077092Y66495884D01*
X38083125Y66483356D01*
X38197848Y66206391D01*
X38202441Y66193266D01*
X38285433Y65905194D01*
X38288527Y65891637D01*
X38338743Y65596088D01*
X38340300Y65582270D01*
X38357305Y65279473D01*
X38357500Y65272520D01*
X38357500Y23877481D01*
X38357305Y23870528D01*
X38340300Y23567731D01*
X38338743Y23553913D01*
X38288527Y23258364D01*
X38285433Y23244807D01*
X38202441Y22956735D01*
X38197848Y22943610D01*
X38083125Y22666645D01*
X38077092Y22654117D01*
X37932079Y22391736D01*
X37924681Y22379962D01*
X37751200Y22135462D01*
X37742529Y22124590D01*
X37542770Y21901062D01*
X37532938Y21891230D01*
X37309410Y21691471D01*
X37298538Y21682800D01*
X37054038Y21509319D01*
X37042264Y21501921D01*
X36779883Y21356908D01*
X36767355Y21350875D01*
X36490390Y21236152D01*
X36477265Y21231559D01*
X36189193Y21148567D01*
X36175636Y21145473D01*
X35880087Y21095257D01*
X35866269Y21093700D01*
X35563472Y21076695D01*
X35556519Y21076500D01*
X35060127Y21076500D01*
X35043942Y21077561D01*
X35025286Y21080018D01*
X34968666Y21087472D01*
X34937401Y21095850D01*
X34874833Y21121766D01*
X34846800Y21137950D01*
X34832963Y21148567D01*
X34793066Y21179181D01*
X34770180Y21202067D01*
X34728948Y21255802D01*
X34712765Y21283834D01*
X34686849Y21346402D01*
X34678471Y21377669D01*
X34668561Y21452943D01*
X34667500Y21469128D01*
X34667500Y25652001D01*
X35166571Y25652001D01*
X35166571Y25652000D01*
X35186244Y25439690D01*
X35244596Y25234608D01*
X35244596Y25234606D01*
X35339632Y25043747D01*
X35468127Y24873594D01*
X35468128Y24873593D01*
X35625698Y24729948D01*
X35806981Y24617702D01*
X36005802Y24540679D01*
X36215390Y24501500D01*
X36215392Y24501500D01*
X36428608Y24501500D01*
X36428610Y24501500D01*
X36638198Y24540679D01*
X36837019Y24617702D01*
X37018302Y24729948D01*
X37175872Y24873593D01*
X37304366Y25043745D01*
X37399405Y25234611D01*
X37457756Y25439690D01*
X37477429Y25652000D01*
X37457756Y25864310D01*
X37399405Y26069389D01*
X37399403Y26069394D01*
X37399403Y26069395D01*
X37304367Y26260254D01*
X37175872Y26430407D01*
X37018302Y26574052D01*
X36837019Y26686298D01*
X36837017Y26686299D01*
X36737608Y26724810D01*
X36638198Y26763321D01*
X36428610Y26802500D01*
X36215390Y26802500D01*
X36005802Y26763321D01*
X36005799Y26763321D01*
X36005799Y26763320D01*
X35806982Y26686299D01*
X35806980Y26686298D01*
X35625699Y26574053D01*
X35468127Y26430407D01*
X35339632Y26260254D01*
X35244596Y26069395D01*
X35244596Y26069393D01*
X35186244Y25864311D01*
X35166571Y25652001D01*
X34667500Y25652001D01*
X34667500Y27758709D01*
X34638352Y27905241D01*
X34638351Y27905242D01*
X34638351Y27905246D01*
X34638349Y27905251D01*
X34581177Y28043278D01*
X34581170Y28043291D01*
X34498165Y28167516D01*
X34498162Y28167520D01*
X34392519Y28273163D01*
X34392515Y28273166D01*
X34268290Y28356171D01*
X34268277Y28356178D01*
X34130250Y28413350D01*
X34130240Y28413353D01*
X33983708Y28442500D01*
X33983706Y28442500D01*
X33958828Y28442500D01*
X25063170Y28442500D01*
X25019000Y28442500D01*
X24944294Y28442500D01*
X24944292Y28442500D01*
X24797759Y28413353D01*
X24797749Y28413350D01*
X24659722Y28356178D01*
X24659709Y28356171D01*
X24535484Y28273166D01*
X24535480Y28273163D01*
X24429837Y28167520D01*
X24429834Y28167516D01*
X24346829Y28043291D01*
X24346822Y28043278D01*
X24289650Y27905251D01*
X24289647Y27905241D01*
X24260500Y27758709D01*
X24260500Y21469128D01*
X24259439Y21452941D01*
X24249528Y21377667D01*
X24241150Y21346402D01*
X24215234Y21283834D01*
X24199050Y21255801D01*
X24157822Y21202070D01*
X24134930Y21179178D01*
X24081199Y21137950D01*
X24053166Y21121766D01*
X23990598Y21095850D01*
X23959333Y21087472D01*
X23899507Y21079595D01*
X23884057Y21077561D01*
X23867873Y21076500D01*
X23371481Y21076500D01*
X23364528Y21076695D01*
X23061730Y21093700D01*
X23047912Y21095257D01*
X22752363Y21145473D01*
X22738806Y21148567D01*
X22450734Y21231559D01*
X22437609Y21236152D01*
X22160644Y21350875D01*
X22148116Y21356908D01*
X21885735Y21501921D01*
X21873961Y21509319D01*
X21629461Y21682800D01*
X21618589Y21691471D01*
X21395061Y21891230D01*
X21385229Y21901062D01*
X21185470Y22124590D01*
X21176799Y22135462D01*
X21003318Y22379962D01*
X20995920Y22391736D01*
X20850907Y22654117D01*
X20844877Y22666638D01*
X20730150Y22943612D01*
X20725558Y22956735D01*
X20707587Y23019114D01*
X20642563Y23244818D01*
X20639472Y23258364D01*
X20589254Y23553924D01*
X20587700Y23567723D01*
X20570695Y23870529D01*
X20570500Y23877481D01*
X20570500Y25652001D01*
X21450571Y25652001D01*
X21450571Y25652000D01*
X21470244Y25439690D01*
X21528596Y25234608D01*
X21528596Y25234606D01*
X21623632Y25043747D01*
X21752127Y24873594D01*
X21752128Y24873593D01*
X21909698Y24729948D01*
X22090981Y24617702D01*
X22289802Y24540679D01*
X22499390Y24501500D01*
X22499392Y24501500D01*
X22712608Y24501500D01*
X22712610Y24501500D01*
X22922198Y24540679D01*
X23121019Y24617702D01*
X23302302Y24729948D01*
X23459872Y24873593D01*
X23588366Y25043745D01*
X23683405Y25234611D01*
X23741756Y25439690D01*
X23761429Y25652000D01*
X23741756Y25864310D01*
X23683405Y26069389D01*
X23683403Y26069394D01*
X23683403Y26069395D01*
X23588367Y26260254D01*
X23459872Y26430407D01*
X23302302Y26574052D01*
X23121019Y26686298D01*
X23121017Y26686299D01*
X23021608Y26724810D01*
X22922198Y26763321D01*
X22712610Y26802500D01*
X22499390Y26802500D01*
X22289802Y26763321D01*
X22289799Y26763321D01*
X22289799Y26763320D01*
X22090982Y26686299D01*
X22090980Y26686298D01*
X21909699Y26574053D01*
X21752127Y26430407D01*
X21623632Y26260254D01*
X21528596Y26069395D01*
X21528596Y26069393D01*
X21470244Y25864311D01*
X21450571Y25652001D01*
X20570500Y25652001D01*
X20570500Y31748000D01*
X23366400Y31748000D01*
X23386782Y31411034D01*
X23386782Y31411029D01*
X23386783Y31411028D01*
X23447635Y31078969D01*
X23447636Y31078965D01*
X23447637Y31078961D01*
X23548062Y30756686D01*
X23548066Y30756675D01*
X23548067Y30756672D01*
X23548069Y30756667D01*
X23686619Y30448820D01*
X23743794Y30354241D01*
X23861264Y30159920D01*
X23861270Y30159912D01*
X24069465Y29894171D01*
X24308170Y29655466D01*
X24573911Y29447271D01*
X24573919Y29447265D01*
X24645127Y29404219D01*
X24862820Y29272619D01*
X25170667Y29134069D01*
X25170677Y29134066D01*
X25170685Y29134063D01*
X25385535Y29067113D01*
X25492969Y29033635D01*
X25825028Y28972783D01*
X26162000Y28952400D01*
X26498972Y28972783D01*
X26831031Y29033635D01*
X27153333Y29134069D01*
X27461180Y29272619D01*
X27750082Y29447266D01*
X28015826Y29655463D01*
X28254537Y29894174D01*
X28462734Y30159918D01*
X28637381Y30448820D01*
X28775931Y30756667D01*
X28876365Y31078969D01*
X28937217Y31411028D01*
X28957600Y31748000D01*
X28937217Y32084972D01*
X28876365Y32417031D01*
X28842887Y32524465D01*
X28775937Y32739315D01*
X28775933Y32739326D01*
X28775931Y32739333D01*
X28637381Y33047180D01*
X28462734Y33336082D01*
X28438573Y33366921D01*
X28254534Y33601830D01*
X28015829Y33840535D01*
X27750088Y34048730D01*
X27750080Y34048736D01*
X27607663Y34134830D01*
X27461180Y34223381D01*
X27153333Y34361931D01*
X27153328Y34361933D01*
X27153325Y34361934D01*
X27153314Y34361938D01*
X26831039Y34462363D01*
X26831035Y34462364D01*
X26831031Y34462365D01*
X26498972Y34523217D01*
X26498971Y34523218D01*
X26498966Y34523218D01*
X26162000Y34543600D01*
X25825033Y34523218D01*
X25825028Y34523217D01*
X25492969Y34462365D01*
X25492966Y34462365D01*
X25492960Y34462363D01*
X25170685Y34361938D01*
X25170674Y34361934D01*
X24862824Y34223383D01*
X24862822Y34223382D01*
X24573919Y34048736D01*
X24573911Y34048730D01*
X24308170Y33840535D01*
X24069465Y33601830D01*
X23861270Y33336089D01*
X23861264Y33336081D01*
X23686618Y33047178D01*
X23686617Y33047176D01*
X23548066Y32739326D01*
X23548062Y32739315D01*
X23447637Y32417040D01*
X23447635Y32417034D01*
X23447635Y32417031D01*
X23398509Y32148963D01*
X23386782Y32084967D01*
X23366400Y31748000D01*
X20570500Y31748000D01*
X20570500Y35558000D01*
X29716400Y35558000D01*
X29736782Y35221034D01*
X29736782Y35221029D01*
X29736783Y35221028D01*
X29797635Y34888969D01*
X29797636Y34888965D01*
X29797637Y34888961D01*
X29898062Y34566686D01*
X29898066Y34566675D01*
X29898067Y34566672D01*
X29898069Y34566667D01*
X30036619Y34258820D01*
X30058043Y34223381D01*
X30211264Y33969920D01*
X30211270Y33969912D01*
X30419465Y33704171D01*
X30658170Y33465466D01*
X30923911Y33257271D01*
X30923919Y33257265D01*
X30995127Y33214219D01*
X31212820Y33082619D01*
X31520667Y32944069D01*
X31520677Y32944066D01*
X31520685Y32944063D01*
X31685354Y32892750D01*
X31842969Y32843635D01*
X32175028Y32782783D01*
X32512000Y32762400D01*
X32848972Y32782783D01*
X33181031Y32843635D01*
X33503333Y32944069D01*
X33811180Y33082619D01*
X34100082Y33257266D01*
X34365826Y33465463D01*
X34604537Y33704174D01*
X34812734Y33969918D01*
X34987381Y34258820D01*
X35125931Y34566667D01*
X35226365Y34888969D01*
X35287217Y35221028D01*
X35307600Y35558000D01*
X35287217Y35894972D01*
X35226365Y36227031D01*
X35192887Y36334465D01*
X35125937Y36549315D01*
X35125933Y36549326D01*
X35125931Y36549333D01*
X34987381Y36857180D01*
X34812734Y37146082D01*
X34788573Y37176921D01*
X34604534Y37411830D01*
X34365829Y37650535D01*
X34100088Y37858730D01*
X34100080Y37858736D01*
X33957663Y37944830D01*
X33811180Y38033381D01*
X33503333Y38171931D01*
X33503328Y38171933D01*
X33503325Y38171934D01*
X33503314Y38171938D01*
X33181039Y38272363D01*
X33181035Y38272364D01*
X33181031Y38272365D01*
X32848972Y38333217D01*
X32848971Y38333218D01*
X32848966Y38333218D01*
X32512000Y38353600D01*
X32175033Y38333218D01*
X32175028Y38333217D01*
X31842969Y38272365D01*
X31842966Y38272365D01*
X31842960Y38272363D01*
X31520685Y38171938D01*
X31520674Y38171934D01*
X31212824Y38033383D01*
X31212822Y38033382D01*
X30923919Y37858736D01*
X30923911Y37858730D01*
X30658170Y37650535D01*
X30419465Y37411830D01*
X30211270Y37146089D01*
X30211264Y37146081D01*
X30036618Y36857178D01*
X30036617Y36857176D01*
X29898066Y36549326D01*
X29898062Y36549315D01*
X29797637Y36227040D01*
X29797635Y36227034D01*
X29797635Y36227031D01*
X29748509Y35958963D01*
X29736782Y35894967D01*
X29716400Y35558000D01*
X20570500Y35558000D01*
X20570500Y39368000D01*
X23366400Y39368000D01*
X23386782Y39031034D01*
X23386782Y39031029D01*
X23386783Y39031028D01*
X23447635Y38698969D01*
X23447636Y38698965D01*
X23447637Y38698961D01*
X23548062Y38376686D01*
X23548066Y38376675D01*
X23548067Y38376672D01*
X23548069Y38376667D01*
X23686619Y38068820D01*
X23708043Y38033381D01*
X23861264Y37779920D01*
X23861270Y37779912D01*
X24069465Y37514171D01*
X24308170Y37275466D01*
X24573911Y37067271D01*
X24573919Y37067265D01*
X24645127Y37024219D01*
X24862820Y36892619D01*
X25170667Y36754069D01*
X25170677Y36754066D01*
X25170685Y36754063D01*
X25335354Y36702750D01*
X25492969Y36653635D01*
X25825028Y36592783D01*
X26162000Y36572400D01*
X26498972Y36592783D01*
X26831031Y36653635D01*
X27153333Y36754069D01*
X27461180Y36892619D01*
X27750082Y37067266D01*
X28015826Y37275463D01*
X28254537Y37514174D01*
X28462734Y37779918D01*
X28637381Y38068820D01*
X28775931Y38376667D01*
X28876365Y38698969D01*
X28937217Y39031028D01*
X28957600Y39368000D01*
X28937217Y39704972D01*
X28876365Y40037031D01*
X28842887Y40144465D01*
X28775937Y40359315D01*
X28775933Y40359326D01*
X28775931Y40359333D01*
X28637381Y40667180D01*
X28462734Y40956082D01*
X28438573Y40986921D01*
X28254534Y41221830D01*
X28015829Y41460535D01*
X27750088Y41668730D01*
X27750080Y41668736D01*
X27607663Y41754830D01*
X27461180Y41843381D01*
X27153333Y41981931D01*
X27153328Y41981933D01*
X27153325Y41981934D01*
X27153314Y41981938D01*
X26831039Y42082363D01*
X26831035Y42082364D01*
X26831031Y42082365D01*
X26498972Y42143217D01*
X26498971Y42143218D01*
X26498966Y42143218D01*
X26162000Y42163600D01*
X25825033Y42143218D01*
X25825028Y42143217D01*
X25492969Y42082365D01*
X25492966Y42082365D01*
X25492960Y42082363D01*
X25170685Y41981938D01*
X25170674Y41981934D01*
X24862824Y41843383D01*
X24862822Y41843382D01*
X24573919Y41668736D01*
X24573911Y41668730D01*
X24308170Y41460535D01*
X24069465Y41221830D01*
X23861270Y40956089D01*
X23861264Y40956081D01*
X23686618Y40667178D01*
X23686617Y40667176D01*
X23548066Y40359326D01*
X23548062Y40359315D01*
X23447637Y40037040D01*
X23447635Y40037034D01*
X23447635Y40037031D01*
X23398509Y39768963D01*
X23386782Y39704967D01*
X23366400Y39368000D01*
X20570500Y39368000D01*
X20570500Y43178000D01*
X29716400Y43178000D01*
X29736782Y42841034D01*
X29736782Y42841029D01*
X29736783Y42841028D01*
X29797635Y42508969D01*
X29797636Y42508965D01*
X29797637Y42508961D01*
X29898062Y42186686D01*
X29898066Y42186675D01*
X29898067Y42186672D01*
X29898069Y42186667D01*
X30036619Y41878820D01*
X30058043Y41843381D01*
X30211264Y41589920D01*
X30211270Y41589912D01*
X30419465Y41324171D01*
X30658170Y41085466D01*
X30923911Y40877271D01*
X30923919Y40877265D01*
X30995127Y40834219D01*
X31212820Y40702619D01*
X31520667Y40564069D01*
X31520677Y40564066D01*
X31520685Y40564063D01*
X31685354Y40512750D01*
X31842969Y40463635D01*
X32175028Y40402783D01*
X32512000Y40382400D01*
X32848972Y40402783D01*
X33181031Y40463635D01*
X33503333Y40564069D01*
X33811180Y40702619D01*
X34100082Y40877266D01*
X34365826Y41085463D01*
X34604537Y41324174D01*
X34812734Y41589918D01*
X34987381Y41878820D01*
X35125931Y42186667D01*
X35226365Y42508969D01*
X35287217Y42841028D01*
X35307600Y43178000D01*
X35287217Y43514972D01*
X35226365Y43847031D01*
X35192887Y43954465D01*
X35125937Y44169315D01*
X35125933Y44169326D01*
X35125931Y44169333D01*
X34987381Y44477180D01*
X34812734Y44766082D01*
X34788573Y44796921D01*
X34604534Y45031830D01*
X34365829Y45270535D01*
X34100088Y45478730D01*
X34100080Y45478736D01*
X33957663Y45564830D01*
X33811180Y45653381D01*
X33503333Y45791931D01*
X33503328Y45791933D01*
X33503325Y45791934D01*
X33503314Y45791938D01*
X33181039Y45892363D01*
X33181035Y45892364D01*
X33181031Y45892365D01*
X32848972Y45953217D01*
X32848971Y45953218D01*
X32848966Y45953218D01*
X32512000Y45973600D01*
X32175033Y45953218D01*
X32175028Y45953217D01*
X31842969Y45892365D01*
X31842966Y45892365D01*
X31842960Y45892363D01*
X31520685Y45791938D01*
X31520674Y45791934D01*
X31212824Y45653383D01*
X31212822Y45653382D01*
X30923919Y45478736D01*
X30923911Y45478730D01*
X30658170Y45270535D01*
X30419465Y45031830D01*
X30211270Y44766089D01*
X30211264Y44766081D01*
X30036618Y44477178D01*
X30036617Y44477176D01*
X29898066Y44169326D01*
X29898062Y44169315D01*
X29797637Y43847040D01*
X29797635Y43847034D01*
X29797635Y43847031D01*
X29748509Y43578963D01*
X29736782Y43514967D01*
X29716400Y43178000D01*
X20570500Y43178000D01*
X20570500Y46988000D01*
X23366400Y46988000D01*
X23386782Y46651034D01*
X23386782Y46651029D01*
X23386783Y46651028D01*
X23447635Y46318969D01*
X23447636Y46318965D01*
X23447637Y46318961D01*
X23548062Y45996686D01*
X23548066Y45996675D01*
X23548067Y45996672D01*
X23548069Y45996667D01*
X23686619Y45688820D01*
X23708043Y45653381D01*
X23861264Y45399920D01*
X23861270Y45399912D01*
X24069465Y45134171D01*
X24308170Y44895466D01*
X24573911Y44687271D01*
X24573919Y44687265D01*
X24645127Y44644219D01*
X24862820Y44512619D01*
X25170667Y44374069D01*
X25170677Y44374066D01*
X25170685Y44374063D01*
X25335354Y44322750D01*
X25492969Y44273635D01*
X25825028Y44212783D01*
X26162000Y44192400D01*
X26498972Y44212783D01*
X26831031Y44273635D01*
X27153333Y44374069D01*
X27461180Y44512619D01*
X27750082Y44687266D01*
X28015826Y44895463D01*
X28254537Y45134174D01*
X28462734Y45399918D01*
X28637381Y45688820D01*
X28775931Y45996667D01*
X28876365Y46318969D01*
X28937217Y46651028D01*
X28957600Y46988000D01*
X28937217Y47324972D01*
X28876365Y47657031D01*
X28842887Y47764465D01*
X28775937Y47979315D01*
X28775933Y47979326D01*
X28775931Y47979333D01*
X28637381Y48287180D01*
X28462734Y48576082D01*
X28438573Y48606921D01*
X28254534Y48841830D01*
X28015829Y49080535D01*
X27750088Y49288730D01*
X27750080Y49288736D01*
X27607663Y49374830D01*
X27461180Y49463381D01*
X27153333Y49601931D01*
X27153328Y49601933D01*
X27153325Y49601934D01*
X27153314Y49601938D01*
X26831039Y49702363D01*
X26831035Y49702364D01*
X26831031Y49702365D01*
X26498972Y49763217D01*
X26498971Y49763218D01*
X26498966Y49763218D01*
X26162000Y49783600D01*
X25825033Y49763218D01*
X25825028Y49763217D01*
X25492969Y49702365D01*
X25492966Y49702365D01*
X25492960Y49702363D01*
X25170685Y49601938D01*
X25170674Y49601934D01*
X24862824Y49463383D01*
X24862822Y49463382D01*
X24573919Y49288736D01*
X24573911Y49288730D01*
X24308170Y49080535D01*
X24069465Y48841830D01*
X23861270Y48576089D01*
X23861264Y48576081D01*
X23686618Y48287178D01*
X23686617Y48287176D01*
X23548066Y47979326D01*
X23548062Y47979315D01*
X23447637Y47657040D01*
X23447635Y47657034D01*
X23447635Y47657031D01*
X23398509Y47388963D01*
X23386782Y47324967D01*
X23366400Y46988000D01*
X20570500Y46988000D01*
X20570500Y50798000D01*
X29716400Y50798000D01*
X29736782Y50461034D01*
X29736782Y50461029D01*
X29736783Y50461028D01*
X29797635Y50128969D01*
X29797636Y50128965D01*
X29797637Y50128961D01*
X29898062Y49806686D01*
X29898066Y49806675D01*
X29898067Y49806672D01*
X29898069Y49806667D01*
X30036619Y49498820D01*
X30058043Y49463381D01*
X30211264Y49209920D01*
X30211270Y49209912D01*
X30419465Y48944171D01*
X30658170Y48705466D01*
X30923911Y48497271D01*
X30923919Y48497265D01*
X30995127Y48454219D01*
X31212820Y48322619D01*
X31520667Y48184069D01*
X31520677Y48184066D01*
X31520685Y48184063D01*
X31685354Y48132750D01*
X31842969Y48083635D01*
X32175028Y48022783D01*
X32512000Y48002400D01*
X32848972Y48022783D01*
X33181031Y48083635D01*
X33503333Y48184069D01*
X33811180Y48322619D01*
X34100082Y48497266D01*
X34365826Y48705463D01*
X34604537Y48944174D01*
X34812734Y49209918D01*
X34987381Y49498820D01*
X35125931Y49806667D01*
X35226365Y50128969D01*
X35287217Y50461028D01*
X35307600Y50798000D01*
X35287217Y51134972D01*
X35226365Y51467031D01*
X35192887Y51574465D01*
X35125937Y51789315D01*
X35125933Y51789326D01*
X35125931Y51789333D01*
X34987381Y52097180D01*
X34812734Y52386082D01*
X34788573Y52416921D01*
X34604534Y52651830D01*
X34365829Y52890535D01*
X34100088Y53098730D01*
X34100080Y53098736D01*
X33957663Y53184830D01*
X33811180Y53273381D01*
X33503333Y53411931D01*
X33503328Y53411933D01*
X33503325Y53411934D01*
X33503314Y53411938D01*
X33181039Y53512363D01*
X33181035Y53512364D01*
X33181031Y53512365D01*
X32848972Y53573217D01*
X32848971Y53573218D01*
X32848966Y53573218D01*
X32512000Y53593600D01*
X32175033Y53573218D01*
X32175028Y53573217D01*
X31842969Y53512365D01*
X31842966Y53512365D01*
X31842960Y53512363D01*
X31520685Y53411938D01*
X31520674Y53411934D01*
X31212824Y53273383D01*
X31212822Y53273382D01*
X30923919Y53098736D01*
X30923911Y53098730D01*
X30658170Y52890535D01*
X30419465Y52651830D01*
X30211270Y52386089D01*
X30211264Y52386081D01*
X30036618Y52097178D01*
X30036617Y52097176D01*
X29898066Y51789326D01*
X29898062Y51789315D01*
X29797637Y51467040D01*
X29797635Y51467034D01*
X29797635Y51467031D01*
X29748509Y51198963D01*
X29736782Y51134967D01*
X29716400Y50798000D01*
X20570500Y50798000D01*
X20570500Y54608000D01*
X23366400Y54608000D01*
X23386782Y54271034D01*
X23386782Y54271029D01*
X23386783Y54271028D01*
X23447635Y53938969D01*
X23447636Y53938965D01*
X23447637Y53938961D01*
X23548062Y53616686D01*
X23548066Y53616675D01*
X23548067Y53616672D01*
X23548069Y53616667D01*
X23686619Y53308820D01*
X23708043Y53273381D01*
X23861264Y53019920D01*
X23861270Y53019912D01*
X24069465Y52754171D01*
X24308170Y52515466D01*
X24573911Y52307271D01*
X24573919Y52307265D01*
X24645127Y52264219D01*
X24862820Y52132619D01*
X25170667Y51994069D01*
X25170677Y51994066D01*
X25170685Y51994063D01*
X25335354Y51942750D01*
X25492969Y51893635D01*
X25825028Y51832783D01*
X26162000Y51812400D01*
X26498972Y51832783D01*
X26831031Y51893635D01*
X27153333Y51994069D01*
X27461180Y52132619D01*
X27750082Y52307266D01*
X28015826Y52515463D01*
X28254537Y52754174D01*
X28462734Y53019918D01*
X28637381Y53308820D01*
X28775931Y53616667D01*
X28876365Y53938969D01*
X28937217Y54271028D01*
X28957600Y54608000D01*
X28937217Y54944972D01*
X28876365Y55277031D01*
X28842887Y55384465D01*
X28775937Y55599315D01*
X28775933Y55599326D01*
X28775931Y55599333D01*
X28637381Y55907180D01*
X28462734Y56196082D01*
X28438573Y56226921D01*
X28254534Y56461830D01*
X28015829Y56700535D01*
X27750088Y56908730D01*
X27750080Y56908736D01*
X27607663Y56994830D01*
X27461180Y57083381D01*
X27153333Y57221931D01*
X27153328Y57221933D01*
X27153325Y57221934D01*
X27153314Y57221938D01*
X26831039Y57322363D01*
X26831035Y57322364D01*
X26831031Y57322365D01*
X26498972Y57383217D01*
X26498971Y57383218D01*
X26498966Y57383218D01*
X26162000Y57403600D01*
X25825033Y57383218D01*
X25825028Y57383217D01*
X25492969Y57322365D01*
X25492966Y57322365D01*
X25492960Y57322363D01*
X25170685Y57221938D01*
X25170674Y57221934D01*
X24862824Y57083383D01*
X24862822Y57083382D01*
X24573919Y56908736D01*
X24573911Y56908730D01*
X24308170Y56700535D01*
X24069465Y56461830D01*
X23861270Y56196089D01*
X23861264Y56196081D01*
X23686618Y55907178D01*
X23686617Y55907176D01*
X23548066Y55599326D01*
X23548062Y55599315D01*
X23447637Y55277040D01*
X23447635Y55277034D01*
X23447635Y55277031D01*
X23398509Y55008963D01*
X23386782Y54944967D01*
X23366400Y54608000D01*
X20570500Y54608000D01*
X20570500Y58418000D01*
X29716400Y58418000D01*
X29736782Y58081034D01*
X29736782Y58081029D01*
X29736783Y58081028D01*
X29797635Y57748969D01*
X29797636Y57748965D01*
X29797637Y57748961D01*
X29898062Y57426686D01*
X29898066Y57426675D01*
X29898067Y57426672D01*
X29898069Y57426667D01*
X30036619Y57118820D01*
X30058043Y57083381D01*
X30211264Y56829920D01*
X30211270Y56829912D01*
X30419465Y56564171D01*
X30658170Y56325466D01*
X30923911Y56117271D01*
X30923919Y56117265D01*
X30995127Y56074219D01*
X31212820Y55942619D01*
X31520667Y55804069D01*
X31520677Y55804066D01*
X31520685Y55804063D01*
X31685354Y55752750D01*
X31842969Y55703635D01*
X32175028Y55642783D01*
X32512000Y55622400D01*
X32848972Y55642783D01*
X33181031Y55703635D01*
X33503333Y55804069D01*
X33811180Y55942619D01*
X34100082Y56117266D01*
X34365826Y56325463D01*
X34604537Y56564174D01*
X34812734Y56829918D01*
X34987381Y57118820D01*
X35125931Y57426667D01*
X35226365Y57748969D01*
X35287217Y58081028D01*
X35307600Y58418000D01*
X35287217Y58754972D01*
X35226365Y59087031D01*
X35192887Y59194465D01*
X35125937Y59409315D01*
X35125933Y59409326D01*
X35125931Y59409333D01*
X34987381Y59717180D01*
X34812734Y60006082D01*
X34788573Y60036921D01*
X34604534Y60271830D01*
X34365829Y60510535D01*
X34100088Y60718730D01*
X34100080Y60718736D01*
X33957663Y60804830D01*
X33811180Y60893381D01*
X33663156Y60960001D01*
X35166571Y60960001D01*
X35166571Y60960000D01*
X35186244Y60747690D01*
X35244596Y60542608D01*
X35244596Y60542606D01*
X35339632Y60351747D01*
X35428263Y60234382D01*
X35468128Y60181593D01*
X35625698Y60037948D01*
X35806981Y59925702D01*
X36005802Y59848679D01*
X36215390Y59809500D01*
X36215392Y59809500D01*
X36428608Y59809500D01*
X36428610Y59809500D01*
X36638198Y59848679D01*
X36837019Y59925702D01*
X37018302Y60037948D01*
X37175872Y60181593D01*
X37304366Y60351745D01*
X37341077Y60425472D01*
X37399403Y60542606D01*
X37399403Y60542607D01*
X37399405Y60542611D01*
X37457756Y60747690D01*
X37477429Y60960000D01*
X37457756Y61172310D01*
X37399405Y61377389D01*
X37399403Y61377394D01*
X37399403Y61377395D01*
X37304367Y61568254D01*
X37175872Y61738407D01*
X37018302Y61882052D01*
X36837019Y61994298D01*
X36837017Y61994299D01*
X36737608Y62032810D01*
X36638198Y62071321D01*
X36428610Y62110500D01*
X36215390Y62110500D01*
X36005802Y62071321D01*
X36005799Y62071321D01*
X36005799Y62071320D01*
X35806982Y61994299D01*
X35806980Y61994298D01*
X35625699Y61882053D01*
X35468127Y61738407D01*
X35339632Y61568254D01*
X35244596Y61377395D01*
X35244596Y61377393D01*
X35186244Y61172311D01*
X35166571Y60960001D01*
X33663156Y60960001D01*
X33503333Y61031931D01*
X33503328Y61031933D01*
X33503325Y61031934D01*
X33503314Y61031938D01*
X33181039Y61132363D01*
X33181035Y61132364D01*
X33181031Y61132365D01*
X32848972Y61193217D01*
X32848971Y61193218D01*
X32848966Y61193218D01*
X32512000Y61213600D01*
X32175033Y61193218D01*
X32175028Y61193217D01*
X31842969Y61132365D01*
X31842966Y61132365D01*
X31842960Y61132363D01*
X31520685Y61031938D01*
X31520674Y61031934D01*
X31212824Y60893383D01*
X31212822Y60893382D01*
X30923919Y60718736D01*
X30923911Y60718730D01*
X30658170Y60510535D01*
X30419465Y60271830D01*
X30211270Y60006089D01*
X30211264Y60006081D01*
X30036618Y59717178D01*
X30036617Y59717176D01*
X29898066Y59409326D01*
X29898062Y59409315D01*
X29797637Y59087040D01*
X29797635Y59087034D01*
X29797635Y59087031D01*
X29748509Y58818963D01*
X29736782Y58754967D01*
X29716400Y58418000D01*
X20570500Y58418000D01*
X20570500Y60960001D01*
X21450571Y60960001D01*
X21450571Y60960000D01*
X21470244Y60747690D01*
X21528596Y60542608D01*
X21528596Y60542606D01*
X21623632Y60351747D01*
X21712263Y60234382D01*
X21752128Y60181593D01*
X21909698Y60037948D01*
X22090981Y59925702D01*
X22289802Y59848679D01*
X22499390Y59809500D01*
X22499392Y59809500D01*
X22712608Y59809500D01*
X22712610Y59809500D01*
X22922198Y59848679D01*
X23121019Y59925702D01*
X23302302Y60037948D01*
X23459872Y60181593D01*
X23588366Y60351745D01*
X23625077Y60425472D01*
X23683403Y60542606D01*
X23683403Y60542607D01*
X23683405Y60542611D01*
X23741756Y60747690D01*
X23761429Y60960000D01*
X23741756Y61172310D01*
X23683405Y61377389D01*
X23683403Y61377394D01*
X23683403Y61377395D01*
X23588367Y61568254D01*
X23459872Y61738407D01*
X23302302Y61882052D01*
X23121019Y61994298D01*
X23121017Y61994299D01*
X23021608Y62032810D01*
X22922198Y62071321D01*
X22712610Y62110500D01*
X22499390Y62110500D01*
X22289802Y62071321D01*
X22289799Y62071321D01*
X22289799Y62071320D01*
X22090982Y61994299D01*
X22090980Y61994298D01*
X21909699Y61882053D01*
X21752127Y61738407D01*
X21623632Y61568254D01*
X21528596Y61377395D01*
X21528596Y61377393D01*
X21470244Y61172311D01*
X21450571Y60960001D01*
X20570500Y60960001D01*
X20570500Y65272520D01*
X20570695Y65279472D01*
X20580208Y65448867D01*
X20587700Y65582280D01*
X20589254Y65596075D01*
X20639474Y65891648D01*
X20642562Y65905179D01*
X20725561Y66193277D01*
X20730151Y66206391D01*
X20844880Y66483370D01*
X20850900Y66495870D01*
X20995923Y66758271D01*
X21003318Y66770039D01*
X21176808Y67014552D01*
X21185459Y67025399D01*
X21385230Y67248941D01*
X21395061Y67258771D01*
X21618601Y67458541D01*
X21629448Y67467192D01*
X21873966Y67640686D01*
X21885729Y67648077D01*
X22148130Y67793100D01*
X22160630Y67799120D01*
X22437616Y67913852D01*
X22450723Y67918439D01*
X22738821Y68001438D01*
X22752352Y68004526D01*
X23047925Y68054746D01*
X23061720Y68056300D01*
X23330574Y68071399D01*
X23364529Y68073305D01*
X23371481Y68073500D01*
X23412170Y68073500D01*
X24212830Y68073500D01*
X24250040Y68073500D01*
X24263922Y68072721D01*
G37*
%TD.AperFunction*%
%TD*%
%TA.AperFunction,Conductor*%
%TO.N,GND*%
G36*
X-16376079Y68072721D02*
G01*
X-16283070Y68062241D01*
X-16256000Y68056063D01*
X-16174257Y68027460D01*
X-16149239Y68015412D01*
X-16075917Y67969341D01*
X-16054208Y67952028D01*
X-15992974Y67890794D01*
X-15975661Y67869085D01*
X-15929590Y67795764D01*
X-15917542Y67770746D01*
X-15888939Y67689003D01*
X-15882761Y67661934D01*
X-15872281Y67568934D01*
X-15871501Y67555049D01*
X-15871500Y62272170D01*
X-15871500Y62228000D01*
X-15871500Y62153294D01*
X-15871500Y62153292D01*
X-15871501Y62153292D01*
X-15842353Y62006760D01*
X-15842350Y62006750D01*
X-15785178Y61868723D01*
X-15785171Y61868710D01*
X-15702166Y61744485D01*
X-15702163Y61744481D01*
X-15596520Y61638838D01*
X-15596516Y61638835D01*
X-15472291Y61555830D01*
X-15472278Y61555823D01*
X-15334251Y61498651D01*
X-15334246Y61498649D01*
X-15334242Y61498649D01*
X-15334241Y61498648D01*
X-15187709Y61469500D01*
X-15187706Y61469500D01*
X-7164292Y61469500D01*
X-7065708Y61489111D01*
X-7017754Y61498649D01*
X-6879716Y61555826D01*
X-6755484Y61638835D01*
X-6649835Y61744484D01*
X-6566826Y61868716D01*
X-6509649Y62006754D01*
X-6480500Y62153294D01*
X-6480500Y62228000D01*
X-6480500Y62272170D01*
X-6480500Y67555049D01*
X-6479720Y67568924D01*
X-6479719Y67568934D01*
X-6469241Y67661937D01*
X-6463063Y67689003D01*
X-6434459Y67770751D01*
X-6422412Y67795763D01*
X-6376339Y67869087D01*
X-6359031Y67890792D01*
X-6297792Y67952031D01*
X-6276087Y67969339D01*
X-6202763Y68015412D01*
X-6177751Y68027459D01*
X-6096000Y68056065D01*
X-6068938Y68062241D01*
X-5975923Y68072721D01*
X-5962040Y68073500D01*
X-5924830Y68073500D01*
X-5124170Y68073500D01*
X-5083481Y68073500D01*
X-5076529Y68073305D01*
X-5039421Y68071222D01*
X-4773723Y68056300D01*
X-4759924Y68054746D01*
X-4464357Y68004527D01*
X-4450818Y68001437D01*
X-4162730Y67918440D01*
X-4149612Y67913850D01*
X-3872638Y67799123D01*
X-3860124Y67793097D01*
X-3671782Y67689004D01*
X-3597736Y67648080D01*
X-3585962Y67640682D01*
X-3488512Y67571538D01*
X-3341458Y67467198D01*
X-3330590Y67458530D01*
X-3107062Y67258771D01*
X-3097230Y67248939D01*
X-2897471Y67025411D01*
X-2888800Y67014539D01*
X-2715319Y66770039D01*
X-2707921Y66758265D01*
X-2562908Y66495884D01*
X-2556875Y66483356D01*
X-2442152Y66206391D01*
X-2437559Y66193266D01*
X-2354567Y65905194D01*
X-2351473Y65891637D01*
X-2301257Y65596088D01*
X-2299700Y65582270D01*
X-2282695Y65279473D01*
X-2282500Y65272520D01*
X-2282500Y61892328D01*
X-2302185Y61825289D01*
X-2354989Y61779534D01*
X-2424147Y61769590D01*
X-2487703Y61798615D01*
X-2515332Y61832901D01*
X-2630771Y62044310D01*
X-2630776Y62044318D01*
X-2802255Y62273388D01*
X-2802271Y62273406D01*
X-3004595Y62475730D01*
X-3004613Y62475746D01*
X-3233683Y62647225D01*
X-3233691Y62647230D01*
X-3484834Y62784365D01*
X-3484833Y62784365D01*
X-3592085Y62824368D01*
X-3752954Y62884369D01*
X-3752957Y62884370D01*
X-3752963Y62884372D01*
X-4032567Y62945196D01*
X-4317999Y62965610D01*
X-4318001Y62965610D01*
X-4603434Y62945196D01*
X-4883038Y62884372D01*
X-5151167Y62784365D01*
X-5402310Y62647230D01*
X-5402318Y62647225D01*
X-5631388Y62475746D01*
X-5631406Y62475730D01*
X-5833730Y62273406D01*
X-5833746Y62273388D01*
X-6005225Y62044318D01*
X-6005230Y62044310D01*
X-6142365Y61793167D01*
X-6242372Y61525038D01*
X-6303196Y61245434D01*
X-6323610Y60960002D01*
X-6323610Y60959999D01*
X-6303196Y60674567D01*
X-6242372Y60394963D01*
X-6142365Y60126834D01*
X-6005230Y59875691D01*
X-6005225Y59875683D01*
X-5833746Y59646613D01*
X-5833730Y59646595D01*
X-5631406Y59444271D01*
X-5631388Y59444255D01*
X-5402318Y59272776D01*
X-5402310Y59272771D01*
X-5151167Y59135636D01*
X-5151168Y59135636D01*
X-5151164Y59135635D01*
X-5151161Y59135633D01*
X-4883046Y59035631D01*
X-4883040Y59035630D01*
X-4883038Y59035629D01*
X-4603434Y58974805D01*
X-4603432Y58974805D01*
X-4603428Y58974804D01*
X-4349780Y58956663D01*
X-4318001Y58954390D01*
X-4318000Y58954390D01*
X-4317999Y58954390D01*
X-4289405Y58956436D01*
X-4032572Y58974804D01*
X-3752954Y59035631D01*
X-3484839Y59135633D01*
X-3233685Y59272774D01*
X-3004605Y59444261D01*
X-2802261Y59646605D01*
X-2630774Y59875685D01*
X-2515332Y60087100D01*
X-2465927Y60136505D01*
X-2397654Y60151357D01*
X-2332189Y60126940D01*
X-2290318Y60071006D01*
X-2282500Y60027673D01*
X-2282500Y26584328D01*
X-2302185Y26517289D01*
X-2354989Y26471534D01*
X-2424147Y26461590D01*
X-2487703Y26490615D01*
X-2515332Y26524901D01*
X-2630771Y26736310D01*
X-2630776Y26736318D01*
X-2802255Y26965388D01*
X-2802271Y26965406D01*
X-3004595Y27167730D01*
X-3004613Y27167746D01*
X-3233683Y27339225D01*
X-3233691Y27339230D01*
X-3484834Y27476365D01*
X-3484833Y27476365D01*
X-3592085Y27516368D01*
X-3752954Y27576369D01*
X-3752957Y27576370D01*
X-3752963Y27576372D01*
X-4032567Y27637196D01*
X-4317999Y27657610D01*
X-4318001Y27657610D01*
X-4603434Y27637196D01*
X-4883038Y27576372D01*
X-5151167Y27476365D01*
X-5402310Y27339230D01*
X-5402318Y27339225D01*
X-5631388Y27167746D01*
X-5631406Y27167730D01*
X-5833730Y26965406D01*
X-5833746Y26965388D01*
X-6005225Y26736318D01*
X-6005230Y26736310D01*
X-6142365Y26485167D01*
X-6242372Y26217038D01*
X-6303196Y25937434D01*
X-6323610Y25652002D01*
X-6323610Y25651999D01*
X-6303196Y25366567D01*
X-6242372Y25086963D01*
X-6142365Y24818834D01*
X-6005230Y24567691D01*
X-6005225Y24567683D01*
X-5833746Y24338613D01*
X-5833730Y24338595D01*
X-5631406Y24136271D01*
X-5631388Y24136255D01*
X-5402318Y23964776D01*
X-5402310Y23964771D01*
X-5151167Y23827636D01*
X-5151168Y23827636D01*
X-5151164Y23827635D01*
X-5151161Y23827633D01*
X-4883046Y23727631D01*
X-4883040Y23727630D01*
X-4883038Y23727629D01*
X-4603434Y23666805D01*
X-4603432Y23666805D01*
X-4603428Y23666804D01*
X-4349780Y23648663D01*
X-4318001Y23646390D01*
X-4318000Y23646390D01*
X-4317999Y23646390D01*
X-4289405Y23648436D01*
X-4032572Y23666804D01*
X-3874763Y23701133D01*
X-3752963Y23727629D01*
X-3752963Y23727630D01*
X-3752954Y23727631D01*
X-3484839Y23827633D01*
X-3233685Y23964774D01*
X-3004605Y24136261D01*
X-2802261Y24338605D01*
X-2630774Y24567685D01*
X-2515332Y24779100D01*
X-2465927Y24828505D01*
X-2397654Y24843357D01*
X-2332189Y24818940D01*
X-2290318Y24763006D01*
X-2282500Y24719673D01*
X-2282500Y23877481D01*
X-2282695Y23870528D01*
X-2299700Y23567731D01*
X-2301257Y23553913D01*
X-2351473Y23258364D01*
X-2354567Y23244807D01*
X-2437559Y22956735D01*
X-2442152Y22943610D01*
X-2556875Y22666645D01*
X-2562908Y22654117D01*
X-2707921Y22391736D01*
X-2715319Y22379962D01*
X-2888800Y22135462D01*
X-2897471Y22124590D01*
X-3097230Y21901062D01*
X-3107062Y21891230D01*
X-3330590Y21691471D01*
X-3341462Y21682800D01*
X-3585962Y21509319D01*
X-3597736Y21501921D01*
X-3860117Y21356908D01*
X-3872645Y21350875D01*
X-4149610Y21236152D01*
X-4162735Y21231559D01*
X-4450807Y21148567D01*
X-4464364Y21145473D01*
X-4759913Y21095257D01*
X-4773731Y21093700D01*
X-5076528Y21076695D01*
X-5083481Y21076500D01*
X-17268519Y21076500D01*
X-17275472Y21076695D01*
X-17578270Y21093700D01*
X-17592088Y21095257D01*
X-17887637Y21145473D01*
X-17901194Y21148567D01*
X-18189266Y21231559D01*
X-18202391Y21236152D01*
X-18479356Y21350875D01*
X-18491884Y21356908D01*
X-18754265Y21501921D01*
X-18766039Y21509319D01*
X-19010539Y21682800D01*
X-19021411Y21691471D01*
X-19244939Y21891230D01*
X-19254771Y21901062D01*
X-19454530Y22124590D01*
X-19463201Y22135462D01*
X-19636682Y22379962D01*
X-19644080Y22391736D01*
X-19789093Y22654117D01*
X-19795123Y22666638D01*
X-19909850Y22943612D01*
X-19914442Y22956735D01*
X-19932413Y23019114D01*
X-19997437Y23244818D01*
X-20000528Y23258364D01*
X-20050746Y23553924D01*
X-20052300Y23567723D01*
X-20069305Y23870529D01*
X-20069500Y23877481D01*
X-20069500Y24719673D01*
X-20049815Y24786712D01*
X-19997011Y24832467D01*
X-19927853Y24842411D01*
X-19864297Y24813386D01*
X-19836668Y24779100D01*
X-19721230Y24567691D01*
X-19721225Y24567683D01*
X-19549746Y24338613D01*
X-19549730Y24338595D01*
X-19347406Y24136271D01*
X-19347388Y24136255D01*
X-19118318Y23964776D01*
X-19118310Y23964771D01*
X-18867167Y23827636D01*
X-18867168Y23827636D01*
X-18867164Y23827635D01*
X-18867161Y23827633D01*
X-18599046Y23727631D01*
X-18599040Y23727630D01*
X-18599038Y23727629D01*
X-18319434Y23666805D01*
X-18319432Y23666805D01*
X-18319428Y23666804D01*
X-18065780Y23648663D01*
X-18034001Y23646390D01*
X-18034000Y23646390D01*
X-18033999Y23646390D01*
X-18005405Y23648436D01*
X-17748572Y23666804D01*
X-17590763Y23701133D01*
X-17468963Y23727629D01*
X-17468963Y23727630D01*
X-17468954Y23727631D01*
X-17200839Y23827633D01*
X-16949685Y23964774D01*
X-16720605Y24136261D01*
X-16518261Y24338605D01*
X-16346774Y24567685D01*
X-16209633Y24818839D01*
X-16109631Y25086954D01*
X-16048804Y25366572D01*
X-16028390Y25652000D01*
X-16048804Y25937428D01*
X-16092629Y26138887D01*
X-16109629Y26217038D01*
X-16109630Y26217040D01*
X-16109631Y26217046D01*
X-16209633Y26485161D01*
X-16231333Y26524901D01*
X-16346771Y26736310D01*
X-16346776Y26736318D01*
X-16518255Y26965388D01*
X-16518271Y26965406D01*
X-16720595Y27167730D01*
X-16720613Y27167746D01*
X-16949683Y27339225D01*
X-16949691Y27339230D01*
X-17200834Y27476365D01*
X-17200833Y27476365D01*
X-17308085Y27516368D01*
X-17468954Y27576369D01*
X-17468957Y27576370D01*
X-17468963Y27576372D01*
X-17748567Y27637196D01*
X-18033999Y27657610D01*
X-18034001Y27657610D01*
X-18319434Y27637196D01*
X-18599038Y27576372D01*
X-18867167Y27476365D01*
X-19118310Y27339230D01*
X-19118318Y27339225D01*
X-19347388Y27167746D01*
X-19347406Y27167730D01*
X-19549730Y26965406D01*
X-19549746Y26965388D01*
X-19721225Y26736318D01*
X-19721230Y26736310D01*
X-19836668Y26524901D01*
X-19886073Y26475496D01*
X-19954346Y26460644D01*
X-20019811Y26485061D01*
X-20061682Y26540995D01*
X-20069500Y26584328D01*
X-20069500Y60027673D01*
X-20049815Y60094712D01*
X-19997011Y60140467D01*
X-19927853Y60150411D01*
X-19864297Y60121386D01*
X-19836668Y60087100D01*
X-19721230Y59875691D01*
X-19721225Y59875683D01*
X-19549746Y59646613D01*
X-19549730Y59646595D01*
X-19347406Y59444271D01*
X-19347388Y59444255D01*
X-19118318Y59272776D01*
X-19118310Y59272771D01*
X-18867167Y59135636D01*
X-18867168Y59135636D01*
X-18867164Y59135635D01*
X-18867161Y59135633D01*
X-18599046Y59035631D01*
X-18599040Y59035630D01*
X-18599038Y59035629D01*
X-18319434Y58974805D01*
X-18319432Y58974805D01*
X-18319428Y58974804D01*
X-18065780Y58956663D01*
X-18034001Y58954390D01*
X-18034000Y58954390D01*
X-18033999Y58954390D01*
X-18005405Y58956436D01*
X-17748572Y58974804D01*
X-17468954Y59035631D01*
X-17200839Y59135633D01*
X-16949685Y59272774D01*
X-16720605Y59444261D01*
X-16518261Y59646605D01*
X-16346774Y59875685D01*
X-16209633Y60126839D01*
X-16109631Y60394954D01*
X-16048804Y60674572D01*
X-16028390Y60960000D01*
X-16048804Y61245428D01*
X-16092629Y61446887D01*
X-16109629Y61525038D01*
X-16109630Y61525040D01*
X-16109631Y61525046D01*
X-16209633Y61793161D01*
X-16231333Y61832901D01*
X-16346771Y62044310D01*
X-16346776Y62044318D01*
X-16518255Y62273388D01*
X-16518271Y62273406D01*
X-16720595Y62475730D01*
X-16720613Y62475746D01*
X-16949683Y62647225D01*
X-16949691Y62647230D01*
X-17200834Y62784365D01*
X-17200833Y62784365D01*
X-17308085Y62824368D01*
X-17468954Y62884369D01*
X-17468957Y62884370D01*
X-17468963Y62884372D01*
X-17748567Y62945196D01*
X-18033999Y62965610D01*
X-18034001Y62965610D01*
X-18319434Y62945196D01*
X-18599038Y62884372D01*
X-18867167Y62784365D01*
X-19118310Y62647230D01*
X-19118318Y62647225D01*
X-19347388Y62475746D01*
X-19347406Y62475730D01*
X-19549730Y62273406D01*
X-19549746Y62273388D01*
X-19721225Y62044318D01*
X-19721230Y62044310D01*
X-19836668Y61832901D01*
X-19886073Y61783496D01*
X-19954346Y61768644D01*
X-20019811Y61793061D01*
X-20061682Y61848995D01*
X-20069500Y61892328D01*
X-20069500Y65272520D01*
X-20069305Y65279472D01*
X-20059792Y65448867D01*
X-20052300Y65582280D01*
X-20050746Y65596075D01*
X-20000526Y65891648D01*
X-19997438Y65905179D01*
X-19914439Y66193277D01*
X-19909849Y66206391D01*
X-19795120Y66483370D01*
X-19789100Y66495870D01*
X-19644077Y66758271D01*
X-19636682Y66770039D01*
X-19463192Y67014552D01*
X-19454541Y67025399D01*
X-19254770Y67248941D01*
X-19244939Y67258771D01*
X-19021399Y67458541D01*
X-19010552Y67467192D01*
X-18766034Y67640686D01*
X-18754271Y67648077D01*
X-18491870Y67793100D01*
X-18479370Y67799120D01*
X-18202384Y67913852D01*
X-18189277Y67918439D01*
X-17901179Y68001438D01*
X-17887648Y68004526D01*
X-17592075Y68054746D01*
X-17578280Y68056300D01*
X-17309426Y68071399D01*
X-17275471Y68073305D01*
X-17268519Y68073500D01*
X-17227830Y68073500D01*
X-16427171Y68073500D01*
X-16389961Y68073500D01*
X-16376079Y68072721D01*
G37*
%TD.AperFunction*%
%TD*%
%TA.AperFunction,Conductor*%
%TO.N,GND*%
G36*
X15547674Y68056222D02*
G01*
X15558697Y68054980D01*
X15857031Y68004291D01*
X15867825Y68001828D01*
X16158619Y67918052D01*
X16169090Y67914388D01*
X16230861Y67888801D01*
X16448655Y67798587D01*
X16458657Y67793770D01*
X16723491Y67647402D01*
X16732892Y67641496D01*
X16907182Y67517830D01*
X16979678Y67466392D01*
X16988355Y67459472D01*
X17213993Y67257829D01*
X17221828Y67249994D01*
X17378252Y67074957D01*
X17423469Y67024359D01*
X17430391Y67015679D01*
X17605495Y66768892D01*
X17611401Y66759492D01*
X17757769Y66494658D01*
X17762586Y66484656D01*
X17878385Y66205095D01*
X17882052Y66194616D01*
X17965823Y65903841D01*
X17968293Y65893017D01*
X18018978Y65594703D01*
X18020221Y65583671D01*
X18037344Y65278778D01*
X18037500Y65273227D01*
X18037500Y23876774D01*
X18037344Y23871223D01*
X18020221Y23566330D01*
X18018978Y23555298D01*
X17968293Y23256984D01*
X17965823Y23246160D01*
X17882052Y22955385D01*
X17878385Y22944906D01*
X17762586Y22665345D01*
X17757769Y22655343D01*
X17611401Y22390509D01*
X17605495Y22381109D01*
X17430391Y22134322D01*
X17423469Y22125642D01*
X17221836Y21900015D01*
X17213985Y21892164D01*
X16988358Y21690531D01*
X16979678Y21683609D01*
X16732891Y21508505D01*
X16723491Y21502599D01*
X16458657Y21356231D01*
X16448655Y21351414D01*
X16169094Y21235615D01*
X16158615Y21231948D01*
X15867840Y21148177D01*
X15857016Y21145707D01*
X15558702Y21095022D01*
X15547670Y21093779D01*
X15242778Y21076656D01*
X15237227Y21076500D01*
X3050773Y21076500D01*
X3045222Y21076656D01*
X2740329Y21093779D01*
X2729297Y21095022D01*
X2430983Y21145707D01*
X2420159Y21148177D01*
X2129384Y21231948D01*
X2118905Y21235615D01*
X1839344Y21351414D01*
X1829342Y21356231D01*
X1564508Y21502599D01*
X1555108Y21508505D01*
X1308321Y21683609D01*
X1299641Y21690531D01*
X1074006Y21892172D01*
X1066171Y21900007D01*
X864528Y22125645D01*
X857608Y22134322D01*
X682504Y22381109D01*
X676598Y22390509D01*
X530230Y22655343D01*
X525413Y22665345D01*
X409614Y22944906D01*
X405947Y22955385D01*
X387587Y23019114D01*
X322172Y23246175D01*
X319709Y23256969D01*
X269020Y23555303D01*
X267778Y23566330D01*
X250656Y23871223D01*
X250500Y23876774D01*
X250500Y25652000D01*
X1130571Y25652000D01*
X1150244Y25439689D01*
X1158234Y25411608D01*
X1208595Y25234611D01*
X1303634Y25043745D01*
X1432128Y24873593D01*
X1432135Y24873587D01*
X1589692Y24729953D01*
X1589699Y24729947D01*
X1693389Y24665745D01*
X1770981Y24617702D01*
X1969802Y24540679D01*
X2179390Y24501500D01*
X2392610Y24501500D01*
X2602198Y24540679D01*
X2801019Y24617702D01*
X2982302Y24729948D01*
X3139872Y24873593D01*
X3268366Y25043745D01*
X3363405Y25234611D01*
X3421756Y25439690D01*
X3441429Y25652000D01*
X3421756Y25864310D01*
X3399113Y25943892D01*
X5641500Y25943892D01*
X5641500Y25812108D01*
X5642752Y25807436D01*
X5675609Y25684810D01*
X5741496Y25570691D01*
X5741498Y25570689D01*
X5741500Y25570686D01*
X5834686Y25477500D01*
X5834688Y25477499D01*
X5834690Y25477497D01*
X5948810Y25411610D01*
X5948808Y25411610D01*
X5948812Y25411609D01*
X5948814Y25411608D01*
X6076108Y25377500D01*
X6076110Y25377500D01*
X6207890Y25377500D01*
X6207892Y25377500D01*
X6335186Y25411608D01*
X6335188Y25411610D01*
X6335190Y25411610D01*
X6449309Y25477497D01*
X6449309Y25477498D01*
X6449314Y25477500D01*
X6542500Y25570686D01*
X6608392Y25684814D01*
X6642500Y25812108D01*
X6642500Y25943892D01*
X11516500Y25943892D01*
X11516500Y25812108D01*
X11517752Y25807436D01*
X11550609Y25684810D01*
X11616496Y25570691D01*
X11616498Y25570689D01*
X11616500Y25570686D01*
X11709686Y25477500D01*
X11709688Y25477499D01*
X11709690Y25477497D01*
X11823810Y25411610D01*
X11823808Y25411610D01*
X11823812Y25411609D01*
X11823814Y25411608D01*
X11951108Y25377500D01*
X11951110Y25377500D01*
X12332890Y25377500D01*
X12332892Y25377500D01*
X12460186Y25411608D01*
X12460188Y25411610D01*
X12460190Y25411610D01*
X12574309Y25477497D01*
X12574309Y25477498D01*
X12574314Y25477500D01*
X12667500Y25570686D01*
X12714447Y25652000D01*
X14846571Y25652000D01*
X14866244Y25439689D01*
X14874234Y25411608D01*
X14924595Y25234611D01*
X15019634Y25043745D01*
X15148128Y24873593D01*
X15148135Y24873587D01*
X15305692Y24729953D01*
X15305699Y24729947D01*
X15409389Y24665745D01*
X15486981Y24617702D01*
X15685802Y24540679D01*
X15895390Y24501500D01*
X16108610Y24501500D01*
X16318198Y24540679D01*
X16517019Y24617702D01*
X16698302Y24729948D01*
X16855872Y24873593D01*
X16984366Y25043745D01*
X17079405Y25234611D01*
X17137756Y25439690D01*
X17157429Y25652000D01*
X17137756Y25864310D01*
X17079405Y26069389D01*
X16984366Y26260255D01*
X16855872Y26430407D01*
X16801623Y26479861D01*
X16698307Y26574048D01*
X16698300Y26574054D01*
X16517024Y26686295D01*
X16517019Y26686298D01*
X16318195Y26763322D01*
X16108610Y26802500D01*
X15895390Y26802500D01*
X15685804Y26763322D01*
X15486980Y26686298D01*
X15486975Y26686295D01*
X15305699Y26574054D01*
X15305692Y26574048D01*
X15148135Y26430414D01*
X15148131Y26430411D01*
X15148128Y26430407D01*
X15148125Y26430403D01*
X15019635Y26260257D01*
X15019630Y26260248D01*
X14924596Y26069392D01*
X14866244Y25864312D01*
X14846571Y25652000D01*
X12714447Y25652000D01*
X12733392Y25684814D01*
X12767500Y25812108D01*
X12767500Y25943892D01*
X12733392Y26071186D01*
X12733390Y26071189D01*
X12733390Y26071191D01*
X12667503Y26185310D01*
X12667501Y26185312D01*
X12667500Y26185314D01*
X12574314Y26278500D01*
X12574311Y26278502D01*
X12574309Y26278504D01*
X12460189Y26344391D01*
X12460191Y26344391D01*
X12410799Y26357625D01*
X12332892Y26378500D01*
X11951108Y26378500D01*
X11873200Y26357625D01*
X11823809Y26344391D01*
X11709690Y26278504D01*
X11616496Y26185310D01*
X11550609Y26071191D01*
X11550608Y26071186D01*
X11516500Y25943892D01*
X6642500Y25943892D01*
X6608392Y26071186D01*
X6608390Y26071189D01*
X6608390Y26071191D01*
X6542503Y26185310D01*
X6542501Y26185312D01*
X6542500Y26185314D01*
X6449314Y26278500D01*
X6449311Y26278502D01*
X6449309Y26278504D01*
X6335189Y26344391D01*
X6335191Y26344391D01*
X6285799Y26357625D01*
X6207892Y26378500D01*
X6076108Y26378500D01*
X5998200Y26357625D01*
X5948809Y26344391D01*
X5834690Y26278504D01*
X5741496Y26185310D01*
X5675609Y26071191D01*
X5675608Y26071186D01*
X5641500Y25943892D01*
X3399113Y25943892D01*
X3363405Y26069389D01*
X3268366Y26260255D01*
X3139872Y26430407D01*
X3085623Y26479861D01*
X2982307Y26574048D01*
X2982300Y26574054D01*
X2801024Y26686295D01*
X2801019Y26686298D01*
X2602195Y26763322D01*
X2392610Y26802500D01*
X2179390Y26802500D01*
X1969804Y26763322D01*
X1770980Y26686298D01*
X1770975Y26686295D01*
X1589699Y26574054D01*
X1589692Y26574048D01*
X1432135Y26430414D01*
X1432131Y26430411D01*
X1432128Y26430407D01*
X1432125Y26430403D01*
X1303635Y26260257D01*
X1303630Y26260248D01*
X1208596Y26069392D01*
X1150244Y25864312D01*
X1130571Y25652000D01*
X250500Y25652000D01*
X250500Y65273227D01*
X250656Y65278778D01*
X265846Y65549267D01*
X267778Y65583677D01*
X269021Y65594703D01*
X271984Y65612142D01*
X319710Y65893036D01*
X322171Y65903823D01*
X405950Y66194626D01*
X409610Y66205085D01*
X525415Y66484663D01*
X530230Y66494658D01*
X676602Y66759500D01*
X682499Y66768885D01*
X857616Y67015690D01*
X864520Y67024348D01*
X1066179Y67250003D01*
X1073997Y67257821D01*
X1299652Y67459480D01*
X1308310Y67466384D01*
X1555115Y67641501D01*
X1564500Y67647398D01*
X1829348Y67793773D01*
X1839337Y67798585D01*
X2118915Y67914390D01*
X2129374Y67918050D01*
X2420177Y68001829D01*
X2430964Y68004290D01*
X2729304Y68054980D01*
X2740323Y68056222D01*
X3039663Y68073032D01*
X3056288Y68072567D01*
X3150736Y68061925D01*
X3172347Y68056992D01*
X3259404Y68026530D01*
X3279379Y68016910D01*
X3357468Y67967843D01*
X3374800Y67954022D01*
X3440021Y67888801D01*
X3453842Y67871469D01*
X3502909Y67793380D01*
X3512529Y67773405D01*
X3542991Y67686348D01*
X3547923Y67664736D01*
X3558877Y67567518D01*
X3559500Y67556433D01*
X3559500Y67514059D01*
X3560230Y67506314D01*
X3635164Y61972968D01*
X3635173Y61971601D01*
X3635149Y61881989D01*
X3670946Y61701500D01*
X3670948Y61701494D01*
X3670949Y61701489D01*
X3733402Y61550239D01*
X3741179Y61531405D01*
X3741181Y61531400D01*
X3843161Y61378225D01*
X3843167Y61378219D01*
X3972994Y61247814D01*
X4044212Y61199941D01*
X4125712Y61145156D01*
X4295487Y61074169D01*
X4475823Y61037568D01*
X4475828Y61037567D01*
X4656543Y61036765D01*
X4659841Y61036750D01*
X4659841Y61036751D01*
X4659845Y61036750D01*
X4840504Y61071747D01*
X5010903Y61141222D01*
X5164530Y61242520D01*
X5295515Y61371770D01*
X5398852Y61524033D01*
X5470593Y61693491D01*
X5482584Y61751343D01*
X5488055Y61769115D01*
X5494500Y61784672D01*
X5494500Y61798614D01*
X5496566Y61818735D01*
X5498247Y61826832D01*
X5495530Y61845521D01*
X5494500Y61859764D01*
X5494500Y65561489D01*
X5513243Y65619453D01*
X5667447Y65832964D01*
X5716845Y65869068D01*
X5747704Y65874000D01*
X6078307Y65874000D01*
X6078309Y65874000D01*
X6192886Y65904701D01*
X6192888Y65904703D01*
X6192890Y65904703D01*
X6295608Y65964008D01*
X6295608Y65964009D01*
X6295613Y65964011D01*
X6379489Y66047887D01*
X6438799Y66150614D01*
X6469500Y66265191D01*
X6469500Y66324500D01*
X6469500Y66368670D01*
X6469500Y66425000D01*
X6488407Y66483191D01*
X6537907Y66519155D01*
X6568500Y66524000D01*
X7694500Y66524000D01*
X7752691Y66505093D01*
X7788655Y66455593D01*
X7793500Y66425000D01*
X7793500Y66418670D01*
X7793500Y66374500D01*
X7793500Y66315191D01*
X7806897Y66265193D01*
X7824202Y66200610D01*
X7883507Y66097892D01*
X7883509Y66097890D01*
X7883511Y66097887D01*
X7937396Y66044002D01*
X7965172Y65989487D01*
X7955601Y65929055D01*
X7912336Y65885790D01*
X7867391Y65875000D01*
X7744252Y65875000D01*
X7744251Y65875000D01*
X7744241Y65874999D01*
X7685769Y65863368D01*
X7681879Y65861756D01*
X7620882Y65856960D01*
X7606121Y65861756D01*
X7602230Y65863368D01*
X7543758Y65874999D01*
X7543748Y65875000D01*
X7244252Y65875000D01*
X7244251Y65875000D01*
X7244241Y65874999D01*
X7185769Y65863368D01*
X7181879Y65861756D01*
X7120882Y65856960D01*
X7106121Y65861756D01*
X7102230Y65863368D01*
X7043758Y65874999D01*
X7043748Y65875000D01*
X6744252Y65875000D01*
X6744251Y65875000D01*
X6744241Y65874999D01*
X6685772Y65863368D01*
X6685766Y65863366D01*
X6619451Y65819055D01*
X6619445Y65819049D01*
X6575134Y65752734D01*
X6575132Y65752728D01*
X6563501Y65694259D01*
X6563500Y65694247D01*
X6563500Y64104754D01*
X6563501Y64104742D01*
X6575132Y64046273D01*
X6575133Y64046269D01*
X6619448Y63979948D01*
X6685769Y63935633D01*
X6730231Y63926789D01*
X6744241Y63924002D01*
X6744246Y63924002D01*
X6744252Y63924000D01*
X6744253Y63924000D01*
X7043747Y63924000D01*
X7043748Y63924000D01*
X7102231Y63935633D01*
X7102237Y63935638D01*
X7106112Y63937241D01*
X7167109Y63942043D01*
X7181888Y63937241D01*
X7185764Y63935637D01*
X7185769Y63935633D01*
X7244252Y63924000D01*
X7244253Y63924000D01*
X7543747Y63924000D01*
X7543748Y63924000D01*
X7602231Y63935633D01*
X7602237Y63935638D01*
X7606112Y63937241D01*
X7667109Y63942043D01*
X7681888Y63937241D01*
X7685764Y63935637D01*
X7685769Y63935633D01*
X7744252Y63924000D01*
X7744253Y63924000D01*
X8043747Y63924000D01*
X8043748Y63924000D01*
X8102231Y63935633D01*
X8102237Y63935638D01*
X8106112Y63937241D01*
X8167109Y63942043D01*
X8181888Y63937241D01*
X8185764Y63935637D01*
X8185769Y63935633D01*
X8244252Y63924000D01*
X8244253Y63924000D01*
X8543747Y63924000D01*
X8543748Y63924000D01*
X8602231Y63935633D01*
X8602237Y63935638D01*
X8606112Y63937241D01*
X8667109Y63942043D01*
X8681888Y63937241D01*
X8685764Y63935637D01*
X8685769Y63935633D01*
X8744252Y63924000D01*
X8744253Y63924000D01*
X9043747Y63924000D01*
X9043748Y63924000D01*
X9102231Y63935633D01*
X9102237Y63935638D01*
X9106112Y63937241D01*
X9167109Y63942043D01*
X9181888Y63937241D01*
X9185764Y63935637D01*
X9185769Y63935633D01*
X9244252Y63924000D01*
X9244253Y63924000D01*
X9543747Y63924000D01*
X9543748Y63924000D01*
X9602231Y63935633D01*
X9602237Y63935638D01*
X9606112Y63937241D01*
X9667109Y63942043D01*
X9681888Y63937241D01*
X9685764Y63935637D01*
X9685769Y63935633D01*
X9744252Y63924000D01*
X9744253Y63924000D01*
X10043747Y63924000D01*
X10043748Y63924000D01*
X10102231Y63935633D01*
X10102237Y63935638D01*
X10106112Y63937241D01*
X10167109Y63942043D01*
X10181888Y63937241D01*
X10185764Y63935637D01*
X10185769Y63935633D01*
X10244252Y63924000D01*
X10244253Y63924000D01*
X10543747Y63924000D01*
X10543748Y63924000D01*
X10602231Y63935633D01*
X10602237Y63935638D01*
X10606112Y63937241D01*
X10667109Y63942043D01*
X10681888Y63937241D01*
X10685764Y63935637D01*
X10685769Y63935633D01*
X10744252Y63924000D01*
X10744253Y63924000D01*
X11043747Y63924000D01*
X11043748Y63924000D01*
X11102231Y63935633D01*
X11102237Y63935638D01*
X11106112Y63937241D01*
X11167109Y63942043D01*
X11181888Y63937241D01*
X11185764Y63935637D01*
X11185769Y63935633D01*
X11244252Y63924000D01*
X11244253Y63924000D01*
X11543747Y63924000D01*
X11543748Y63924000D01*
X11602231Y63935633D01*
X11668552Y63979948D01*
X11712867Y64046269D01*
X11724500Y64104752D01*
X11724500Y65694248D01*
X11712867Y65752731D01*
X11668552Y65819052D01*
X11647732Y65832964D01*
X11602233Y65863366D01*
X11602231Y65863367D01*
X11602228Y65863368D01*
X11602227Y65863368D01*
X11543758Y65874999D01*
X11543748Y65875000D01*
X11244252Y65875000D01*
X11244251Y65875000D01*
X11244241Y65874999D01*
X11185769Y65863368D01*
X11181879Y65861756D01*
X11120882Y65856960D01*
X11106121Y65861756D01*
X11102230Y65863368D01*
X11043758Y65874999D01*
X11043748Y65875000D01*
X10744252Y65875000D01*
X10744251Y65875000D01*
X10744241Y65874999D01*
X10685769Y65863368D01*
X10681879Y65861756D01*
X10620882Y65856960D01*
X10606121Y65861756D01*
X10602230Y65863368D01*
X10543758Y65874999D01*
X10543748Y65875000D01*
X10244252Y65875000D01*
X10244251Y65875000D01*
X10244241Y65874999D01*
X10185769Y65863368D01*
X10181879Y65861756D01*
X10120882Y65856960D01*
X10106121Y65861756D01*
X10102230Y65863368D01*
X10043758Y65874999D01*
X10043748Y65875000D01*
X9744252Y65875000D01*
X9744251Y65875000D01*
X9744241Y65874999D01*
X9685769Y65863368D01*
X9681879Y65861756D01*
X9620882Y65856960D01*
X9606121Y65861756D01*
X9602231Y65863367D01*
X9590157Y65865769D01*
X9536774Y65895667D01*
X9511160Y65951233D01*
X9523098Y66011242D01*
X9539467Y66032866D01*
X9604489Y66097887D01*
X9663799Y66200614D01*
X9694500Y66315191D01*
X9694500Y66374500D01*
X9694500Y66418670D01*
X9694500Y66425000D01*
X9713407Y66483191D01*
X9762907Y66519155D01*
X9793500Y66524000D01*
X11719500Y66524000D01*
X11777691Y66505093D01*
X11813655Y66455593D01*
X11818500Y66425000D01*
X11818500Y66368670D01*
X11818500Y66324500D01*
X11818500Y66265191D01*
X11835805Y66200610D01*
X11849202Y66150610D01*
X11908507Y66047892D01*
X11908509Y66047890D01*
X11908511Y66047887D01*
X11992387Y65964011D01*
X11992389Y65964010D01*
X11992391Y65964008D01*
X12095110Y65904703D01*
X12095111Y65904703D01*
X12095114Y65904701D01*
X12209691Y65874000D01*
X12219172Y65874000D01*
X12508897Y65874000D01*
X12567088Y65855093D01*
X12585366Y65837876D01*
X12770970Y65612141D01*
X12793323Y65555186D01*
X12793500Y65549267D01*
X12793500Y63474672D01*
X12831634Y63382606D01*
X12831635Y63382605D01*
X12831636Y63382603D01*
X12902103Y63312136D01*
X12902104Y63312136D01*
X12902105Y63312135D01*
X12994171Y63274000D01*
X12994172Y63274000D01*
X13094500Y63274000D01*
X13152691Y63255093D01*
X13188655Y63205593D01*
X13193500Y63175000D01*
X13193500Y61874719D01*
X13192703Y61862179D01*
X13191687Y61854231D01*
X13191687Y61854228D01*
X13191687Y61854226D01*
X13191687Y61854224D01*
X13193388Y61818424D01*
X13193500Y61813726D01*
X13193500Y61772173D01*
X13194679Y61766243D01*
X13196475Y61751483D01*
X13197474Y61729753D01*
X13197474Y61729749D01*
X13237865Y61574011D01*
X13309299Y61429845D01*
X13309301Y61429842D01*
X13408742Y61303372D01*
X13408748Y61303365D01*
X13474938Y61247816D01*
X13531986Y61199939D01*
X13673798Y61123945D01*
X13828169Y61078607D01*
X13988553Y61065847D01*
X13988553Y61065848D01*
X13988555Y61065847D01*
X14148147Y61086206D01*
X14148149Y61086207D01*
X14148151Y61086207D01*
X14300195Y61138823D01*
X14438239Y61221464D01*
X14556431Y61330626D01*
X14649760Y61461682D01*
X14714268Y61609075D01*
X14747221Y61766555D01*
X14747186Y61787854D01*
X14747283Y61788849D01*
X14747253Y61797986D01*
X14747254Y61797987D01*
X14747093Y61847475D01*
X14747093Y61891170D01*
X14747093Y61898567D01*
X14746919Y61900498D01*
X14728519Y67556306D01*
X14729140Y67567691D01*
X14740075Y67664739D01*
X14745007Y67686345D01*
X14775471Y67773406D01*
X14785087Y67793376D01*
X14834159Y67871473D01*
X14847974Y67888797D01*
X14913203Y67954026D01*
X14930527Y67967841D01*
X15008624Y68016913D01*
X15028591Y68026529D01*
X15115653Y68056993D01*
X15137261Y68061925D01*
X15231712Y68072567D01*
X15248336Y68073032D01*
X15547674Y68056222D01*
G37*
%TD.AperFunction*%
%TD*%
M02*
