%TF.GenerationSoftware,KiCad,Pcbnew,8.0.2*%
%TF.CreationDate,2024-05-27T11:14:22+02:00*%
%TF.ProjectId,005_usb_volt_tester_beta,3030355f-7573-4625-9f76-6f6c745f7465,rev?*%
%TF.SameCoordinates,Original*%
%TF.FileFunction,Profile,NP*%
%FSLAX46Y46*%
G04 Gerber Fmt 4.6, Leading zero omitted, Abs format (unit mm)*
G04 Created by KiCad (PCBNEW 8.0.2) date 2024-05-27 11:14:22*
%MOMM*%
%LPD*%
G01*
G04 APERTURE LIST*
%TA.AperFunction,Profile*%
%ADD10C,0.100000*%
%TD*%
G04 APERTURE END LIST*
D10*
X5243999Y61834500D02*
G75*
G02*
X3885674Y61974000I-671999J139500D01*
G01*
X14496593Y61847000D02*
G75*
G02*
X13444001Y61822000I-526593J0D01*
G01*
X14478000Y67562000D02*
X14496593Y61847000D01*
X3810000Y67562000D02*
X3885674Y61974000D01*
X14478000Y67562000D02*
G75*
G02*
X15240000Y68324000I762000J0D01*
G01*
X3048000Y68324000D02*
G75*
G02*
X3810000Y67562000I0J-762000D01*
G01*
X-17272000Y68324000D02*
X-16383002Y68324000D01*
X-5080000Y68324000D02*
X-5969000Y68324000D01*
X37222000Y60960000D02*
G75*
G02*
X35422000Y60960000I-900000J0D01*
G01*
X35422000Y60960000D02*
G75*
G02*
X37222000Y60960000I900000J0D01*
G01*
X23506000Y60960000D02*
G75*
G02*
X21706000Y60960000I-900000J0D01*
G01*
X21706000Y60960000D02*
G75*
G02*
X23506000Y60960000I900000J0D01*
G01*
X-2568000Y60960000D02*
G75*
G02*
X-6068000Y60960000I-1750000J0D01*
G01*
X-6068000Y60960000D02*
G75*
G02*
X-2568000Y60960000I1750000J0D01*
G01*
X-16284000Y60960000D02*
G75*
G02*
X-19784000Y60960000I-1750000J0D01*
G01*
X-19784000Y60960000D02*
G75*
G02*
X-16284000Y60960000I1750000J0D01*
G01*
X-15113000Y61720000D02*
X-7239000Y61720000D01*
X-6731000Y62228000D02*
G75*
G02*
X-7239000Y61720000I-508000J0D01*
G01*
X-15621001Y67562001D02*
X-15621000Y62228000D01*
X-6731000Y62228000D02*
X-6731000Y67562000D01*
X-6731000Y67562000D02*
G75*
G02*
X-5969000Y68324000I762000J0D01*
G01*
X-16383002Y68324000D02*
G75*
G02*
X-15621001Y67562001I1J-762000D01*
G01*
X-15113000Y61720000D02*
G75*
G02*
X-15621000Y62228000I1J508001D01*
G01*
X25527000Y62228000D02*
X33401000Y62228000D01*
X57542000Y25652000D02*
G75*
G02*
X55742000Y25652000I-900000J0D01*
G01*
X55742000Y25652000D02*
G75*
G02*
X57542000Y25652000I900000J0D01*
G01*
X43826000Y25652000D02*
G75*
G02*
X42026000Y25652000I-900000J0D01*
G01*
X42026000Y25652000D02*
G75*
G02*
X43826000Y25652000I900000J0D01*
G01*
X44196000Y20826000D02*
X43688000Y20826000D01*
X55880000Y20826000D02*
X55372000Y20826000D01*
X55372000Y20826000D02*
G75*
G02*
X54737000Y21461000I0J635000D01*
G01*
X44831000Y21461000D02*
X44831000Y27684000D01*
X54229000Y28192000D02*
G75*
G02*
X54737000Y27684000I0J-508000D01*
G01*
X43688000Y20826000D02*
G75*
G02*
X40640000Y23874000I0J3048000D01*
G01*
X44831000Y27684000D02*
G75*
G02*
X45339000Y28192000I508000J0D01*
G01*
X45339000Y28192000D02*
X54229000Y28192000D01*
X58928000Y23874000D02*
G75*
G02*
X55880000Y20826000I-3048000J0D01*
G01*
X54737000Y27684000D02*
X54737000Y21461000D01*
X44831000Y21461000D02*
G75*
G02*
X44196000Y20826000I-635000J0D01*
G01*
X37222000Y25652000D02*
G75*
G02*
X35422000Y25652000I-900000J0D01*
G01*
X35422000Y25652000D02*
G75*
G02*
X37222000Y25652000I900000J0D01*
G01*
X16902000Y25652000D02*
G75*
G02*
X15102000Y25652000I-900000J0D01*
G01*
X15102000Y25652000D02*
G75*
G02*
X16902000Y25652000I900000J0D01*
G01*
X23506000Y25652000D02*
G75*
G02*
X21706000Y25652000I-900000J0D01*
G01*
X21706000Y25652000D02*
G75*
G02*
X23506000Y25652000I900000J0D01*
G01*
X3186000Y25652000D02*
G75*
G02*
X1386000Y25652000I-900000J0D01*
G01*
X1386000Y25652000D02*
G75*
G02*
X3186000Y25652000I900000J0D01*
G01*
X-2568000Y25652000D02*
G75*
G02*
X-6068000Y25652000I-1750000J0D01*
G01*
X-6068000Y25652000D02*
G75*
G02*
X-2568000Y25652000I1750000J0D01*
G01*
X-16284000Y25652000D02*
G75*
G02*
X-19784000Y25652000I-1750000J0D01*
G01*
X-19784000Y25652000D02*
G75*
G02*
X-16284000Y25652000I1750000J0D01*
G01*
X-6017797Y11125203D02*
G75*
G02*
X-7952203Y11125203I-967203J0D01*
G01*
X-7952203Y11125203D02*
G75*
G02*
X-6017797Y11125203I967203J0D01*
G01*
X-5849077Y7237000D02*
G75*
G02*
X-8120923Y7237000I-1135923J0D01*
G01*
X-8120923Y7237000D02*
G75*
G02*
X-5849077Y7237000I1135923J0D01*
G01*
X-14485077Y7237000D02*
G75*
G02*
X-16756923Y7237000I-1135923J0D01*
G01*
X-16756923Y7237000D02*
G75*
G02*
X-14485077Y7237000I1135923J0D01*
G01*
X-14653797Y11125203D02*
G75*
G02*
X-16588203Y11125203I-967203J0D01*
G01*
X-16588203Y11125203D02*
G75*
G02*
X-14653797Y11125203I967203J0D01*
G01*
X-17272000Y20826000D02*
X-5080000Y20826000D01*
X-37592000Y20826000D02*
G75*
G02*
X-40640000Y23874000I0J3048000D01*
G01*
X-37592000Y20826000D02*
X-25400000Y20826000D01*
X-22352000Y23874000D02*
G75*
G02*
X-25400000Y20826000I-3048000J0D01*
G01*
X3048000Y20826000D02*
X15240000Y20826000D01*
X18288000Y23874000D02*
G75*
G02*
X15240000Y20826000I-3048000J0D01*
G01*
X3048000Y20826000D02*
G75*
G02*
X0Y23874000I0J3048000D01*
G01*
X0Y65276000D02*
G75*
G02*
X3048000Y68324000I3048000J0D01*
G01*
X55880000Y68324000D02*
G75*
G02*
X58928000Y65276000I0J-3048000D01*
G01*
X-17272000Y20826000D02*
G75*
G02*
X-20320000Y23874000I0J3048000D01*
G01*
X24511000Y27684000D02*
G75*
G02*
X25019000Y28192000I508000J0D01*
G01*
X35052000Y43178000D02*
G75*
G02*
X29972000Y43178000I-2540000J0D01*
G01*
X29972000Y43178000D02*
G75*
G02*
X35052000Y43178000I2540000J0D01*
G01*
X34417000Y27684000D02*
X34417000Y21461000D01*
X40640000Y65276000D02*
G75*
G02*
X43688000Y68324000I3048000J0D01*
G01*
X0Y65276000D02*
X0Y23874000D01*
X24511000Y21461000D02*
G75*
G02*
X23876000Y20826000I-635000J0D01*
G01*
X20320000Y65276000D02*
G75*
G02*
X23368000Y68324000I3048000J0D01*
G01*
X40640000Y65276000D02*
X40640000Y23874000D01*
X-2032000Y23874000D02*
X-2032000Y65276000D01*
X24257000Y68324000D02*
G75*
G02*
X25019000Y67562000I0J-762000D01*
G01*
X35052000Y35558000D02*
G75*
G02*
X29972000Y35558000I-2540000J0D01*
G01*
X29972000Y35558000D02*
G75*
G02*
X35052000Y35558000I2540000J0D01*
G01*
X33909000Y67562000D02*
G75*
G02*
X34671000Y68324000I762000J0D01*
G01*
X28702000Y46988000D02*
G75*
G02*
X23622000Y46988000I-2540000J0D01*
G01*
X23622000Y46988000D02*
G75*
G02*
X28702000Y46988000I2540000J0D01*
G01*
X23368000Y20826000D02*
G75*
G02*
X20320000Y23874000I0J3048000D01*
G01*
X-37592000Y68324000D02*
X-25400000Y68324000D01*
X58928000Y23874000D02*
X58928000Y65276000D01*
X35560000Y68324000D02*
X34671000Y68324000D01*
X38608000Y23874000D02*
G75*
G02*
X35560000Y20826000I-3048000J0D01*
G01*
X25019000Y28192000D02*
X33909000Y28192000D01*
X25527000Y62228000D02*
G75*
G02*
X25019000Y62736000I0J508000D01*
G01*
X-2032000Y23874000D02*
G75*
G02*
X-5080000Y20826000I-3048000J0D01*
G01*
X18288000Y23874000D02*
X18288000Y65276000D01*
X28702000Y54608000D02*
G75*
G02*
X23622000Y54608000I-2540000J0D01*
G01*
X23622000Y54608000D02*
G75*
G02*
X28702000Y54608000I2540000J0D01*
G01*
X33909000Y28192000D02*
G75*
G02*
X34417000Y27684000I0J-508000D01*
G01*
X24511000Y21461000D02*
X24511000Y27684000D01*
X-20320000Y65276000D02*
X-20320000Y23874000D01*
X28702000Y39368000D02*
G75*
G02*
X23622000Y39368000I-2540000J0D01*
G01*
X23622000Y39368000D02*
G75*
G02*
X28702000Y39368000I2540000J0D01*
G01*
X35052000Y50798000D02*
G75*
G02*
X29972000Y50798000I-2540000J0D01*
G01*
X29972000Y50798000D02*
G75*
G02*
X35052000Y50798000I2540000J0D01*
G01*
X33909000Y62736000D02*
X33909000Y67562000D01*
X28702000Y31748000D02*
G75*
G02*
X23622000Y31748000I-2540000J0D01*
G01*
X23622000Y31748000D02*
G75*
G02*
X28702000Y31748000I2540000J0D01*
G01*
X23368000Y68324000D02*
X24257000Y68324000D01*
X35052000Y20826000D02*
G75*
G02*
X34417000Y21461000I0J635000D01*
G01*
X35560000Y68324000D02*
G75*
G02*
X38608000Y65276000I0J-3048000D01*
G01*
X-5080000Y68324000D02*
G75*
G02*
X-2032000Y65276000I0J-3048000D01*
G01*
X38608000Y23874000D02*
X38608000Y65276000D01*
X-25400000Y68324000D02*
G75*
G02*
X-22352000Y65276000I0J-3048000D01*
G01*
X15240000Y68324000D02*
G75*
G02*
X18288000Y65276000I0J-3048000D01*
G01*
X20320000Y65276000D02*
X20320000Y23874000D01*
X43688000Y68324000D02*
X55880000Y68324000D01*
X33909000Y62736000D02*
G75*
G02*
X33401000Y62228000I-508000J0D01*
G01*
X-40640000Y65276000D02*
X-40640000Y23874000D01*
X25019000Y67562000D02*
X25019000Y62736000D01*
X-40640000Y65276000D02*
G75*
G02*
X-37592000Y68324000I3048000J0D01*
G01*
X-22352000Y23874000D02*
X-22352000Y65276000D01*
X-20320000Y65276000D02*
G75*
G02*
X-17272000Y68324000I3048000J0D01*
G01*
X35052000Y58418000D02*
G75*
G02*
X29972000Y58418000I-2540000J0D01*
G01*
X29972000Y58418000D02*
G75*
G02*
X35052000Y58418000I2540000J0D01*
G01*
X23876000Y20826000D02*
X23368000Y20826000D01*
X35560000Y20826000D02*
X35052000Y20826000D01*
%TO.C,P1*%
X6219000Y66574500D02*
G75*
G02*
X6419000Y66774500I200000J0D01*
G01*
X6219000Y66324500D02*
G75*
G02*
X6019000Y66124500I-200000J0D01*
G01*
X7844000Y66774500D02*
G75*
G02*
X8044000Y66574500I0J-200000D01*
G01*
X8244000Y66174500D02*
G75*
G02*
X8044000Y66374500I0J200000D01*
G01*
X9444000Y66574500D02*
G75*
G02*
X9644000Y66774500I200001J-1D01*
G01*
X9444000Y66374500D02*
G75*
G02*
X9244000Y66174500I-200001J1D01*
G01*
X11869000Y66774500D02*
G75*
G02*
X12069000Y66574500I-1J-200001D01*
G01*
X12269000Y66124500D02*
G75*
G02*
X12069000Y66324500I1J200001D01*
G01*
X5244000Y65674500D02*
X5244000Y61834500D01*
X5569000Y66124500D02*
X5244000Y65674500D01*
X6019000Y66124500D02*
X5569000Y66124500D01*
X6219000Y66574500D02*
X6219000Y66324500D01*
X7844000Y66774500D02*
X6419000Y66774500D01*
X8044000Y66574500D02*
X8044000Y66374500D01*
X9244000Y66174500D02*
X8244000Y66174500D01*
X9444000Y66374500D02*
X9444000Y66574500D01*
X9644000Y66774500D02*
X11869000Y66774500D01*
X12069000Y66574500D02*
X12069000Y66324500D01*
X12269000Y66124500D02*
X12674000Y66124500D01*
X12674000Y66124500D02*
X13044000Y65674500D01*
X13044000Y65674500D02*
X13044000Y63524500D01*
X13444000Y63524500D02*
X13044000Y63524500D01*
X13444000Y61822000D02*
X13444000Y63524500D01*
%TD*%
M02*
