M48
INCH
T1C0.0118
T2C0.0197
T3C0.0236
T4C0.0394
%
G90
G05
T1
X-0.27Y2.8699
X-0.2327Y2.8799
X-0.1973Y2.8799
X-0.16Y2.8699
X-0.125Y-0.2401
X-0.09Y-0.2251
X-0.015Y-0.2401
T2
X-0.415Y2.9899
X-0.41Y2.9399
X-0.3676Y2.9199
X-0.335Y2.8699
X-0.315Y2.9099
X-0.275Y2.9299
X-0.21Y-0.2851
X-0.205Y-0.3301
X-0.165Y-0.2551
X-0.155Y2.9299
X-0.13Y-0.2851
X-0.115Y2.9099
X-0.095Y2.8699
X-0.06Y2.9199
X-0.02Y2.9899
X-0.02Y2.9449
X-0.01Y-0.2851
X0.025Y-0.2551
X0.065Y-0.2851
X0.065Y-0.3301
T4
X1.2376Y-0.3835
X1.2376Y-0.5835
X1.2576Y-0.4835
X1.2576Y-0.6835
T3
G00X0.1898Y1.067
M15
G01X0.1898Y1.0277
M16
G05
G00X0.1898Y0.9224
M15
G01X0.1898Y0.8712
M16
G05
G00X0.53Y1.067
M15
G01X0.53Y1.0277
M16
G05
G00X0.53Y0.9224
M15
G01X0.53Y0.8712
M16
G05
M30
